<?xml version="1.0" encoding="UTF-8" standalone="no"?><svg xmlns="http://www.w3.org/2000/svg" xmlns:xlink="http://www.w3.org/1999/xlink" contentScriptType="application/ecmascript" contentStyleType="text/css" height="222px" preserveAspectRatio="none" style="width:470px;height:222px;" version="1.1" viewBox="0 0 470 222" width="470px" zoomAndPan="magnify"><defs><filter height="300%" id="fy47fr95lx706" width="300%" x="-1" y="-1"><feGaussianBlur result="blurOut" stdDeviation="2.0"/><feColorMatrix in="blurOut" result="blurOut2" type="matrix" values="0 0 0 0 0 0 0 0 0 0 0 0 0 0 0 0 0 0 .4 0"/><feOffset dx="4.0" dy="4.0" in="blurOut2" result="blurOut3"/><feBlend in="SourceGraphic" in2="blurOut3" mode="normal"/></filter></defs><g><!--class Test--><rect fill="#FEFECE" filter="url(#fy47fr95lx706)" height="24.1328" id="Test" style="stroke: #A80036; stroke-width: 1.5;" width="31" x="6" y="166"/><text fill="#000000" font-family="sans-serif" font-size="12" lengthAdjust="spacingAndGlyphs" textLength="25" x="9" y="182.6016">Test</text><!--class Original--><rect fill="#FEFECE" filter="url(#fy47fr95lx706)" height="66.043" id="Original" style="stroke: #A80036; stroke-width: 1.5;" width="72" x="109.5" y="8"/><text fill="#000000" font-family="sans-serif" font-size="12" lengthAdjust="spacingAndGlyphs" textLength="44" x="123.5" y="24.6016">Original</text><line style="stroke: #A80036; stroke-width: 1.5;" x1="110.5" x2="180.5" y1="32.1328" y2="32.1328"/><line style="stroke: #A80036; stroke-width: 1.5;" x1="110.5" x2="180.5" y1="40.1328" y2="40.1328"/><ellipse cx="120.5" cy="52.1104" fill="#84BE84" rx="3" ry="3" style="stroke: #038048; stroke-width: 1.0;"/><text fill="#000000" font-family="sans-serif" font-size="11" lengthAdjust="spacingAndGlyphs" textLength="45" x="129.5" y="54.7676">doThis()</text><ellipse cx="120.5" cy="65.0654" fill="#84BE84" rx="3" ry="3" style="stroke: #038048; stroke-width: 1.0;"/><text fill="#000000" font-family="sans-serif" font-size="11" lengthAdjust="spacingAndGlyphs" textLength="46" x="129.5" y="67.7227">doThat()</text><!--class PartialMock--><rect fill="#FEFECE" filter="url(#fy47fr95lx706)" height="66.043" id="PartialMock" style="stroke: #A80036; stroke-width: 1.5;" width="72" x="109.5" y="145"/><text fill="#000000" font-family="sans-serif" font-size="12" lengthAdjust="spacingAndGlyphs" textLength="66" x="112.5" y="161.6016">PartialMock</text><line style="stroke: #A80036; stroke-width: 1.5;" x1="110.5" x2="180.5" y1="169.1328" y2="169.1328"/><line style="stroke: #A80036; stroke-width: 1.5;" x1="110.5" x2="180.5" y1="177.1328" y2="177.1328"/><ellipse cx="120.5" cy="189.1104" fill="#84BE84" rx="3" ry="3" style="stroke: #038048; stroke-width: 1.0;"/><text fill="#000000" font-family="sans-serif" font-size="11" lengthAdjust="spacingAndGlyphs" textLength="45" x="129.5" y="191.7676">doThis()</text><ellipse cx="120.5" cy="202.0654" fill="#84BE84" rx="3" ry="3" style="stroke: #038048; stroke-width: 1.0;"/><text fill="#000000" font-family="sans-serif" font-size="11" lengthAdjust="spacingAndGlyphs" textLength="46" x="129.5" y="204.7227">doThat()</text><path d="M216.5,135 L216.5,151.3105 L174.5,187.6104 L216.5,159.3105 L216.5,175.6211 A0,0 0 0 0 216.5,175.6211 L358.5,175.6211 A0,0 0 0 0 358.5,175.6211 L358.5,145 L348.5,135 L216.5,135 A0,0 0 0 0 216.5,135 " fill="#FBFB77" filter="url(#fy47fr95lx706)" style="stroke: #A80036; stroke-width: 1.0;"/><path d="M348.5,135 L348.5,145 L358.5,145 L348.5,135 " fill="#FBFB77" style="stroke: #A80036; stroke-width: 1.0;"/><text fill="#000000" font-family="sans-serif" font-size="13" lengthAdjust="spacingAndGlyphs" textLength="49" x="222.5" y="152.5684">Mocked</text><text fill="#000000" font-family="sans-serif" font-size="13" lengthAdjust="spacingAndGlyphs" textLength="121" x="222.5" y="167.8789">Keine Weiterleitung</text><path d="M216.5,185.6211 L216.5,194.2764 L175.5,200.5654 L216.5,202.2764 L216.5,210.9316 A0,0 0 0 0 216.5,210.9316 L458.5,210.9316 A0,0 0 0 0 458.5,210.9316 L458.5,195.6211 L448.5,185.6211 L216.5,185.6211 A0,0 0 0 0 216.5,185.6211 " fill="#FBFB77" filter="url(#fy47fr95lx706)" style="stroke: #A80036; stroke-width: 1.0;"/><path d="M448.5,185.6211 L448.5,195.6211 L458.5,195.6211 L448.5,185.6211 " fill="#FBFB77" style="stroke: #A80036; stroke-width: 1.0;"/><text fill="#000000" font-family="sans-serif" font-size="13" lengthAdjust="spacingAndGlyphs" textLength="221" x="222.5" y="203.1895">Weiterleitung auf Original::doThat()</text><!--link PartialMock to PartialMock$$$RIGHT--><!--link Original to PartialMock--><path d="M133.0344,94.2676 C132.391,111.2396 132.8393,129.5258 134.3794,144.6667 " fill="none" id="Original-PartialMock" style="stroke: #A80036; stroke-width: 1.0;"/><polygon fill="none" points="126.0605,93.6448,134.3967,74.1639,140.0284,94.5914,126.0605,93.6448" style="stroke: #A80036; stroke-width: 1.0;"/><!--link Original to PartialMock--><path d="M157.7575,79.285 C159.5619,99.8361 159.401,124.925 157.2748,144.6667 " fill="none" id="Original-PartialMock" style="stroke: #A80036; stroke-width: 1.0;"/><polygon fill="#A80036" points="157.2565,74.1639,154.1521,83.5107,157.7435,79.1401,162.1141,82.7315,157.2565,74.1639" style="stroke: #A80036; stroke-width: 1.0;"/><!--link Test to PartialMock--><path d="M37.2047,178 C53.9873,178 81.2844,178 104.2733,178 " fill="none" id="Test-PartialMock" style="stroke: #A80036; stroke-width: 1.0; stroke-dasharray: 7.0,7.0;"/><polygon fill="#A80036" points="109.4089,178,100.4089,174,104.4089,178,100.4089,182,109.4089,178" style="stroke: #A80036; stroke-width: 1.0;"/><text fill="#000000" font-family="sans-serif" font-size="13" lengthAdjust="spacingAndGlyphs" textLength="36" x="55.25" y="171.5684">«use»</text><!--
@startuml
hide circle
hide Test members

class Original {
    + doThis()
    + doThat()
}
class PartialMock{
    + doThis()
    + doThat()
}
class Test

note right of PartialMock::doThis()
Mocked
Keine Weiterleitung
end note

note right of PartialMock::doThat()
Weiterleitung auf Original::doThat()
end note

Original <|- - PartialMock
Original <- - PartialMock
PartialMock <..right.. Test : <<use>>


@enduml

PlantUML version 1.2018.09(Fri Jul 27 18:58:18 CEST 2018)
(GPL source distribution)
Java Runtime: OpenJDK Runtime Environment
JVM: OpenJDK 64-Bit Server VM
Java Version: 1.8.0_152-release-1248-b8
Operating System: Mac OS X
OS Version: 10.13.6
Default Encoding: UTF-8
Language: de
Country: DE
--></g></svg>