<?xml version="1.0" encoding="UTF-8" standalone="no"?><svg xmlns="http://www.w3.org/2000/svg" xmlns:xlink="http://www.w3.org/1999/xlink" contentScriptType="application/ecmascript" contentStyleType="text/css" height="200px" preserveAspectRatio="none" style="width:403px;height:200px;" version="1.1" viewBox="0 0 403 200" width="403px" zoomAndPan="magnify"><defs><filter height="300%" id="fj2aaub00e1se" width="300%" x="-1" y="-1"><feGaussianBlur result="blurOut" stdDeviation="2.0"/><feColorMatrix in="blurOut" result="blurOut2" type="matrix" values="0 0 0 0 0 0 0 0 0 0 0 0 0 0 0 0 0 0 .4 0"/><feOffset dx="4.0" dy="4.0" in="blurOut2" result="blurOut3"/><feBlend in="SourceGraphic" in2="blurOut3" mode="normal"/></filter></defs><g><!--class Client--><rect fill="#FEFECE" filter="url(#fj2aaub00e1se)" height="24.1328" id="Client" style="stroke: #A80036; stroke-width: 1.5;" width="38" x="90.5" y="26.5"/><text fill="#000000" font-family="sans-serif" font-size="12" lengthAdjust="spacingAndGlyphs" textLength="32" x="93.5" y="43.1016">Client</text><!--class Target--><rect fill="#FEFECE" filter="url(#fj2aaub00e1se)" height="60.9551" id="Target" style="stroke: #A80036; stroke-width: 1.5;" width="75" x="164" y="8"/><ellipse cx="181.25" cy="24" fill="#ADD1B2" rx="11" ry="11" style="stroke: #A80036; stroke-width: 1.0;"/><path d="M184.2231,29.6431 Q183.6421,29.9419 183.0029,30.0913 Q182.3638,30.2407 181.6582,30.2407 Q179.1514,30.2407 177.8315,28.5889 Q176.5117,26.937 176.5117,23.8159 Q176.5117,20.6865 177.8315,19.0347 Q179.1514,17.3828 181.6582,17.3828 Q182.3638,17.3828 183.0112,17.5322 Q183.6587,17.6816 184.2231,17.9805 L184.2231,20.7031 Q183.5923,20.1221 182.9988,19.8523 Q182.4053,19.5825 181.7744,19.5825 Q180.4297,19.5825 179.7449,20.6492 Q179.0601,21.7158 179.0601,23.8159 Q179.0601,25.9077 179.7449,26.9744 Q180.4297,28.041 181.7744,28.041 Q182.4053,28.041 182.9988,27.7712 Q183.5923,27.5015 184.2231,26.9204 Z "/><text fill="#000000" font-family="sans-serif" font-size="12" lengthAdjust="spacingAndGlyphs" textLength="38" x="195.75" y="28.5352">Target</text><line style="stroke: #A80036; stroke-width: 1.5;" x1="165" x2="238" y1="40" y2="40"/><line style="stroke: #A80036; stroke-width: 1.5;" x1="165" x2="238" y1="48" y2="48"/><ellipse cx="175" cy="59.9775" fill="#84BE84" rx="3" ry="3" style="stroke: #038048; stroke-width: 1.0;"/><text fill="#000000" font-family="sans-serif" font-size="11" lengthAdjust="spacingAndGlyphs" textLength="49" x="184" y="62.6348">request()</text><!--class Adapter--><rect fill="#FEFECE" filter="url(#fj2aaub00e1se)" height="60.9551" id="Adapter" style="stroke: #A80036; stroke-width: 1.5;" width="79" x="228" y="129"/><ellipse cx="243" cy="145" fill="#ADD1B2" rx="11" ry="11" style="stroke: #A80036; stroke-width: 1.0;"/><path d="M245.9731,150.6431 Q245.3921,150.9419 244.7529,151.0913 Q244.1138,151.2407 243.4082,151.2407 Q240.9014,151.2407 239.5815,149.5889 Q238.2617,147.937 238.2617,144.8159 Q238.2617,141.6865 239.5815,140.0347 Q240.9014,138.3828 243.4082,138.3828 Q244.1138,138.3828 244.7612,138.5322 Q245.4087,138.6816 245.9731,138.9805 L245.9731,141.7031 Q245.3423,141.1221 244.7488,140.8523 Q244.1553,140.5825 243.5244,140.5825 Q242.1797,140.5825 241.4949,141.6492 Q240.8101,142.7158 240.8101,144.8159 Q240.8101,146.9077 241.4949,147.9744 Q242.1797,149.041 243.5244,149.041 Q244.1553,149.041 244.7488,148.7712 Q245.3423,148.5015 245.9731,147.9204 Z "/><text fill="#000000" font-family="sans-serif" font-size="12" lengthAdjust="spacingAndGlyphs" textLength="47" x="257" y="149.5352">Adapter</text><line style="stroke: #A80036; stroke-width: 1.5;" x1="229" x2="306" y1="161" y2="161"/><line style="stroke: #A80036; stroke-width: 1.5;" x1="229" x2="306" y1="169" y2="169"/><ellipse cx="239" cy="180.9775" fill="#84BE84" rx="3" ry="3" style="stroke: #038048; stroke-width: 1.0;"/><text fill="#000000" font-family="sans-serif" font-size="11" lengthAdjust="spacingAndGlyphs" textLength="49" x="248" y="183.6348">request()</text><path d="M6,142 L6,167.3105 A0,0 0 0 0 6,167.3105 L193,167.3105 A0,0 0 0 0 193,167.3105 L193,160 L232,179.4775 L193,152 L193,152 L183,142 L6,142 A0,0 0 0 0 6,142 " fill="#FBFB77" filter="url(#fj2aaub00e1se)" style="stroke: #A80036; stroke-width: 1.0;"/><path d="M183,142 L183,152 L193,152 L183,142 " fill="#FBFB77" style="stroke: #A80036; stroke-width: 1.0;"/><text fill="#000000" font-family="sans-serif" font-size="13" lengthAdjust="spacingAndGlyphs" textLength="166" x="12" y="159.5684">adaptee-&gt;specificRequest</text><!--class Adaptee--><rect fill="#FEFECE" filter="url(#fj2aaub00e1se)" height="60.9551" id="Adaptee" style="stroke: #A80036; stroke-width: 1.5;" width="118" x="274.5" y="8"/><ellipse cx="306.15" cy="24" fill="#ADD1B2" rx="11" ry="11" style="stroke: #A80036; stroke-width: 1.0;"/><path d="M309.1231,29.6431 Q308.5421,29.9419 307.9029,30.0913 Q307.2638,30.2407 306.5582,30.2407 Q304.0514,30.2407 302.7315,28.5889 Q301.4117,26.937 301.4117,23.8159 Q301.4117,20.6865 302.7315,19.0347 Q304.0514,17.3828 306.5582,17.3828 Q307.2638,17.3828 307.9112,17.5322 Q308.5587,17.6816 309.1231,17.9805 L309.1231,20.7031 Q308.4923,20.1221 307.8988,19.8523 Q307.3053,19.5825 306.6744,19.5825 Q305.3297,19.5825 304.6449,20.6492 Q303.9601,21.7158 303.9601,23.8159 Q303.9601,25.9077 304.6449,26.9744 Q305.3297,28.041 306.6744,28.041 Q307.3053,28.041 307.8988,27.7712 Q308.4923,27.5015 309.1231,26.9204 Z "/><text fill="#000000" font-family="sans-serif" font-size="12" lengthAdjust="spacingAndGlyphs" textLength="49" x="323.85" y="28.5352">Adaptee</text><line style="stroke: #A80036; stroke-width: 1.5;" x1="275.5" x2="391.5" y1="40" y2="40"/><line style="stroke: #A80036; stroke-width: 1.5;" x1="275.5" x2="391.5" y1="48" y2="48"/><ellipse cx="285.5" cy="59.9775" fill="#84BE84" rx="3" ry="3" style="stroke: #038048; stroke-width: 1.0;"/><text fill="#000000" font-family="sans-serif" font-size="11" lengthAdjust="spacingAndGlyphs" textLength="92" x="294.5" y="62.6348">specificRequest()</text><!--link Target to Adapter--><path d="M227.895,86.8909 C235.6417,101.0932 243.8947,116.2237 250.8507,128.9764 " fill="none" id="Target-Adapter" style="stroke: #A80036; stroke-width: 1.0;"/><polygon fill="none" points="221.5864,89.9433,218.1546,69.0334,233.877,83.2393,221.5864,89.9433" style="stroke: #A80036; stroke-width: 1.0;"/><!--link Adapter$$$LEFT to Adapter--><!--link Adaptee to Adapter--><path d="M314.21,73.8651 C304.6796,91.3375 293.2937,112.2116 284.1493,128.9764 " fill="none" id="Adaptee-Adapter" style="stroke: #A80036; stroke-width: 1.0;"/><polygon fill="#A80036" points="316.8454,69.0334,309.0241,75.019,314.4511,73.4229,316.0472,78.8499,316.8454,69.0334" style="stroke: #A80036; stroke-width: 1.0;"/><text fill="#000000" font-family="sans-serif" font-size="13" lengthAdjust="spacingAndGlyphs" textLength="49" x="259.3573" y="89.4828">adaptee</text><!--link Client to Target--><path d="M128.5469,38.5 C138.5773,38.5 148.6078,38.5 158.6383,38.5 " fill="none" id="Client-Target" style="stroke: #A80036; stroke-width: 1.0;"/><polygon fill="#A80036" points="163.8835,38.5,154.8835,34.5,158.8835,38.5,154.8835,42.5,163.8835,38.5" style="stroke: #A80036; stroke-width: 1.0;"/><!--
@startuml
hide Client circle
hide Client member

class Target {
    + request()
}

class Adapter extends Target {
    + request()
}

note left of Adapter::request
adaptee->specificRequest
endnote

class Adaptee {
    + specificRequest()
}

Adaptee "adaptee" <- - Adapter
Client -> Target

@enduml

PlantUML version 1.2018.09(Fri Jul 27 18:58:18 CEST 2018)
(GPL source distribution)
Java Runtime: OpenJDK Runtime Environment
JVM: OpenJDK 64-Bit Server VM
Java Version: 1.8.0_152-release-1248-b8
Operating System: Mac OS X
OS Version: 10.13.6
Default Encoding: UTF-8
Language: de
Country: DE
--></g></svg>