<?xml version="1.0" encoding="UTF-8" standalone="no"?><svg xmlns="http://www.w3.org/2000/svg" xmlns:xlink="http://www.w3.org/1999/xlink" contentScriptType="application/ecmascript" contentStyleType="text/css" height="232px" preserveAspectRatio="none" style="width:614px;height:232px;" version="1.1" viewBox="0 0 614 232" width="614px" zoomAndPan="magnify"><defs><filter height="300%" id="fj1pzfbmp5ry6" width="300%" x="-1" y="-1"><feGaussianBlur result="blurOut" stdDeviation="2.0"/><feColorMatrix in="blurOut" result="blurOut2" type="matrix" values="0 0 0 0 0 0 0 0 0 0 0 0 0 0 0 0 0 0 .4 0"/><feOffset dx="4.0" dy="4.0" in="blurOut2" result="blurOut3"/><feBlend in="SourceGraphic" in2="blurOut3" mode="normal"/></filter></defs><g><!--cluster CurrentSystem--><polygon fill="#DDDDDD" filter="url(#fj1pzfbmp5ry6)" points="71,16,183,16,190,38.4883,321,38.4883,321,220,71,220,71,16" style="stroke: #000000; stroke-width: 1.5;"/><line style="stroke: #000000; stroke-width: 1.5;" x1="71" x2="190" y1="38.4883" y2="38.4883"/><text fill="#000000" font-family="sans-serif" font-size="14" font-weight="bold" lengthAdjust="spacingAndGlyphs" textLength="106" x="75" y="31.5352">CurrentSystem</text><!--class CurrentSystem.LegacyRectangle--><rect fill="#FEFECE" filter="url(#fj1pzfbmp5ry6)" height="48" id="CurrentSystem.LegacyRectangle" style="stroke: #A80036; stroke-width: 1.5;" width="127" x="132.5" y="164"/><ellipse cx="147.5" cy="180" fill="#ADD1B2" rx="11" ry="11" style="stroke: #A80036; stroke-width: 1.0;"/><path d="M150.4731,185.6431 Q149.8921,185.9419 149.2529,186.0913 Q148.6138,186.2407 147.9082,186.2407 Q145.4014,186.2407 144.0815,184.5889 Q142.7617,182.937 142.7617,179.8159 Q142.7617,176.6865 144.0815,175.0347 Q145.4014,173.3828 147.9082,173.3828 Q148.6138,173.3828 149.2612,173.5322 Q149.9087,173.6816 150.4731,173.9805 L150.4731,176.7031 Q149.8423,176.1221 149.2488,175.8523 Q148.6553,175.5825 148.0244,175.5825 Q146.6797,175.5825 145.9949,176.6492 Q145.3101,177.7158 145.3101,179.8159 Q145.3101,181.9077 145.9949,182.9744 Q146.6797,184.041 148.0244,184.041 Q148.6553,184.041 149.2488,183.7712 Q149.8423,183.5015 150.4731,182.9204 Z "/><text fill="#000000" font-family="sans-serif" font-size="12" lengthAdjust="spacingAndGlyphs" textLength="95" x="161.5" y="184.5352">LegacyRectangle</text><line style="stroke: #A80036; stroke-width: 1.5;" x1="133.5" x2="258.5" y1="196" y2="196"/><line style="stroke: #A80036; stroke-width: 1.5;" x1="133.5" x2="258.5" y1="204" y2="204"/><!--class CurrentSystem.Shape--><rect fill="#FEFECE" filter="url(#fj1pzfbmp5ry6)" height="60.9551" id="CurrentSystem.Shape" style="stroke: #A80036; stroke-width: 1.5;" width="234" x="79" y="43"/><ellipse cx="174.25" cy="59" fill="#B4A7E5" rx="11" ry="11" style="stroke: #A80036; stroke-width: 1.0;"/><path d="M170.1777,54.7651 L170.1777,52.6069 L177.5571,52.6069 L177.5571,54.7651 L175.0918,54.7651 L175.0918,62.8418 L177.5571,62.8418 L177.5571,65 L170.1777,65 L170.1777,62.8418 L172.6431,62.8418 L172.6431,54.7651 Z "/><text fill="#000000" font-family="sans-serif" font-size="12" font-style="italic" lengthAdjust="spacingAndGlyphs" textLength="35" x="194.75" y="63.5352">Shape</text><line style="stroke: #A80036; stroke-width: 1.5;" x1="80" x2="312" y1="75" y2="75"/><line style="stroke: #A80036; stroke-width: 1.5;" x1="80" x2="312" y1="83" y2="83"/><ellipse cx="90" cy="94.9775" fill="#84BE84" rx="3" ry="3" style="stroke: #038048; stroke-width: 1.0;"/><text fill="#000000" font-family="sans-serif" font-size="11" lengthAdjust="spacingAndGlyphs" textLength="208" x="99" y="97.6348">display(int x, int y, int width, int height)</text><!--class Client--><rect fill="#FEFECE" filter="url(#fj1pzfbmp5ry6)" height="24.1328" id="Client" style="stroke: #A80036; stroke-width: 1.5;" width="38" x="6" y="61.5"/><text fill="#000000" font-family="sans-serif" font-size="12" lengthAdjust="spacingAndGlyphs" textLength="32" x="9" y="78.1016">Client</text><!--class Rectangle--><rect fill="#FEFECE" filter="url(#fj1pzfbmp5ry6)" height="60.9551" id="Rectangle" style="stroke: #A80036; stroke-width: 1.5;" width="255" x="348.5" y="43"/><ellipse cx="443.75" cy="59" fill="#ADD1B2" rx="11" ry="11" style="stroke: #A80036; stroke-width: 1.0;"/><path d="M446.7231,64.6431 Q446.1421,64.9419 445.5029,65.0913 Q444.8638,65.2407 444.1582,65.2407 Q441.6514,65.2407 440.3315,63.5889 Q439.0117,61.937 439.0117,58.8159 Q439.0117,55.6865 440.3315,54.0347 Q441.6514,52.3828 444.1582,52.3828 Q444.8638,52.3828 445.5112,52.5322 Q446.1587,52.6816 446.7231,52.9805 L446.7231,55.7031 Q446.0923,55.1221 445.4988,54.8523 Q444.9053,54.5825 444.2744,54.5825 Q442.9297,54.5825 442.2449,55.6492 Q441.5601,56.7158 441.5601,58.8159 Q441.5601,60.9077 442.2449,61.9744 Q442.9297,63.041 444.2744,63.041 Q444.9053,63.041 445.4988,62.7712 Q446.0923,62.5015 446.7231,61.9204 Z "/><text fill="#000000" font-family="sans-serif" font-size="12" lengthAdjust="spacingAndGlyphs" textLength="56" x="464.25" y="63.5352">Rectangle</text><line style="stroke: #A80036; stroke-width: 1.5;" x1="349.5" x2="602.5" y1="75" y2="75"/><line style="stroke: #A80036; stroke-width: 1.5;" x1="349.5" x2="602.5" y1="83" y2="83"/><ellipse cx="359.5" cy="94.9775" fill="#84BE84" rx="3" ry="3" style="stroke: #038048; stroke-width: 1.0;"/><text fill="#000000" font-family="sans-serif" font-size="11" lengthAdjust="spacingAndGlyphs" textLength="229" x="368.5" y="97.6348">render(Coord topLeft, Coord bottomRight)</text><path d="M392,167.5 L392,208.1211 A0,0 0 0 0 392,208.1211 L560,208.1211 A0,0 0 0 0 560,208.1211 L560,177.5 L550,167.5 L480,167.5 L476,104.1839 L472,167.5 L392,167.5 A0,0 0 0 0 392,167.5 " fill="#FBFB77" filter="url(#fj1pzfbmp5ry6)" style="stroke: #A80036; stroke-width: 1.0;"/><path d="M550,167.5 L550,177.5 L560,177.5 L550,167.5 " fill="#FBFB77" style="stroke: #A80036; stroke-width: 1.0;"/><text fill="#000000" font-family="sans-serif" font-size="13" lengthAdjust="spacingAndGlyphs" textLength="142" x="398" y="185.0684">New Class to integrate</text><text fill="#000000" font-family="sans-serif" font-size="13" lengthAdjust="spacingAndGlyphs" textLength="147" x="398" y="200.3789">into the current system</text><!--link CurrentSystem.Shape to CurrentSystem.LegacyRectangle--><path d="M196,124.1839 C196,124.1839 196,163.7634 196,163.7634 " fill="none" id="CurrentSystem.Shape-CurrentSystem.LegacyRectangle" style="stroke: #A80036; stroke-width: 1.0; stroke-dasharray: 7.0,7.0;"/><polygon fill="none" points="189.0001,124.1839,196,104.1839,203.0001,124.1839,189.0001,124.1839" style="stroke: #A80036; stroke-width: 1.0;"/><!--link Client to CurrentSystem.Shape--><path d="M44.2835,74 C44.2835,74 73.9358,74 73.9358,74 " fill="none" id="Client-CurrentSystem.Shape" style="stroke: #A80036; stroke-width: 1.0;"/><polygon fill="#A80036" points="78.9358,74,69.9358,70,73.9358,74,69.9358,78,78.9358,74" style="stroke: #A80036; stroke-width: 1.0;"/><!--
@startuml
hide Client circle
hide Client member

skinparam linetype ortho


namespace CurrentSystem #DDDDDD {
    Class LegacyRectangle implements Shape {
    }

    interface Shape {
        + display(int x, int y, int width, int height)
    }
}

class Rectangle{
   + render(Coord topLeft, Coord bottomRight)
}

note bottom of Rectangle
    New Class to integrate
    into the current system
endnote



Client -right-> CurrentSystem.Shape

@enduml

PlantUML version 1.2018.09(Fri Jul 27 18:58:18 CEST 2018)
(GPL source distribution)
Java Runtime: OpenJDK Runtime Environment
JVM: OpenJDK 64-Bit Server VM
Java Version: 1.8.0_152-release-1248-b8
Operating System: Mac OS X
OS Version: 10.13.6
Default Encoding: UTF-8
Language: de
Country: DE
--></g></svg>