<?xml version="1.0" encoding="UTF-8" standalone="no"?><svg xmlns="http://www.w3.org/2000/svg" xmlns:xlink="http://www.w3.org/1999/xlink" contentScriptType="application/ecmascript" contentStyleType="text/css" height="310px" preserveAspectRatio="none" style="width:852px;height:310px;" version="1.1" viewBox="0 0 852 310" width="852px" zoomAndPan="magnify"><defs><filter height="300%" id="f1sn0cuyfpztho" width="300%" x="-1" y="-1"><feGaussianBlur result="blurOut" stdDeviation="2.0"/><feColorMatrix in="blurOut" result="blurOut2" type="matrix" values="0 0 0 0 0 0 0 0 0 0 0 0 0 0 0 0 0 0 .4 0"/><feOffset dx="4.0" dy="4.0" in="blurOut2" result="blurOut3"/><feBlend in="SourceGraphic" in2="blurOut3" mode="normal"/></filter></defs><g><!--class Client--><rect fill="#FEFECE" filter="url(#f1sn0cuyfpztho)" height="24.1328" id="Client" style="stroke: #A80036; stroke-width: 1.5;" width="38" x="705" y="8"/><text fill="#000000" font-family="sans-serif" font-size="12" lengthAdjust="spacingAndGlyphs" textLength="32" x="708" y="24.6016">Client</text><!--class Shape--><rect fill="#FEFECE" filter="url(#f1sn0cuyfpztho)" height="67.2207" id="Shape" style="stroke: #A80036; stroke-width: 1.5;" width="234" x="607" y="92"/><ellipse cx="696.75" cy="111.1328" fill="#B4A7E5" rx="11" ry="11" style="stroke: #A80036; stroke-width: 1.0;"/><path d="M692.6777,106.8979 L692.6777,104.7397 L700.0571,104.7397 L700.0571,106.8979 L697.5918,106.8979 L697.5918,114.9746 L700.0571,114.9746 L700.0571,117.1328 L692.6777,117.1328 L692.6777,114.9746 L695.1431,114.9746 L695.1431,106.8979 Z "/><text fill="#000000" font-family="sans-serif" font-size="12" font-style="italic" lengthAdjust="spacingAndGlyphs" textLength="50" x="715.25" y="108.6016">«Target»</text><text fill="#000000" font-family="sans-serif" font-size="12" font-style="italic" lengthAdjust="spacingAndGlyphs" textLength="35" x="722.75" y="122.7344">Shape</text><line style="stroke: #A80036; stroke-width: 1.5;" x1="608" x2="840" y1="130.2656" y2="130.2656"/><line style="stroke: #A80036; stroke-width: 1.5;" x1="608" x2="840" y1="138.2656" y2="138.2656"/><ellipse cx="618" cy="150.2432" fill="#84BE84" rx="3" ry="3" style="stroke: #038048; stroke-width: 1.0;"/><text fill="#000000" font-family="sans-serif" font-size="11" lengthAdjust="spacingAndGlyphs" textLength="208" x="627" y="152.9004">display(int x, int y, int width, int height)</text><!--class Rectangle--><rect fill="#FEFECE" filter="url(#f1sn0cuyfpztho)" height="67.2207" id="Rectangle" style="stroke: #A80036; stroke-width: 1.5;" width="255" x="316.5" y="92"/><ellipse cx="411.25" cy="111.1328" fill="#ADD1B2" rx="11" ry="11" style="stroke: #A80036; stroke-width: 1.0;"/><path d="M414.2231,116.7759 Q413.6421,117.0747 413.0029,117.2241 Q412.3638,117.3735 411.6582,117.3735 Q409.1514,117.3735 407.8315,115.7217 Q406.5117,114.0698 406.5117,110.9487 Q406.5117,107.8193 407.8315,106.1675 Q409.1514,104.5156 411.6582,104.5156 Q412.3638,104.5156 413.0112,104.665 Q413.6587,104.8145 414.2231,105.1133 L414.2231,107.8359 Q413.5923,107.2549 412.9988,106.9851 Q412.4053,106.7153 411.7744,106.7153 Q410.4297,106.7153 409.7449,107.782 Q409.0601,108.8486 409.0601,110.9487 Q409.0601,113.0405 409.7449,114.1072 Q410.4297,115.1738 411.7744,115.1738 Q412.4053,115.1738 412.9988,114.9041 Q413.5923,114.6343 414.2231,114.0532 Z "/><text fill="#000000" font-family="sans-serif" font-size="12" font-style="italic" lengthAdjust="spacingAndGlyphs" textLength="61" x="429.75" y="108.6016">«Adaptee»</text><text fill="#000000" font-family="sans-serif" font-size="12" lengthAdjust="spacingAndGlyphs" textLength="56" x="432.25" y="122.7344">Rectangle</text><line style="stroke: #A80036; stroke-width: 1.5;" x1="317.5" x2="570.5" y1="130.2656" y2="130.2656"/><line style="stroke: #A80036; stroke-width: 1.5;" x1="317.5" x2="570.5" y1="138.2656" y2="138.2656"/><ellipse cx="327.5" cy="150.2432" fill="#84BE84" rx="3" ry="3" style="stroke: #038048; stroke-width: 1.0;"/><text fill="#000000" font-family="sans-serif" font-size="11" lengthAdjust="spacingAndGlyphs" textLength="229" x="336.5" y="152.9004">render(Coord topLeft, Coord bottomRight)</text><!--class RectangleAdapter--><rect fill="#FEFECE" filter="url(#f1sn0cuyfpztho)" height="80.1758" id="RectangleAdapter" style="stroke: #A80036; stroke-width: 1.5;" width="255" x="343.5" y="219"/><ellipse cx="415.25" cy="238.1328" fill="#ADD1B2" rx="11" ry="11" style="stroke: #A80036; stroke-width: 1.0;"/><path d="M418.2231,243.7759 Q417.6421,244.0747 417.0029,244.2241 Q416.3638,244.3735 415.6582,244.3735 Q413.1514,244.3735 411.8315,242.7217 Q410.5117,241.0698 410.5117,237.9487 Q410.5117,234.8193 411.8315,233.1675 Q413.1514,231.5156 415.6582,231.5156 Q416.3638,231.5156 417.0112,231.665 Q417.6587,231.8145 418.2231,232.1133 L418.2231,234.8359 Q417.5923,234.2549 416.9988,233.9851 Q416.4053,233.7153 415.7744,233.7153 Q414.4297,233.7153 413.7449,234.782 Q413.0601,235.8486 413.0601,237.9487 Q413.0601,240.0405 413.7449,241.1072 Q414.4297,242.1738 415.7744,242.1738 Q416.4053,242.1738 416.9988,241.9041 Q417.5923,241.6343 418.2231,241.0532 Z "/><text fill="#000000" font-family="sans-serif" font-size="12" font-style="italic" lengthAdjust="spacingAndGlyphs" textLength="59" x="457.75" y="235.6016">«Adapter»</text><text fill="#000000" font-family="sans-serif" font-size="12" lengthAdjust="spacingAndGlyphs" textLength="103" x="435.75" y="249.7344">RectangleAdapter</text><line style="stroke: #A80036; stroke-width: 1.5;" x1="344.5" x2="597.5" y1="257.2656" y2="257.2656"/><line style="stroke: #A80036; stroke-width: 1.5;" x1="344.5" x2="597.5" y1="265.2656" y2="265.2656"/><ellipse cx="354.5" cy="277.2432" fill="#84BE84" rx="3" ry="3" style="stroke: #038048; stroke-width: 1.0;"/><text fill="#000000" font-family="sans-serif" font-size="11" lengthAdjust="spacingAndGlyphs" textLength="208" x="363.5" y="279.9004">display(int x, int y, int width, int height)</text><ellipse cx="354.5" cy="290.1982" fill="#84BE84" rx="3" ry="3" style="stroke: #038048; stroke-width: 1.0;"/><text fill="#000000" font-family="sans-serif" font-size="11" lengthAdjust="spacingAndGlyphs" textLength="229" x="363.5" y="292.8555">render(Coord topLeft, Coord bottomRight)</text><!--class LegacyRectangle--><rect fill="#FEFECE" filter="url(#f1sn0cuyfpztho)" height="48" id="LegacyRectangle" style="stroke: #A80036; stroke-width: 1.5;" width="127" x="660.5" y="235"/><ellipse cx="675.5" cy="251" fill="#ADD1B2" rx="11" ry="11" style="stroke: #A80036; stroke-width: 1.0;"/><path d="M678.4731,256.6431 Q677.8921,256.9419 677.2529,257.0913 Q676.6138,257.2407 675.9082,257.2407 Q673.4014,257.2407 672.0815,255.5889 Q670.7617,253.937 670.7617,250.8159 Q670.7617,247.6865 672.0815,246.0347 Q673.4014,244.3828 675.9082,244.3828 Q676.6138,244.3828 677.2612,244.5322 Q677.9087,244.6816 678.4731,244.9805 L678.4731,247.7031 Q677.8423,247.1221 677.2488,246.8523 Q676.6553,246.5825 676.0244,246.5825 Q674.6797,246.5825 673.9949,247.6492 Q673.3101,248.7158 673.3101,250.8159 Q673.3101,252.9077 673.9949,253.9744 Q674.6797,255.041 676.0244,255.041 Q676.6553,255.041 677.2488,254.7712 Q677.8423,254.5015 678.4731,253.9204 Z "/><text fill="#000000" font-family="sans-serif" font-size="12" lengthAdjust="spacingAndGlyphs" textLength="95" x="689.5" y="255.5352">LegacyRectangle</text><line style="stroke: #A80036; stroke-width: 1.5;" x1="661.5" x2="786.5" y1="267" y2="267"/><line style="stroke: #A80036; stroke-width: 1.5;" x1="661.5" x2="786.5" y1="275" y2="275"/><path d="M6,226 L6,281.9316 A0,0 0 0 0 6,281.9316 L308,281.9316 A0,0 0 0 0 308,281.9316 L308,257.9658 L347.5,275.7432 L308,249.9658 L308,236 L298,226 L6,226 A0,0 0 0 0 6,226 " fill="#FBFB77" filter="url(#f1sn0cuyfpztho)" style="stroke: #A80036; stroke-width: 1.0;"/><path d="M298,226 L298,236 L308,236 L298,226 " fill="#FBFB77" style="stroke: #A80036; stroke-width: 1.0;"/><text fill="#000000" font-family="sans-serif" font-size="13" lengthAdjust="spacingAndGlyphs" textLength="157" x="12" y="243.5684">topLeft = new Coord(x,y)</text><text fill="#000000" font-family="sans-serif" font-size="13" lengthAdjust="spacingAndGlyphs" textLength="281" x="12" y="258.8789">bottomRight = new Coord(x+width,y+width)</text><text fill="#000000" font-family="sans-serif" font-size="13" lengthAdjust="spacingAndGlyphs" textLength="208" x="12" y="274.1895">this.render(topLeft, bottomRight)</text><!--link Shape to RectangleAdapter--><path d="M633.75,179.0162 C633.75,179.0162 633.75,227 633.75,227 C633.75,227 619.2167,227 598.836,227 " fill="none" id="Shape-RectangleAdapter" style="stroke: #A80036; stroke-width: 1.0; stroke-dasharray: 7.0,7.0;"/><polygon fill="none" points="626.7501,179.0162,633.75,159.0162,640.7501,179.0162,626.7501,179.0162" style="stroke: #A80036; stroke-width: 1.0;"/><!--link Shape to LegacyRectangle--><path d="M724,179.1877 C724,179.1877 724,234.5917 724,234.5917 " fill="none" id="Shape-LegacyRectangle" style="stroke: #A80036; stroke-width: 1.0; stroke-dasharray: 7.0,7.0;"/><polygon fill="none" points="717.0001,179.1877,724,159.1877,731.0001,179.1877,717.0001,179.1877" style="stroke: #A80036; stroke-width: 1.0;"/><!--link RectangleAdapter$$$LEFT to RectangleAdapter--><!--link Rectangle to RectangleAdapter--><path d="M457.5,179.1877 C457.5,179.1877 457.5,218.6626 457.5,218.6626 " fill="none" id="Rectangle-RectangleAdapter" style="stroke: #A80036; stroke-width: 1.0;"/><polygon fill="none" points="450.5001,179.1877,457.5,159.1877,464.5001,179.1877,450.5001,179.1877" style="stroke: #A80036; stroke-width: 1.0;"/><!--link Client to Shape--><path d="M724,32.1022 C724,32.1022 724,86.9651 724,86.9651 " fill="none" id="Client-Shape" style="stroke: #A80036; stroke-width: 1.0;"/><polygon fill="#A80036" points="724,91.9651,728,82.9651,724,86.9651,720,82.9651,724,91.9651" style="stroke: #A80036; stroke-width: 1.0;"/><!--
@startuml
hide Client circle
hide Client member

skinparam linetype ortho

interface Shape <<Target>>{
    + display(int x, int y, int width, int height)
}


class Rectangle <<Adaptee>>{
   + render(Coord topLeft, Coord bottomRight)
}

class RectangleAdapter <<Adapter>> implements Shape{
   + display(int x, int y, int width, int height)
   + render(Coord topLeft, Coord bottomRight)
}

Class LegacyRectangle implements Shape {
}

note left of RectangleAdapter::display
    topLeft = new Coord(x,y)
    bottomRight = new Coord(x+width,y+width)
    this.render(topLeft, bottomRight)
endnote

Rectangle <|- - RectangleAdapter

Client - -> Shape

@enduml

PlantUML version 1.2018.09(Fri Jul 27 18:58:18 CEST 2018)
(GPL source distribution)
Java Runtime: OpenJDK Runtime Environment
JVM: OpenJDK 64-Bit Server VM
Java Version: 1.8.0_152-release-1248-b8
Operating System: Mac OS X
OS Version: 10.13.6
Default Encoding: UTF-8
Language: de
Country: DE
--></g></svg>