<?xml version="1.0" encoding="UTF-8" standalone="no"?><svg xmlns="http://www.w3.org/2000/svg" xmlns:xlink="http://www.w3.org/1999/xlink" contentScriptType="application/ecmascript" contentStyleType="text/css" height="297px" preserveAspectRatio="none" style="width:836px;height:297px;" version="1.1" viewBox="0 0 836 297" width="836px" zoomAndPan="magnify"><defs><filter height="300%" id="f49v5u2olerqi" width="300%" x="-1" y="-1"><feGaussianBlur result="blurOut" stdDeviation="2.0"/><feColorMatrix in="blurOut" result="blurOut2" type="matrix" values="0 0 0 0 0 0 0 0 0 0 0 0 0 0 0 0 0 0 .4 0"/><feOffset dx="4.0" dy="4.0" in="blurOut2" result="blurOut3"/><feBlend in="SourceGraphic" in2="blurOut3" mode="normal"/></filter></defs><g><!--class Client--><rect fill="#FEFECE" filter="url(#f49v5u2olerqi)" height="24.1328" id="Client" style="stroke: #A80036; stroke-width: 1.5;" width="38" x="689" y="8"/><text fill="#000000" font-family="sans-serif" font-size="12" lengthAdjust="spacingAndGlyphs" textLength="32" x="692" y="24.6016">Client</text><!--class Shape--><rect fill="#FEFECE" filter="url(#f49v5u2olerqi)" height="67.2207" id="Shape" style="stroke: #A80036; stroke-width: 1.5;" width="234" x="591" y="92"/><ellipse cx="680.75" cy="111.1328" fill="#ADD1B2" rx="11" ry="11" style="stroke: #A80036; stroke-width: 1.0;"/><path d="M683.7231,116.7759 Q683.1421,117.0747 682.5029,117.2241 Q681.8638,117.3735 681.1582,117.3735 Q678.6514,117.3735 677.3315,115.7217 Q676.0117,114.0698 676.0117,110.9487 Q676.0117,107.8193 677.3315,106.1675 Q678.6514,104.5156 681.1582,104.5156 Q681.8638,104.5156 682.5112,104.665 Q683.1587,104.8145 683.7231,105.1133 L683.7231,107.8359 Q683.0923,107.2549 682.4988,106.9851 Q681.9053,106.7153 681.2744,106.7153 Q679.9297,106.7153 679.2449,107.782 Q678.5601,108.8486 678.5601,110.9487 Q678.5601,113.0405 679.2449,114.1072 Q679.9297,115.1738 681.2744,115.1738 Q681.9053,115.1738 682.4988,114.9041 Q683.0923,114.6343 683.7231,114.0532 Z "/><text fill="#000000" font-family="sans-serif" font-size="12" font-style="italic" lengthAdjust="spacingAndGlyphs" textLength="50" x="699.25" y="108.6016">«Target»</text><text fill="#000000" font-family="sans-serif" font-size="12" lengthAdjust="spacingAndGlyphs" textLength="35" x="706.75" y="122.7344">Shape</text><line style="stroke: #A80036; stroke-width: 1.5;" x1="592" x2="824" y1="130.2656" y2="130.2656"/><line style="stroke: #A80036; stroke-width: 1.5;" x1="592" x2="824" y1="138.2656" y2="138.2656"/><ellipse cx="602" cy="150.2432" fill="#84BE84" rx="3" ry="3" style="stroke: #038048; stroke-width: 1.0;"/><text fill="#000000" font-family="sans-serif" font-size="11" lengthAdjust="spacingAndGlyphs" textLength="208" x="611" y="152.9004">display(int x, int y, int width, int height)</text><!--class Rectangle--><rect fill="#FEFECE" filter="url(#f49v5u2olerqi)" height="67.2207" id="Rectangle" style="stroke: #A80036; stroke-width: 1.5;" width="255" x="300.5" y="92"/><ellipse cx="395.25" cy="111.1328" fill="#ADD1B2" rx="11" ry="11" style="stroke: #A80036; stroke-width: 1.0;"/><path d="M398.2231,116.7759 Q397.6421,117.0747 397.0029,117.2241 Q396.3638,117.3735 395.6582,117.3735 Q393.1514,117.3735 391.8315,115.7217 Q390.5117,114.0698 390.5117,110.9487 Q390.5117,107.8193 391.8315,106.1675 Q393.1514,104.5156 395.6582,104.5156 Q396.3638,104.5156 397.0112,104.665 Q397.6587,104.8145 398.2231,105.1133 L398.2231,107.8359 Q397.5923,107.2549 396.9988,106.9851 Q396.4053,106.7153 395.7744,106.7153 Q394.4297,106.7153 393.7449,107.782 Q393.0601,108.8486 393.0601,110.9487 Q393.0601,113.0405 393.7449,114.1072 Q394.4297,115.1738 395.7744,115.1738 Q396.4053,115.1738 396.9988,114.9041 Q397.5923,114.6343 398.2231,114.0532 Z "/><text fill="#000000" font-family="sans-serif" font-size="12" font-style="italic" lengthAdjust="spacingAndGlyphs" textLength="61" x="413.75" y="108.6016">«Adaptee»</text><text fill="#000000" font-family="sans-serif" font-size="12" lengthAdjust="spacingAndGlyphs" textLength="56" x="416.25" y="122.7344">Rectangle</text><line style="stroke: #A80036; stroke-width: 1.5;" x1="301.5" x2="554.5" y1="130.2656" y2="130.2656"/><line style="stroke: #A80036; stroke-width: 1.5;" x1="301.5" x2="554.5" y1="138.2656" y2="138.2656"/><ellipse cx="311.5" cy="150.2432" fill="#84BE84" rx="3" ry="3" style="stroke: #038048; stroke-width: 1.0;"/><text fill="#000000" font-family="sans-serif" font-size="11" lengthAdjust="spacingAndGlyphs" textLength="229" x="320.5" y="152.9004">render(Coord topLeft, Coord bottomRight)</text><!--class RectangleAdapter--><rect fill="#FEFECE" filter="url(#f49v5u2olerqi)" height="67.2207" id="RectangleAdapter" style="stroke: #A80036; stroke-width: 1.5;" width="234" x="343" y="219"/><ellipse cx="404.25" cy="238.1328" fill="#ADD1B2" rx="11" ry="11" style="stroke: #A80036; stroke-width: 1.0;"/><path d="M407.2231,243.7759 Q406.6421,244.0747 406.0029,244.2241 Q405.3638,244.3735 404.6582,244.3735 Q402.1514,244.3735 400.8315,242.7217 Q399.5117,241.0698 399.5117,237.9487 Q399.5117,234.8193 400.8315,233.1675 Q402.1514,231.5156 404.6582,231.5156 Q405.3638,231.5156 406.0112,231.665 Q406.6587,231.8145 407.2231,232.1133 L407.2231,234.8359 Q406.5923,234.2549 405.9988,233.9851 Q405.4053,233.7153 404.7744,233.7153 Q403.4297,233.7153 402.7449,234.782 Q402.0601,235.8486 402.0601,237.9487 Q402.0601,240.0405 402.7449,241.1072 Q403.4297,242.1738 404.7744,242.1738 Q405.4053,242.1738 405.9988,241.9041 Q406.5923,241.6343 407.2231,241.0532 Z "/><text fill="#000000" font-family="sans-serif" font-size="12" font-style="italic" lengthAdjust="spacingAndGlyphs" textLength="59" x="446.75" y="235.6016">«Adapter»</text><text fill="#000000" font-family="sans-serif" font-size="12" lengthAdjust="spacingAndGlyphs" textLength="103" x="424.75" y="249.7344">RectangleAdapter</text><line style="stroke: #A80036; stroke-width: 1.5;" x1="344" x2="576" y1="257.2656" y2="257.2656"/><line style="stroke: #A80036; stroke-width: 1.5;" x1="344" x2="576" y1="265.2656" y2="265.2656"/><ellipse cx="354" cy="277.2432" fill="#84BE84" rx="3" ry="3" style="stroke: #038048; stroke-width: 1.0;"/><text fill="#000000" font-family="sans-serif" font-size="11" lengthAdjust="spacingAndGlyphs" textLength="208" x="363" y="279.9004">display(int x, int y, int width, int height)</text><!--class LegacyRectangle--><rect fill="#FEFECE" filter="url(#f49v5u2olerqi)" height="48" id="LegacyRectangle" style="stroke: #A80036; stroke-width: 1.5;" width="127" x="644.5" y="228.5"/><ellipse cx="659.5" cy="244.5" fill="#ADD1B2" rx="11" ry="11" style="stroke: #A80036; stroke-width: 1.0;"/><path d="M662.4731,250.1431 Q661.8921,250.4419 661.2529,250.5913 Q660.6138,250.7407 659.9082,250.7407 Q657.4014,250.7407 656.0815,249.0889 Q654.7617,247.437 654.7617,244.3159 Q654.7617,241.1865 656.0815,239.5347 Q657.4014,237.8828 659.9082,237.8828 Q660.6138,237.8828 661.2612,238.0322 Q661.9087,238.1816 662.4731,238.4805 L662.4731,241.2031 Q661.8423,240.6221 661.2488,240.3523 Q660.6553,240.0825 660.0244,240.0825 Q658.6797,240.0825 657.9949,241.1492 Q657.3101,242.2158 657.3101,244.3159 Q657.3101,246.4077 657.9949,247.4744 Q658.6797,248.541 660.0244,248.541 Q660.6553,248.541 661.2488,248.2712 Q661.8423,248.0015 662.4731,247.4204 Z "/><text fill="#000000" font-family="sans-serif" font-size="12" lengthAdjust="spacingAndGlyphs" textLength="95" x="673.5" y="249.0352">LegacyRectangle</text><line style="stroke: #A80036; stroke-width: 1.5;" x1="645.5" x2="770.5" y1="260.5" y2="260.5"/><line style="stroke: #A80036; stroke-width: 1.5;" x1="645.5" x2="770.5" y1="268.5" y2="268.5"/><path d="M6,219.5 L6,275.4316 A0,0 0 0 0 6,275.4316 L308,275.4316 A0,0 0 0 0 308,275.4316 L308,251.4658 L347,275.7432 L308,243.4658 L308,229.5 L298,219.5 L6,219.5 A0,0 0 0 0 6,219.5 " fill="#FBFB77" filter="url(#f49v5u2olerqi)" style="stroke: #A80036; stroke-width: 1.0;"/><path d="M298,219.5 L298,229.5 L308,229.5 L298,219.5 " fill="#FBFB77" style="stroke: #A80036; stroke-width: 1.0;"/><text fill="#000000" font-family="sans-serif" font-size="13" lengthAdjust="spacingAndGlyphs" textLength="157" x="12" y="237.0684">topLeft = new Coord(x,y)</text><text fill="#000000" font-family="sans-serif" font-size="13" lengthAdjust="spacingAndGlyphs" textLength="281" x="12" y="252.3789">bottomRight = new Coord(x+width,y+width)</text><text fill="#000000" font-family="sans-serif" font-size="13" lengthAdjust="spacingAndGlyphs" textLength="242" x="12" y="267.6895">rectangle.render(topLeft, bottomRight)</text><!--link Shape to RectangleAdapter--><path d="M617.75,179.1226 C617.75,179.1226 617.75,224 617.75,224 C617.75,224 600.3589,224 577.1255,224 " fill="none" id="Shape-RectangleAdapter" style="stroke: #A80036; stroke-width: 1.0;"/><polygon fill="none" points="610.7501,179.1227,617.75,159.1226,624.7501,179.1226,610.7501,179.1227" style="stroke: #A80036; stroke-width: 1.0;"/><!--link Shape to LegacyRectangle--><path d="M708,179.2002 C708,179.2002 708,228.3087 708,228.3087 " fill="none" id="Shape-LegacyRectangle" style="stroke: #A80036; stroke-width: 1.0; stroke-dasharray: 7.0,7.0;"/><polygon fill="none" points="701.0001,179.2003,708,159.2002,715.0001,179.2002,701.0001,179.2003" style="stroke: #A80036; stroke-width: 1.0;"/><!--link RectangleAdapter$$$LEFT to RectangleAdapter--><!--link Rectangle to RectangleAdapter--><path d="M449.25,164.2002 C449.25,164.2002 449.25,218.6423 449.25,218.6423 " fill="none" id="Rectangle-RectangleAdapter" style="stroke: #A80036; stroke-width: 1.0;"/><polygon fill="#A80036" points="449.25,159.2002,445.25,168.2002,449.25,164.2002,453.25,168.2002,449.25,159.2002" style="stroke: #A80036; stroke-width: 1.0;"/><text fill="#000000" font-family="sans-serif" font-size="13" lengthAdjust="spacingAndGlyphs" textLength="58" x="389.7242" y="179.8887">rectangle</text><!--link Client to Shape--><path d="M708,32.1022 C708,32.1022 708,86.9651 708,86.9651 " fill="none" id="Client-Shape" style="stroke: #A80036; stroke-width: 1.0;"/><polygon fill="#A80036" points="708,91.9651,712,82.9651,708,86.9651,704,82.9651,708,91.9651" style="stroke: #A80036; stroke-width: 1.0;"/><!--
@startuml
hide Client circle
hide Client member

skinparam linetype ortho

class Shape <<Target>>{
    + display(int x, int y, int width, int height)
}


class Rectangle <<Adaptee>>{
   + render(Coord topLeft, Coord bottomRight)
}

class RectangleAdapter <<Adapter>> extends Shape{
   + display(int x, int y, int width, int height)
}

Class LegacyRectangle implements Shape {
}

note left of RectangleAdapter::display
    topLeft = new Coord(x,y)
    bottomRight = new Coord(x+width,y+width)
    rectangle.render(topLeft, bottomRight)
endnote

Rectangle "rectangle" <- - RectangleAdapter
Client -down-> Shape


@enduml

PlantUML version 1.2018.09(Fri Jul 27 18:58:18 CEST 2018)
(GPL source distribution)
Java Runtime: OpenJDK Runtime Environment
JVM: OpenJDK 64-Bit Server VM
Java Version: 1.8.0_152-release-1248-b8
Operating System: Mac OS X
OS Version: 10.13.6
Default Encoding: UTF-8
Language: de
Country: DE
--></g></svg>