<?xml version="1.0" encoding="UTF-8" standalone="no"?><svg xmlns="http://www.w3.org/2000/svg" xmlns:xlink="http://www.w3.org/1999/xlink" contentScriptType="application/ecmascript" contentStyleType="text/css" height="327px" preserveAspectRatio="none" style="width:2705px;height:327px;" version="1.1" viewBox="0 0 2705 327" width="2705px" zoomAndPan="magnify"><defs><filter height="300%" id="f1nzwld94iytko" width="300%" x="-1" y="-1"><feGaussianBlur result="blurOut" stdDeviation="2.0"/><feColorMatrix in="blurOut" result="blurOut2" type="matrix" values="0 0 0 0 0 0 0 0 0 0 0 0 0 0 0 0 0 0 .4 0"/><feOffset dx="4.0" dy="4.0" in="blurOut2" result="blurOut3"/><feBlend in="SourceGraphic" in2="blurOut3" mode="normal"/></filter></defs><g><!--class Auto--><rect fill="#FEFECE" filter="url(#f1nzwld94iytko)" height="32" id="Auto" style="stroke: #A80036; stroke-width: 1.5;" width="58" x="1285.5" y="8"/><ellipse cx="1300.5" cy="24" fill="#ADD1B2" rx="11" ry="11" style="stroke: #A80036; stroke-width: 1.0;"/><path d="M1303.4731,29.6431 Q1302.8921,29.9419 1302.2529,30.0913 Q1301.6138,30.2407 1300.9082,30.2407 Q1298.4014,30.2407 1297.0815,28.5889 Q1295.7617,26.937 1295.7617,23.8159 Q1295.7617,20.6865 1297.0815,19.0347 Q1298.4014,17.3828 1300.9082,17.3828 Q1301.6138,17.3828 1302.2612,17.5322 Q1302.9087,17.6816 1303.4731,17.9805 L1303.4731,20.7031 Q1302.8423,20.1221 1302.2488,19.8523 Q1301.6553,19.5825 1301.0244,19.5825 Q1299.6797,19.5825 1298.9949,20.6492 Q1298.3101,21.7158 1298.3101,23.8159 Q1298.3101,25.9077 1298.9949,26.9744 Q1299.6797,28.041 1301.0244,28.041 Q1301.6553,28.041 1302.2488,27.7712 Q1302.8423,27.5015 1303.4731,26.9204 Z "/><text fill="#000000" font-family="sans-serif" font-size="12" lengthAdjust="spacingAndGlyphs" textLength="26" x="1314.5" y="28.5352">Auto</text><!--class Coupe--><rect fill="#FEFECE" filter="url(#f1nzwld94iytko)" height="32" id="Coupe" style="stroke: #A80036; stroke-width: 1.5;" width="69" x="619" y="100"/><ellipse cx="634" cy="116" fill="#ADD1B2" rx="11" ry="11" style="stroke: #A80036; stroke-width: 1.0;"/><path d="M636.9731,121.6431 Q636.3921,121.9419 635.7529,122.0913 Q635.1138,122.2407 634.4082,122.2407 Q631.9014,122.2407 630.5815,120.5889 Q629.2617,118.937 629.2617,115.8159 Q629.2617,112.6865 630.5815,111.0347 Q631.9014,109.3828 634.4082,109.3828 Q635.1138,109.3828 635.7612,109.5322 Q636.4087,109.6816 636.9731,109.9805 L636.9731,112.7031 Q636.3423,112.1221 635.7488,111.8523 Q635.1553,111.5825 634.5244,111.5825 Q633.1797,111.5825 632.4949,112.6492 Q631.8101,113.7158 631.8101,115.8159 Q631.8101,117.9077 632.4949,118.9744 Q633.1797,120.041 634.5244,120.041 Q635.1553,120.041 635.7488,119.7712 Q636.3423,119.5015 636.9731,118.9204 Z "/><text fill="#000000" font-family="sans-serif" font-size="12" lengthAdjust="spacingAndGlyphs" textLength="37" x="648" y="120.5352">Coupe</text><!--class Kombi--><rect fill="#FEFECE" filter="url(#f1nzwld94iytko)" height="32" id="Kombi" style="stroke: #A80036; stroke-width: 1.5;" width="69" x="1280" y="100"/><ellipse cx="1295" cy="116" fill="#ADD1B2" rx="11" ry="11" style="stroke: #A80036; stroke-width: 1.0;"/><path d="M1297.9731,121.6431 Q1297.3921,121.9419 1296.7529,122.0913 Q1296.1138,122.2407 1295.4082,122.2407 Q1292.9014,122.2407 1291.5815,120.5889 Q1290.2617,118.937 1290.2617,115.8159 Q1290.2617,112.6865 1291.5815,111.0347 Q1292.9014,109.3828 1295.4082,109.3828 Q1296.1138,109.3828 1296.7612,109.5322 Q1297.4087,109.6816 1297.9731,109.9805 L1297.9731,112.7031 Q1297.3423,112.1221 1296.7488,111.8523 Q1296.1553,111.5825 1295.5244,111.5825 Q1294.1797,111.5825 1293.4949,112.6492 Q1292.8101,113.7158 1292.8101,115.8159 Q1292.8101,117.9077 1293.4949,118.9744 Q1294.1797,120.041 1295.5244,120.041 Q1296.1553,120.041 1296.7488,119.7712 Q1297.3423,119.5015 1297.9731,118.9204 Z "/><text fill="#000000" font-family="sans-serif" font-size="12" lengthAdjust="spacingAndGlyphs" textLength="37" x="1309" y="120.5352">Kombi</text><!--class Limousine--><rect fill="#FEFECE" filter="url(#f1nzwld94iytko)" height="32" id="Limousine" style="stroke: #A80036; stroke-width: 1.5;" width="89" x="1950" y="100"/><ellipse cx="1965" cy="116" fill="#ADD1B2" rx="11" ry="11" style="stroke: #A80036; stroke-width: 1.0;"/><path d="M1967.9731,121.6431 Q1967.3921,121.9419 1966.7529,122.0913 Q1966.1138,122.2407 1965.4082,122.2407 Q1962.9014,122.2407 1961.5815,120.5889 Q1960.2617,118.937 1960.2617,115.8159 Q1960.2617,112.6865 1961.5815,111.0347 Q1962.9014,109.3828 1965.4082,109.3828 Q1966.1138,109.3828 1966.7612,109.5322 Q1967.4087,109.6816 1967.9731,109.9805 L1967.9731,112.7031 Q1967.3423,112.1221 1966.7488,111.8523 Q1966.1553,111.5825 1965.5244,111.5825 Q1964.1797,111.5825 1963.4949,112.6492 Q1962.8101,113.7158 1962.8101,115.8159 Q1962.8101,117.9077 1963.4949,118.9744 Q1964.1797,120.041 1965.5244,120.041 Q1966.1553,120.041 1966.7488,119.7712 Q1967.3423,119.5015 1967.9731,118.9204 Z "/><text fill="#000000" font-family="sans-serif" font-size="12" lengthAdjust="spacingAndGlyphs" textLength="57" x="1979" y="120.5352">Limousine</text><!--class BenzinCoupe--><rect fill="#FEFECE" filter="url(#f1nzwld94iytko)" height="32" id="BenzinCoupe" style="stroke: #A80036; stroke-width: 1.5;" width="107" x="270" y="192"/><ellipse cx="285" cy="208" fill="#ADD1B2" rx="11" ry="11" style="stroke: #A80036; stroke-width: 1.0;"/><path d="M287.9731,213.6431 Q287.3921,213.9419 286.7529,214.0913 Q286.1138,214.2407 285.4082,214.2407 Q282.9014,214.2407 281.5815,212.5889 Q280.2617,210.937 280.2617,207.8159 Q280.2617,204.6865 281.5815,203.0347 Q282.9014,201.3828 285.4082,201.3828 Q286.1138,201.3828 286.7612,201.5322 Q287.4087,201.6816 287.9731,201.9805 L287.9731,204.7031 Q287.3423,204.1221 286.7488,203.8523 Q286.1553,203.5825 285.5244,203.5825 Q284.1797,203.5825 283.4949,204.6492 Q282.8101,205.7158 282.8101,207.8159 Q282.8101,209.9077 283.4949,210.9744 Q284.1797,212.041 285.5244,212.041 Q286.1553,212.041 286.7488,211.7712 Q287.3423,211.5015 287.9731,210.9204 Z "/><text fill="#000000" font-family="sans-serif" font-size="12" lengthAdjust="spacingAndGlyphs" textLength="75" x="299" y="212.5352">BenzinCoupe</text><!--class DieselCoupe--><rect fill="#FEFECE" filter="url(#f1nzwld94iytko)" height="32" id="DieselCoupe" style="stroke: #A80036; stroke-width: 1.5;" width="104" x="601.5" y="192"/><ellipse cx="616.5" cy="208" fill="#ADD1B2" rx="11" ry="11" style="stroke: #A80036; stroke-width: 1.0;"/><path d="M619.4731,213.6431 Q618.8921,213.9419 618.2529,214.0913 Q617.6138,214.2407 616.9082,214.2407 Q614.4014,214.2407 613.0815,212.5889 Q611.7617,210.937 611.7617,207.8159 Q611.7617,204.6865 613.0815,203.0347 Q614.4014,201.3828 616.9082,201.3828 Q617.6138,201.3828 618.2612,201.5322 Q618.9087,201.6816 619.4731,201.9805 L619.4731,204.7031 Q618.8423,204.1221 618.2488,203.8523 Q617.6553,203.5825 617.0244,203.5825 Q615.6797,203.5825 614.9949,204.6492 Q614.3101,205.7158 614.3101,207.8159 Q614.3101,209.9077 614.9949,210.9744 Q615.6797,212.041 617.0244,212.041 Q617.6553,212.041 618.2488,211.7712 Q618.8423,211.5015 619.4731,210.9204 Z "/><text fill="#000000" font-family="sans-serif" font-size="12" lengthAdjust="spacingAndGlyphs" textLength="72" x="630.5" y="212.5352">DieselCoupe</text><!--class BenzinKombi--><rect fill="#FEFECE" filter="url(#f1nzwld94iytko)" height="32" id="BenzinKombi" style="stroke: #A80036; stroke-width: 1.5;" width="107" x="1151" y="192"/><ellipse cx="1166" cy="208" fill="#ADD1B2" rx="11" ry="11" style="stroke: #A80036; stroke-width: 1.0;"/><path d="M1168.9731,213.6431 Q1168.3921,213.9419 1167.7529,214.0913 Q1167.1138,214.2407 1166.4082,214.2407 Q1163.9014,214.2407 1162.5815,212.5889 Q1161.2617,210.937 1161.2617,207.8159 Q1161.2617,204.6865 1162.5815,203.0347 Q1163.9014,201.3828 1166.4082,201.3828 Q1167.1138,201.3828 1167.7612,201.5322 Q1168.4087,201.6816 1168.9731,201.9805 L1168.9731,204.7031 Q1168.3423,204.1221 1167.7488,203.8523 Q1167.1553,203.5825 1166.5244,203.5825 Q1165.1797,203.5825 1164.4949,204.6492 Q1163.8101,205.7158 1163.8101,207.8159 Q1163.8101,209.9077 1164.4949,210.9744 Q1165.1797,212.041 1166.5244,212.041 Q1167.1553,212.041 1167.7488,211.7712 Q1168.3423,211.5015 1168.9731,210.9204 Z "/><text fill="#000000" font-family="sans-serif" font-size="12" lengthAdjust="spacingAndGlyphs" textLength="75" x="1180" y="212.5352">BenzinKombi</text><!--class DieselKombi--><rect fill="#FEFECE" filter="url(#f1nzwld94iytko)" height="32" id="DieselKombi" style="stroke: #A80036; stroke-width: 1.5;" width="104" x="1372.5" y="192"/><ellipse cx="1387.5" cy="208" fill="#ADD1B2" rx="11" ry="11" style="stroke: #A80036; stroke-width: 1.0;"/><path d="M1390.4731,213.6431 Q1389.8921,213.9419 1389.2529,214.0913 Q1388.6138,214.2407 1387.9082,214.2407 Q1385.4014,214.2407 1384.0815,212.5889 Q1382.7617,210.937 1382.7617,207.8159 Q1382.7617,204.6865 1384.0815,203.0347 Q1385.4014,201.3828 1387.9082,201.3828 Q1388.6138,201.3828 1389.2612,201.5322 Q1389.9087,201.6816 1390.4731,201.9805 L1390.4731,204.7031 Q1389.8423,204.1221 1389.2488,203.8523 Q1388.6553,203.5825 1388.0244,203.5825 Q1386.6797,203.5825 1385.9949,204.6492 Q1385.3101,205.7158 1385.3101,207.8159 Q1385.3101,209.9077 1385.9949,210.9744 Q1386.6797,212.041 1388.0244,212.041 Q1388.6553,212.041 1389.2488,211.7712 Q1389.8423,211.5015 1390.4731,210.9204 Z "/><text fill="#000000" font-family="sans-serif" font-size="12" lengthAdjust="spacingAndGlyphs" textLength="72" x="1401.5" y="212.5352">DieselKombi</text><!--class BenzinLimousine--><rect fill="#FEFECE" filter="url(#f1nzwld94iytko)" height="32" id="BenzinLimousine" style="stroke: #A80036; stroke-width: 1.5;" width="127" x="1931" y="192"/><ellipse cx="1946" cy="208" fill="#ADD1B2" rx="11" ry="11" style="stroke: #A80036; stroke-width: 1.0;"/><path d="M1948.9731,213.6431 Q1948.3921,213.9419 1947.7529,214.0913 Q1947.1138,214.2407 1946.4082,214.2407 Q1943.9014,214.2407 1942.5815,212.5889 Q1941.2617,210.937 1941.2617,207.8159 Q1941.2617,204.6865 1942.5815,203.0347 Q1943.9014,201.3828 1946.4082,201.3828 Q1947.1138,201.3828 1947.7612,201.5322 Q1948.4087,201.6816 1948.9731,201.9805 L1948.9731,204.7031 Q1948.3423,204.1221 1947.7488,203.8523 Q1947.1553,203.5825 1946.5244,203.5825 Q1945.1797,203.5825 1944.4949,204.6492 Q1943.8101,205.7158 1943.8101,207.8159 Q1943.8101,209.9077 1944.4949,210.9744 Q1945.1797,212.041 1946.5244,212.041 Q1947.1553,212.041 1947.7488,211.7712 Q1948.3423,211.5015 1948.9731,210.9204 Z "/><text fill="#000000" font-family="sans-serif" font-size="12" lengthAdjust="spacingAndGlyphs" textLength="95" x="1960" y="212.5352">BenzinLimousine</text><!--class DieselLimousine--><rect fill="#FEFECE" filter="url(#f1nzwld94iytko)" height="32" id="DieselLimousine" style="stroke: #A80036; stroke-width: 1.5;" width="124" x="2293.5" y="192"/><ellipse cx="2308.5" cy="208" fill="#ADD1B2" rx="11" ry="11" style="stroke: #A80036; stroke-width: 1.0;"/><path d="M2311.4731,213.6431 Q2310.8921,213.9419 2310.2529,214.0913 Q2309.6138,214.2407 2308.9082,214.2407 Q2306.4014,214.2407 2305.0815,212.5889 Q2303.7617,210.937 2303.7617,207.8159 Q2303.7617,204.6865 2305.0815,203.0347 Q2306.4014,201.3828 2308.9082,201.3828 Q2309.6138,201.3828 2310.2612,201.5322 Q2310.9087,201.6816 2311.4731,201.9805 L2311.4731,204.7031 Q2310.8423,204.1221 2310.2488,203.8523 Q2309.6553,203.5825 2309.0244,203.5825 Q2307.6797,203.5825 2306.9949,204.6492 Q2306.3101,205.7158 2306.3101,207.8159 Q2306.3101,209.9077 2306.9949,210.9744 Q2307.6797,212.041 2309.0244,212.041 Q2309.6553,212.041 2310.2488,211.7712 Q2310.8423,211.5015 2311.4731,210.9204 Z "/><text fill="#000000" font-family="sans-serif" font-size="12" lengthAdjust="spacingAndGlyphs" textLength="92" x="2322.5" y="212.5352">DieselLimousine</text><!--class RechtsVerkehrBenzinCoupe--><rect fill="#FEFECE" filter="url(#f1nzwld94iytko)" height="32" id="RechtsVerkehrBenzinCoupe" style="stroke: #A80036; stroke-width: 1.5;" width="191" x="6" y="284"/><ellipse cx="21" cy="300" fill="#ADD1B2" rx="11" ry="11" style="stroke: #A80036; stroke-width: 1.0;"/><path d="M23.9731,305.6431 Q23.3921,305.9419 22.7529,306.0913 Q22.1138,306.2407 21.4082,306.2407 Q18.9014,306.2407 17.5815,304.5889 Q16.2617,302.937 16.2617,299.8159 Q16.2617,296.6865 17.5815,295.0347 Q18.9014,293.3828 21.4082,293.3828 Q22.1138,293.3828 22.7612,293.5322 Q23.4087,293.6816 23.9731,293.9805 L23.9731,296.7031 Q23.3423,296.1221 22.7488,295.8523 Q22.1553,295.5825 21.5244,295.5825 Q20.1797,295.5825 19.4949,296.6492 Q18.8101,297.7158 18.8101,299.8159 Q18.8101,301.9077 19.4949,302.9744 Q20.1797,304.041 21.5244,304.041 Q22.1553,304.041 22.7488,303.7712 Q23.3423,303.5015 23.9731,302.9204 Z "/><text fill="#000000" font-family="sans-serif" font-size="12" lengthAdjust="spacingAndGlyphs" textLength="159" x="35" y="304.5352">RechtsVerkehrBenzinCoupe</text><!--class LinksVerkehrBenzinCoupe--><rect fill="#FEFECE" filter="url(#f1nzwld94iytko)" height="32" id="LinksVerkehrBenzinCoupe" style="stroke: #A80036; stroke-width: 1.5;" width="182" x="232.5" y="284"/><ellipse cx="247.5" cy="300" fill="#ADD1B2" rx="11" ry="11" style="stroke: #A80036; stroke-width: 1.0;"/><path d="M250.4731,305.6431 Q249.8921,305.9419 249.2529,306.0913 Q248.6138,306.2407 247.9082,306.2407 Q245.4014,306.2407 244.0815,304.5889 Q242.7617,302.937 242.7617,299.8159 Q242.7617,296.6865 244.0815,295.0347 Q245.4014,293.3828 247.9082,293.3828 Q248.6138,293.3828 249.2612,293.5322 Q249.9087,293.6816 250.4731,293.9805 L250.4731,296.7031 Q249.8423,296.1221 249.2488,295.8523 Q248.6553,295.5825 248.0244,295.5825 Q246.6797,295.5825 245.9949,296.6492 Q245.3101,297.7158 245.3101,299.8159 Q245.3101,301.9077 245.9949,302.9744 Q246.6797,304.041 248.0244,304.041 Q248.6553,304.041 249.2488,303.7712 Q249.8423,303.5015 250.4731,302.9204 Z "/><text fill="#000000" font-family="sans-serif" font-size="12" lengthAdjust="spacingAndGlyphs" textLength="150" x="261.5" y="304.5352">LinksVerkehrBenzinCoupe</text><!--class RechtsVerkehrDieselCoupe--><rect fill="#FEFECE" filter="url(#f1nzwld94iytko)" height="32" id="RechtsVerkehrDieselCoupe" style="stroke: #A80036; stroke-width: 1.5;" width="188" x="449.5" y="284"/><ellipse cx="464.5" cy="300" fill="#ADD1B2" rx="11" ry="11" style="stroke: #A80036; stroke-width: 1.0;"/><path d="M467.4731,305.6431 Q466.8921,305.9419 466.2529,306.0913 Q465.6138,306.2407 464.9082,306.2407 Q462.4014,306.2407 461.0815,304.5889 Q459.7617,302.937 459.7617,299.8159 Q459.7617,296.6865 461.0815,295.0347 Q462.4014,293.3828 464.9082,293.3828 Q465.6138,293.3828 466.2612,293.5322 Q466.9087,293.6816 467.4731,293.9805 L467.4731,296.7031 Q466.8423,296.1221 466.2488,295.8523 Q465.6553,295.5825 465.0244,295.5825 Q463.6797,295.5825 462.9949,296.6492 Q462.3101,297.7158 462.3101,299.8159 Q462.3101,301.9077 462.9949,302.9744 Q463.6797,304.041 465.0244,304.041 Q465.6553,304.041 466.2488,303.7712 Q466.8423,303.5015 467.4731,302.9204 Z "/><text fill="#000000" font-family="sans-serif" font-size="12" lengthAdjust="spacingAndGlyphs" textLength="156" x="478.5" y="304.5352">RechtsVerkehrDieselCoupe</text><!--class LinksVerkehrDieselCoupe--><rect fill="#FEFECE" filter="url(#f1nzwld94iytko)" height="32" id="LinksVerkehrDieselCoupe" style="stroke: #A80036; stroke-width: 1.5;" width="179" x="673" y="284"/><ellipse cx="688" cy="300" fill="#ADD1B2" rx="11" ry="11" style="stroke: #A80036; stroke-width: 1.0;"/><path d="M690.9731,305.6431 Q690.3921,305.9419 689.7529,306.0913 Q689.1138,306.2407 688.4082,306.2407 Q685.9014,306.2407 684.5815,304.5889 Q683.2617,302.937 683.2617,299.8159 Q683.2617,296.6865 684.5815,295.0347 Q685.9014,293.3828 688.4082,293.3828 Q689.1138,293.3828 689.7612,293.5322 Q690.4087,293.6816 690.9731,293.9805 L690.9731,296.7031 Q690.3423,296.1221 689.7488,295.8523 Q689.1553,295.5825 688.5244,295.5825 Q687.1797,295.5825 686.4949,296.6492 Q685.8101,297.7158 685.8101,299.8159 Q685.8101,301.9077 686.4949,302.9744 Q687.1797,304.041 688.5244,304.041 Q689.1553,304.041 689.7488,303.7712 Q690.3423,303.5015 690.9731,302.9204 Z "/><text fill="#000000" font-family="sans-serif" font-size="12" lengthAdjust="spacingAndGlyphs" textLength="147" x="702" y="304.5352">LinksVerkehrDieselCoupe</text><!--class RechtsVerkehrBenzinKombi--><rect fill="#FEFECE" filter="url(#f1nzwld94iytko)" height="32" id="RechtsVerkehrBenzinKombi" style="stroke: #A80036; stroke-width: 1.5;" width="191" x="887" y="284"/><ellipse cx="902" cy="300" fill="#ADD1B2" rx="11" ry="11" style="stroke: #A80036; stroke-width: 1.0;"/><path d="M904.9731,305.6431 Q904.3921,305.9419 903.7529,306.0913 Q903.1138,306.2407 902.4082,306.2407 Q899.9014,306.2407 898.5815,304.5889 Q897.2617,302.937 897.2617,299.8159 Q897.2617,296.6865 898.5815,295.0347 Q899.9014,293.3828 902.4082,293.3828 Q903.1138,293.3828 903.7612,293.5322 Q904.4087,293.6816 904.9731,293.9805 L904.9731,296.7031 Q904.3423,296.1221 903.7488,295.8523 Q903.1553,295.5825 902.5244,295.5825 Q901.1797,295.5825 900.4949,296.6492 Q899.8101,297.7158 899.8101,299.8159 Q899.8101,301.9077 900.4949,302.9744 Q901.1797,304.041 902.5244,304.041 Q903.1553,304.041 903.7488,303.7712 Q904.3423,303.5015 904.9731,302.9204 Z "/><text fill="#000000" font-family="sans-serif" font-size="12" lengthAdjust="spacingAndGlyphs" textLength="159" x="916" y="304.5352">RechtsVerkehrBenzinKombi</text><!--class LinksVerkehrBenzinKombi--><rect fill="#FEFECE" filter="url(#f1nzwld94iytko)" height="32" id="LinksVerkehrBenzinKombi" style="stroke: #A80036; stroke-width: 1.5;" width="182" x="1113.5" y="284"/><ellipse cx="1128.5" cy="300" fill="#ADD1B2" rx="11" ry="11" style="stroke: #A80036; stroke-width: 1.0;"/><path d="M1131.4731,305.6431 Q1130.8921,305.9419 1130.2529,306.0913 Q1129.6138,306.2407 1128.9082,306.2407 Q1126.4014,306.2407 1125.0815,304.5889 Q1123.7617,302.937 1123.7617,299.8159 Q1123.7617,296.6865 1125.0815,295.0347 Q1126.4014,293.3828 1128.9082,293.3828 Q1129.6138,293.3828 1130.2612,293.5322 Q1130.9087,293.6816 1131.4731,293.9805 L1131.4731,296.7031 Q1130.8423,296.1221 1130.2488,295.8523 Q1129.6553,295.5825 1129.0244,295.5825 Q1127.6797,295.5825 1126.9949,296.6492 Q1126.3101,297.7158 1126.3101,299.8159 Q1126.3101,301.9077 1126.9949,302.9744 Q1127.6797,304.041 1129.0244,304.041 Q1129.6553,304.041 1130.2488,303.7712 Q1130.8423,303.5015 1131.4731,302.9204 Z "/><text fill="#000000" font-family="sans-serif" font-size="12" lengthAdjust="spacingAndGlyphs" textLength="150" x="1142.5" y="304.5352">LinksVerkehrBenzinKombi</text><!--class RechtsVerkehrDieselKombi--><rect fill="#FEFECE" filter="url(#f1nzwld94iytko)" height="32" id="RechtsVerkehrDieselKombi" style="stroke: #A80036; stroke-width: 1.5;" width="188" x="1330.5" y="284"/><ellipse cx="1345.5" cy="300" fill="#ADD1B2" rx="11" ry="11" style="stroke: #A80036; stroke-width: 1.0;"/><path d="M1348.4731,305.6431 Q1347.8921,305.9419 1347.2529,306.0913 Q1346.6138,306.2407 1345.9082,306.2407 Q1343.4014,306.2407 1342.0815,304.5889 Q1340.7617,302.937 1340.7617,299.8159 Q1340.7617,296.6865 1342.0815,295.0347 Q1343.4014,293.3828 1345.9082,293.3828 Q1346.6138,293.3828 1347.2612,293.5322 Q1347.9087,293.6816 1348.4731,293.9805 L1348.4731,296.7031 Q1347.8423,296.1221 1347.2488,295.8523 Q1346.6553,295.5825 1346.0244,295.5825 Q1344.6797,295.5825 1343.9949,296.6492 Q1343.3101,297.7158 1343.3101,299.8159 Q1343.3101,301.9077 1343.9949,302.9744 Q1344.6797,304.041 1346.0244,304.041 Q1346.6553,304.041 1347.2488,303.7712 Q1347.8423,303.5015 1348.4731,302.9204 Z "/><text fill="#000000" font-family="sans-serif" font-size="12" lengthAdjust="spacingAndGlyphs" textLength="156" x="1359.5" y="304.5352">RechtsVerkehrDieselKombi</text><!--class LinksVerkehrDieselKombi--><rect fill="#FEFECE" filter="url(#f1nzwld94iytko)" height="32" id="LinksVerkehrDieselKombi" style="stroke: #A80036; stroke-width: 1.5;" width="179" x="1554" y="284"/><ellipse cx="1569" cy="300" fill="#ADD1B2" rx="11" ry="11" style="stroke: #A80036; stroke-width: 1.0;"/><path d="M1571.9731,305.6431 Q1571.3921,305.9419 1570.7529,306.0913 Q1570.1138,306.2407 1569.4082,306.2407 Q1566.9014,306.2407 1565.5815,304.5889 Q1564.2617,302.937 1564.2617,299.8159 Q1564.2617,296.6865 1565.5815,295.0347 Q1566.9014,293.3828 1569.4082,293.3828 Q1570.1138,293.3828 1570.7612,293.5322 Q1571.4087,293.6816 1571.9731,293.9805 L1571.9731,296.7031 Q1571.3423,296.1221 1570.7488,295.8523 Q1570.1553,295.5825 1569.5244,295.5825 Q1568.1797,295.5825 1567.4949,296.6492 Q1566.8101,297.7158 1566.8101,299.8159 Q1566.8101,301.9077 1567.4949,302.9744 Q1568.1797,304.041 1569.5244,304.041 Q1570.1553,304.041 1570.7488,303.7712 Q1571.3423,303.5015 1571.9731,302.9204 Z "/><text fill="#000000" font-family="sans-serif" font-size="12" lengthAdjust="spacingAndGlyphs" textLength="147" x="1583" y="304.5352">LinksVerkehrDieselKombi</text><!--class RechtsVerkehrBenzinLimousine--><rect fill="#FEFECE" filter="url(#f1nzwld94iytko)" height="32" id="RechtsVerkehrBenzinLimousine" style="stroke: #A80036; stroke-width: 1.5;" width="211" x="1768" y="284"/><ellipse cx="1783" cy="300" fill="#ADD1B2" rx="11" ry="11" style="stroke: #A80036; stroke-width: 1.0;"/><path d="M1785.9731,305.6431 Q1785.3921,305.9419 1784.7529,306.0913 Q1784.1138,306.2407 1783.4082,306.2407 Q1780.9014,306.2407 1779.5815,304.5889 Q1778.2617,302.937 1778.2617,299.8159 Q1778.2617,296.6865 1779.5815,295.0347 Q1780.9014,293.3828 1783.4082,293.3828 Q1784.1138,293.3828 1784.7612,293.5322 Q1785.4087,293.6816 1785.9731,293.9805 L1785.9731,296.7031 Q1785.3423,296.1221 1784.7488,295.8523 Q1784.1553,295.5825 1783.5244,295.5825 Q1782.1797,295.5825 1781.4949,296.6492 Q1780.8101,297.7158 1780.8101,299.8159 Q1780.8101,301.9077 1781.4949,302.9744 Q1782.1797,304.041 1783.5244,304.041 Q1784.1553,304.041 1784.7488,303.7712 Q1785.3423,303.5015 1785.9731,302.9204 Z "/><text fill="#000000" font-family="sans-serif" font-size="12" lengthAdjust="spacingAndGlyphs" textLength="179" x="1797" y="304.5352">RechtsVerkehrBenzinLimousine</text><!--class LinksVerkehrBenzinLimousine--><rect fill="#FEFECE" filter="url(#f1nzwld94iytko)" height="32" id="LinksVerkehrBenzinLimousine" style="stroke: #A80036; stroke-width: 1.5;" width="202" x="2014.5" y="284"/><ellipse cx="2029.5" cy="300" fill="#ADD1B2" rx="11" ry="11" style="stroke: #A80036; stroke-width: 1.0;"/><path d="M2032.4731,305.6431 Q2031.8921,305.9419 2031.2529,306.0913 Q2030.6138,306.2407 2029.9082,306.2407 Q2027.4014,306.2407 2026.0815,304.5889 Q2024.7617,302.937 2024.7617,299.8159 Q2024.7617,296.6865 2026.0815,295.0347 Q2027.4014,293.3828 2029.9082,293.3828 Q2030.6138,293.3828 2031.2612,293.5322 Q2031.9087,293.6816 2032.4731,293.9805 L2032.4731,296.7031 Q2031.8423,296.1221 2031.2488,295.8523 Q2030.6553,295.5825 2030.0244,295.5825 Q2028.6797,295.5825 2027.9949,296.6492 Q2027.3101,297.7158 2027.3101,299.8159 Q2027.3101,301.9077 2027.9949,302.9744 Q2028.6797,304.041 2030.0244,304.041 Q2030.6553,304.041 2031.2488,303.7712 Q2031.8423,303.5015 2032.4731,302.9204 Z "/><text fill="#000000" font-family="sans-serif" font-size="12" lengthAdjust="spacingAndGlyphs" textLength="170" x="2043.5" y="304.5352">LinksVerkehrBenzinLimousine</text><!--class RechtsVerkehrDieselLimousine--><rect fill="#FEFECE" filter="url(#f1nzwld94iytko)" height="32" id="RechtsVerkehrDieselLimousine" style="stroke: #A80036; stroke-width: 1.5;" width="208" x="2251.5" y="284"/><ellipse cx="2266.5" cy="300" fill="#ADD1B2" rx="11" ry="11" style="stroke: #A80036; stroke-width: 1.0;"/><path d="M2269.4731,305.6431 Q2268.8921,305.9419 2268.2529,306.0913 Q2267.6138,306.2407 2266.9082,306.2407 Q2264.4014,306.2407 2263.0815,304.5889 Q2261.7617,302.937 2261.7617,299.8159 Q2261.7617,296.6865 2263.0815,295.0347 Q2264.4014,293.3828 2266.9082,293.3828 Q2267.6138,293.3828 2268.2612,293.5322 Q2268.9087,293.6816 2269.4731,293.9805 L2269.4731,296.7031 Q2268.8423,296.1221 2268.2488,295.8523 Q2267.6553,295.5825 2267.0244,295.5825 Q2265.6797,295.5825 2264.9949,296.6492 Q2264.3101,297.7158 2264.3101,299.8159 Q2264.3101,301.9077 2264.9949,302.9744 Q2265.6797,304.041 2267.0244,304.041 Q2267.6553,304.041 2268.2488,303.7712 Q2268.8423,303.5015 2269.4731,302.9204 Z "/><text fill="#000000" font-family="sans-serif" font-size="12" lengthAdjust="spacingAndGlyphs" textLength="176" x="2280.5" y="304.5352">RechtsVerkehrDieselLimousine</text><!--class LinksVerkehrDieselLimousine--><rect fill="#FEFECE" filter="url(#f1nzwld94iytko)" height="32" id="LinksVerkehrDieselLimousine" style="stroke: #A80036; stroke-width: 1.5;" width="199" x="2495" y="284"/><ellipse cx="2510" cy="300" fill="#ADD1B2" rx="11" ry="11" style="stroke: #A80036; stroke-width: 1.0;"/><path d="M2512.9731,305.6431 Q2512.3921,305.9419 2511.7529,306.0913 Q2511.1138,306.2407 2510.4082,306.2407 Q2507.9014,306.2407 2506.5815,304.5889 Q2505.2617,302.937 2505.2617,299.8159 Q2505.2617,296.6865 2506.5815,295.0347 Q2507.9014,293.3828 2510.4082,293.3828 Q2511.1138,293.3828 2511.7612,293.5322 Q2512.4087,293.6816 2512.9731,293.9805 L2512.9731,296.7031 Q2512.3423,296.1221 2511.7488,295.8523 Q2511.1553,295.5825 2510.5244,295.5825 Q2509.1797,295.5825 2508.4949,296.6492 Q2507.8101,297.7158 2507.8101,299.8159 Q2507.8101,301.9077 2508.4949,302.9744 Q2509.1797,304.041 2510.5244,304.041 Q2511.1553,304.041 2511.7488,303.7712 Q2512.3423,303.5015 2512.9731,302.9204 Z "/><text fill="#000000" font-family="sans-serif" font-size="12" lengthAdjust="spacingAndGlyphs" textLength="167" x="2524" y="304.5352">LinksVerkehrDieselLimousine</text><!--link Auto to Coupe--><path d="M1265.2993,30.8479 C1137.6223,48.6184 798.0213,95.8851 688.2495,111.1635 " fill="none" id="Auto-Coupe" style="stroke: #A80036; stroke-width: 1.0;"/><polygon fill="none" points="1264.4707,23.8958,1285.2448,28.0718,1266.4007,37.7622,1264.4707,23.8958" style="stroke: #A80036; stroke-width: 1.0;"/><!--link Auto to Kombi--><path d="M1314.5,60.4048 C1314.5,74.0788 1314.5,88.9368 1314.5,99.8498 " fill="none" id="Auto-Kombi" style="stroke: #A80036; stroke-width: 1.0;"/><polygon fill="none" points="1307.5001,60.0252,1314.5,40.0252,1321.5001,60.0251,1307.5001,60.0252" style="stroke: #A80036; stroke-width: 1.0;"/><!--link Auto to Limousine--><path d="M1363.9307,30.6877 C1491.0887,47.8914 1828.0646,93.4823 1949.8176,109.9547 " fill="none" id="Auto-Limousine" style="stroke: #A80036; stroke-width: 1.0;"/><polygon fill="none" points="1362.5996,37.5715,1343.7188,27.9531,1364.4767,23.6979,1362.5996,37.5715" style="stroke: #A80036; stroke-width: 1.0;"/><!--link Coupe to BenzinCoupe--><path d="M599.1725,131.1459 C537.7699,148.2641 438.4282,175.9594 377.2604,193.0123 " fill="none" id="Coupe-BenzinCoupe" style="stroke: #A80036; stroke-width: 1.0;"/><polygon fill="none" points="597.6627,124.2999,618.8079,125.6717,601.4225,137.7856,597.6627,124.2999" style="stroke: #A80036; stroke-width: 1.0;"/><!--link Coupe to DieselCoupe--><path d="M653.5,152.4048 C653.5,166.0788 653.5,180.9368 653.5,191.8498 " fill="none" id="Coupe-DieselCoupe" style="stroke: #A80036; stroke-width: 1.0;"/><polygon fill="none" points="646.5001,152.0252,653.5,132.0252,660.5001,152.0251,646.5001,152.0252" style="stroke: #A80036; stroke-width: 1.0;"/><!--link Kombi to BenzinKombi--><path d="M1279.9442,144.9013 C1261.4227,160.3919 1239.2949,178.8988 1223.81,191.8498 " fill="none" id="Kombi-BenzinKombi" style="stroke: #A80036; stroke-width: 1.0;"/><polygon fill="none" points="1275.507,139.4868,1295.3395,132.0252,1284.4888,150.2259,1275.507,139.4868" style="stroke: #A80036; stroke-width: 1.0;"/><!--link Kombi to DieselKombi--><path d="M1349.0558,144.9013 C1367.5773,160.3919 1389.7051,178.8988 1405.19,191.8498 " fill="none" id="Kombi-DieselKombi" style="stroke: #A80036; stroke-width: 1.0;"/><polygon fill="none" points="1344.5112,150.2259,1333.6605,132.0252,1353.493,139.4868,1344.5112,150.2259" style="stroke: #A80036; stroke-width: 1.0;"/><!--link Limousine to BenzinLimousine--><path d="M1994.5,152.4048 C1994.5,166.0788 1994.5,180.9368 1994.5,191.8498 " fill="none" id="Limousine-BenzinLimousine" style="stroke: #A80036; stroke-width: 1.0;"/><polygon fill="none" points="1987.5001,152.0252,1994.5,132.0252,2001.5001,152.0251,1987.5001,152.0252" style="stroke: #A80036; stroke-width: 1.0;"/><!--link Limousine to DieselLimousine--><path d="M2058.8853,132.4084 C2125.2393,149.3186 2227.9685,175.4989 2293.4523,192.1873 " fill="none" id="Limousine-DieselLimousine" style="stroke: #A80036; stroke-width: 1.0;"/><polygon fill="none" points="2056.7796,139.0956,2039.1278,127.3733,2060.237,125.5292,2056.7796,139.0956" style="stroke: #A80036; stroke-width: 1.0;"/><!--link BenzinCoupe to RechtsVerkehrBenzinCoupe--><path d="M266.2521,231.7244 C226.7564,248.092 175.2917,269.4196 140.4712,283.8498 " fill="none" id="BenzinCoupe-RechtsVerkehrBenzinCoupe" style="stroke: #A80036; stroke-width: 1.0;"/><polygon fill="none" points="263.6744,225.2154,284.8306,224.0252,269.0342,238.1488,263.6744,225.2154" style="stroke: #A80036; stroke-width: 1.0;"/><!--link BenzinCoupe to LinksVerkehrBenzinCoupe--><path d="M323.5,244.4048 C323.5,258.0788 323.5,272.9368 323.5,283.8498 " fill="none" id="BenzinCoupe-LinksVerkehrBenzinCoupe" style="stroke: #A80036; stroke-width: 1.0;"/><polygon fill="none" points="316.5001,244.0252,323.5,224.0252,330.5001,244.0251,316.5001,244.0252" style="stroke: #A80036; stroke-width: 1.0;"/><!--link DieselCoupe to RechtsVerkehrDieselCoupe--><path d="M618.9442,236.9013 C600.4227,252.3919 578.2949,270.8988 562.81,283.8498 " fill="none" id="DieselCoupe-RechtsVerkehrDieselCoupe" style="stroke: #A80036; stroke-width: 1.0;"/><polygon fill="none" points="614.507,231.4868,634.3395,224.0252,623.4888,242.2259,614.507,231.4868" style="stroke: #A80036; stroke-width: 1.0;"/><!--link DieselCoupe to LinksVerkehrDieselCoupe--><path d="M688.0215,237.1374 C706.3172,252.5796 728.0993,270.9646 743.3655,283.8498 " fill="none" id="DieselCoupe-LinksVerkehrDieselCoupe" style="stroke: #A80036; stroke-width: 1.0;"/><polygon fill="none" points="683.255,242.2745,672.4864,224.0252,692.285,231.5759,683.255,242.2745" style="stroke: #A80036; stroke-width: 1.0;"/><!--link BenzinKombi to RechtsVerkehrBenzinKombi--><path d="M1147.2521,231.7244 C1107.7564,248.092 1056.2917,269.4196 1021.4712,283.8498 " fill="none" id="BenzinKombi-RechtsVerkehrBenzinKombi" style="stroke: #A80036; stroke-width: 1.0;"/><polygon fill="none" points="1144.6744,225.2154,1165.8306,224.0252,1150.0342,238.1488,1144.6744,225.2154" style="stroke: #A80036; stroke-width: 1.0;"/><!--link BenzinKombi to LinksVerkehrBenzinKombi--><path d="M1204.5,244.4048 C1204.5,258.0788 1204.5,272.9368 1204.5,283.8498 " fill="none" id="BenzinKombi-LinksVerkehrBenzinKombi" style="stroke: #A80036; stroke-width: 1.0;"/><polygon fill="none" points="1197.5001,244.0252,1204.5,224.0252,1211.5001,244.0251,1197.5001,244.0252" style="stroke: #A80036; stroke-width: 1.0;"/><!--link DieselKombi to RechtsVerkehrDieselKombi--><path d="M1424.5,244.4048 C1424.5,258.0788 1424.5,272.9368 1424.5,283.8498 " fill="none" id="DieselKombi-RechtsVerkehrDieselKombi" style="stroke: #A80036; stroke-width: 1.0;"/><polygon fill="none" points="1417.5001,244.0252,1424.5,224.0252,1431.5001,244.0251,1417.5001,244.0252" style="stroke: #A80036; stroke-width: 1.0;"/><!--link DieselKombi to LinksVerkehrDieselKombi--><path d="M1481.2407,231.8363 C1520.1675,248.1891 1570.7837,269.4525 1605.0555,283.8498 " fill="none" id="DieselKombi-LinksVerkehrDieselKombi" style="stroke: #A80036; stroke-width: 1.0;"/><polygon fill="none" points="1478.3748,238.225,1462.6469,224.0252,1483.7971,225.3177,1478.3748,238.225" style="stroke: #A80036; stroke-width: 1.0;"/><!--link BenzinLimousine to RechtsVerkehrBenzinLimousine--><path d="M1957.4165,236.1957 C1936.858,251.827 1912.0338,270.7016 1894.7411,283.8498 " fill="none" id="BenzinLimousine-RechtsVerkehrBenzinLimousine" style="stroke: #A80036; stroke-width: 1.0;"/><polygon fill="none" points="1953.2659,230.558,1973.4234,224.0252,1961.7394,241.7025,1953.2659,230.558" style="stroke: #A80036; stroke-width: 1.0;"/><!--link BenzinLimousine to LinksVerkehrBenzinLimousine--><path d="M2031.5835,236.1957 C2052.142,251.827 2076.9662,270.7016 2094.2589,283.8498 " fill="none" id="BenzinLimousine-LinksVerkehrBenzinLimousine" style="stroke: #A80036; stroke-width: 1.0;"/><polygon fill="none" points="2027.2606,241.7025,2015.5766,224.0252,2035.7341,230.558,2027.2606,241.7025" style="stroke: #A80036; stroke-width: 1.0;"/><!--link DieselLimousine to RechtsVerkehrDieselLimousine--><path d="M2355.5,244.4048 C2355.5,258.0788 2355.5,272.9368 2355.5,283.8498 " fill="none" id="DieselLimousine-RechtsVerkehrDieselLimousine" style="stroke: #A80036; stroke-width: 1.0;"/><polygon fill="none" points="2348.5001,244.0252,2355.5,224.0252,2362.5001,244.0251,2348.5001,244.0252" style="stroke: #A80036; stroke-width: 1.0;"/><!--link DieselLimousine to LinksVerkehrDieselLimousine--><path d="M2415.9727,231.2782 C2458.6408,247.7027 2514.716,269.2882 2552.5445,283.8498 " fill="none" id="DieselLimousine-LinksVerkehrDieselLimousine" style="stroke: #A80036; stroke-width: 1.0;"/><polygon fill="none" points="2413.2808,237.7428,2397.1306,224.0252,2418.3102,224.6773,2413.2808,237.7428" style="stroke: #A80036; stroke-width: 1.0;"/><!--
@startuml
hide member


Auto <|- - Coupe
Auto <|- - Kombi
Auto <|- - Limousine

Coupe <|- - BenzinCoupe
Coupe <|- - DieselCoupe

Kombi <|- - BenzinKombi
Kombi <|- - DieselKombi

Limousine <|- - BenzinLimousine
Limousine <|- - DieselLimousine

BenzinCoupe <|- - RechtsVerkehrBenzinCoupe
BenzinCoupe <|- - LinksVerkehrBenzinCoupe

DieselCoupe <|- - RechtsVerkehrDieselCoupe
DieselCoupe <|- - LinksVerkehrDieselCoupe

BenzinKombi <|- - RechtsVerkehrBenzinKombi
BenzinKombi <|- - LinksVerkehrBenzinKombi

DieselKombi <|- - RechtsVerkehrDieselKombi
DieselKombi <|- - LinksVerkehrDieselKombi

BenzinLimousine <|- - RechtsVerkehrBenzinLimousine
BenzinLimousine <|- - LinksVerkehrBenzinLimousine

DieselLimousine <|- - RechtsVerkehrDieselLimousine
DieselLimousine <|- - LinksVerkehrDieselLimousine

@enduml

PlantUML version 1.2018.09(Fri Jul 27 18:58:18 CEST 2018)
(GPL source distribution)
Java Runtime: OpenJDK Runtime Environment
JVM: OpenJDK 64-Bit Server VM
Java Version: 1.8.0_152-release-1248-b8
Operating System: Mac OS X
OS Version: 10.13.6
Default Encoding: UTF-8
Language: de
Country: DE
--></g></svg>