<?xml version="1.0" encoding="UTF-8" standalone="no"?><svg xmlns="http://www.w3.org/2000/svg" xmlns:xlink="http://www.w3.org/1999/xlink" contentScriptType="application/ecmascript" contentStyleType="text/css" height="155px" preserveAspectRatio="none" style="width:1001px;height:155px;" version="1.1" viewBox="0 0 1001 155" width="1001px" zoomAndPan="magnify"><defs><filter height="300%" id="fxo8dhggvxxnh" width="300%" x="-1" y="-1"><feGaussianBlur result="blurOut" stdDeviation="2.0"/><feColorMatrix in="blurOut" result="blurOut2" type="matrix" values="0 0 0 0 0 0 0 0 0 0 0 0 0 0 0 0 0 0 .4 0"/><feOffset dx="4.0" dy="4.0" in="blurOut2" result="blurOut3"/><feBlend in="SourceGraphic" in2="blurOut3" mode="normal"/></filter></defs><g><!--class Auto--><rect fill="#FEFECE" filter="url(#fxo8dhggvxxnh)" height="38.2656" id="Auto" style="stroke: #A80036; stroke-width: 1.5;" width="105" x="447.5" y="8"/><ellipse cx="462.5" cy="27.1328" fill="#A9DCDF" rx="11" ry="11" style="stroke: #A80036; stroke-width: 1.0;"/><path d="M462.6133,22.481 L461.4595,27.5527 L463.7754,27.5527 Z M461.1191,20.2397 L464.1157,20.2397 L467.4609,32.6328 L465.0122,32.6328 L464.2485,29.5698 L460.9697,29.5698 L460.2227,32.6328 L457.7739,32.6328 Z "/><text fill="#000000" font-family="sans-serif" font-size="12" font-style="italic" lengthAdjust="spacingAndGlyphs" textLength="77" x="474.5" y="24.6016">«Abstraction»</text><text fill="#000000" font-family="sans-serif" font-size="12" font-style="italic" lengthAdjust="spacingAndGlyphs" textLength="26" x="500" y="38.7344">Auto</text><!--class Coupe--><rect fill="#FEFECE" filter="url(#fxo8dhggvxxnh)" height="38.2656" id="Coupe" style="stroke: #A80036; stroke-width: 1.5;" width="106" x="306" y="106"/><ellipse cx="321" cy="125.1328" fill="#ADD1B2" rx="11" ry="11" style="stroke: #A80036; stroke-width: 1.0;"/><path d="M323.9731,130.7759 Q323.3921,131.0747 322.7529,131.2241 Q322.1138,131.3735 321.4082,131.3735 Q318.9014,131.3735 317.5815,129.7217 Q316.2617,128.0698 316.2617,124.9487 Q316.2617,121.8193 317.5815,120.1675 Q318.9014,118.5156 321.4082,118.5156 Q322.1138,118.5156 322.7612,118.665 Q323.4087,118.8145 323.9731,119.1133 L323.9731,121.8359 Q323.3423,121.2549 322.7488,120.9851 Q322.1553,120.7153 321.5244,120.7153 Q320.1797,120.7153 319.4949,121.782 Q318.8101,122.8486 318.8101,124.9487 Q318.8101,127.0405 319.4949,128.1072 Q320.1797,129.1738 321.5244,129.1738 Q322.1553,129.1738 322.7488,128.9041 Q323.3423,128.6343 323.9731,128.0532 Z "/><text fill="#000000" font-family="sans-serif" font-size="12" font-style="italic" lengthAdjust="spacingAndGlyphs" textLength="78" x="333" y="122.6016">«RefinedAbs»</text><text fill="#000000" font-family="sans-serif" font-size="12" lengthAdjust="spacingAndGlyphs" textLength="37" x="353.5" y="136.7344">Coupe</text><!--class Kombi--><rect fill="#FEFECE" filter="url(#fxo8dhggvxxnh)" height="38.2656" id="Kombi" style="stroke: #A80036; stroke-width: 1.5;" width="106" x="447" y="106"/><ellipse cx="462" cy="125.1328" fill="#ADD1B2" rx="11" ry="11" style="stroke: #A80036; stroke-width: 1.0;"/><path d="M464.9731,130.7759 Q464.3921,131.0747 463.7529,131.2241 Q463.1138,131.3735 462.4082,131.3735 Q459.9014,131.3735 458.5815,129.7217 Q457.2617,128.0698 457.2617,124.9487 Q457.2617,121.8193 458.5815,120.1675 Q459.9014,118.5156 462.4082,118.5156 Q463.1138,118.5156 463.7612,118.665 Q464.4087,118.8145 464.9731,119.1133 L464.9731,121.8359 Q464.3423,121.2549 463.7488,120.9851 Q463.1553,120.7153 462.5244,120.7153 Q461.1797,120.7153 460.4949,121.782 Q459.8101,122.8486 459.8101,124.9487 Q459.8101,127.0405 460.4949,128.1072 Q461.1797,129.1738 462.5244,129.1738 Q463.1553,129.1738 463.7488,128.9041 Q464.3423,128.6343 464.9731,128.0532 Z "/><text fill="#000000" font-family="sans-serif" font-size="12" font-style="italic" lengthAdjust="spacingAndGlyphs" textLength="78" x="474" y="122.6016">«RefinedAbs»</text><text fill="#000000" font-family="sans-serif" font-size="12" lengthAdjust="spacingAndGlyphs" textLength="37" x="494.5" y="136.7344">Kombi</text><!--class Limousine--><rect fill="#FEFECE" filter="url(#fxo8dhggvxxnh)" height="38.2656" id="Limousine" style="stroke: #A80036; stroke-width: 1.5;" width="106" x="588" y="106"/><ellipse cx="603" cy="125.1328" fill="#ADD1B2" rx="11" ry="11" style="stroke: #A80036; stroke-width: 1.0;"/><path d="M605.9731,130.7759 Q605.3921,131.0747 604.7529,131.2241 Q604.1138,131.3735 603.4082,131.3735 Q600.9014,131.3735 599.5815,129.7217 Q598.2617,128.0698 598.2617,124.9487 Q598.2617,121.8193 599.5815,120.1675 Q600.9014,118.5156 603.4082,118.5156 Q604.1138,118.5156 604.7612,118.665 Q605.4087,118.8145 605.9731,119.1133 L605.9731,121.8359 Q605.3423,121.2549 604.7488,120.9851 Q604.1553,120.7153 603.5244,120.7153 Q602.1797,120.7153 601.4949,121.782 Q600.8101,122.8486 600.8101,124.9487 Q600.8101,127.0405 601.4949,128.1072 Q602.1797,129.1738 603.5244,129.1738 Q604.1553,129.1738 604.7488,128.9041 Q605.3423,128.6343 605.9731,128.0532 Z "/><text fill="#000000" font-family="sans-serif" font-size="12" font-style="italic" lengthAdjust="spacingAndGlyphs" textLength="78" x="615" y="122.6016">«RefinedAbs»</text><text fill="#000000" font-family="sans-serif" font-size="12" lengthAdjust="spacingAndGlyphs" textLength="57" x="625.5" y="136.7344">Limousine</text><!--class TreibstoffInterface--><rect fill="#FEFECE" filter="url(#fxo8dhggvxxnh)" height="38.2656" id="TreibstoffInterface" style="stroke: #A80036; stroke-width: 1.5;" width="138" x="717" y="8"/><ellipse cx="732" cy="27.1328" fill="#B4A7E5" rx="11" ry="11" style="stroke: #A80036; stroke-width: 1.0;"/><path d="M727.9277,22.8979 L727.9277,20.7397 L735.3071,20.7397 L735.3071,22.8979 L732.8418,22.8979 L732.8418,30.9746 L735.3071,30.9746 L735.3071,33.1328 L727.9277,33.1328 L727.9277,30.9746 L730.3931,30.9746 L730.3931,22.8979 Z "/><text fill="#000000" font-family="sans-serif" font-size="12" font-style="italic" lengthAdjust="spacingAndGlyphs" textLength="85" x="756.5" y="24.6016">«Implementor»</text><text fill="#000000" font-family="sans-serif" font-size="12" font-style="italic" lengthAdjust="spacingAndGlyphs" textLength="106" x="746" y="38.7344">TreibstoffInterface</text><!--class SteuerInterface--><rect fill="#FEFECE" filter="url(#fxo8dhggvxxnh)" height="38.2656" id="SteuerInterface" style="stroke: #A80036; stroke-width: 1.5;" width="118" x="155" y="8"/><ellipse cx="170" cy="27.1328" fill="#B4A7E5" rx="11" ry="11" style="stroke: #A80036; stroke-width: 1.0;"/><path d="M165.9277,22.8979 L165.9277,20.7397 L173.3071,20.7397 L173.3071,22.8979 L170.8418,22.8979 L170.8418,30.9746 L173.3071,30.9746 L173.3071,33.1328 L165.9277,33.1328 L165.9277,30.9746 L168.3931,30.9746 L168.3931,22.8979 Z "/><text fill="#000000" font-family="sans-serif" font-size="12" font-style="italic" lengthAdjust="spacingAndGlyphs" textLength="85" x="184.5" y="24.6016">«Implementor»</text><text fill="#000000" font-family="sans-serif" font-size="12" font-style="italic" lengthAdjust="spacingAndGlyphs" textLength="86" x="184" y="38.7344">SteuerInterface</text><!--class Benzin--><rect fill="#FEFECE" filter="url(#fxo8dhggvxxnh)" height="38.2656" id="Benzin" style="stroke: #A80036; stroke-width: 1.5;" width="113" x="729.5" y="106"/><ellipse cx="744.5" cy="125.1328" fill="#ADD1B2" rx="11" ry="11" style="stroke: #A80036; stroke-width: 1.0;"/><path d="M747.4731,130.7759 Q746.8921,131.0747 746.2529,131.2241 Q745.6138,131.3735 744.9082,131.3735 Q742.4014,131.3735 741.0815,129.7217 Q739.7617,128.0698 739.7617,124.9487 Q739.7617,121.8193 741.0815,120.1675 Q742.4014,118.5156 744.9082,118.5156 Q745.6138,118.5156 746.2612,118.665 Q746.9087,118.8145 747.4731,119.1133 L747.4731,121.8359 Q746.8423,121.2549 746.2488,120.9851 Q745.6553,120.7153 745.0244,120.7153 Q743.6797,120.7153 742.9949,121.782 Q742.3101,122.8486 742.3101,124.9487 Q742.3101,127.0405 742.9949,128.1072 Q743.6797,129.1738 745.0244,129.1738 Q745.6553,129.1738 746.2488,128.9041 Q746.8423,128.6343 747.4731,128.0532 Z "/><text fill="#000000" font-family="sans-serif" font-size="12" font-style="italic" lengthAdjust="spacingAndGlyphs" textLength="85" x="756.5" y="122.6016">«ConcreteImp»</text><text fill="#000000" font-family="sans-serif" font-size="12" lengthAdjust="spacingAndGlyphs" textLength="38" x="780" y="136.7344">Benzin</text><!--class Diesel--><rect fill="#FEFECE" filter="url(#fxo8dhggvxxnh)" height="38.2656" id="Diesel" style="stroke: #A80036; stroke-width: 1.5;" width="113" x="877.5" y="106"/><ellipse cx="892.5" cy="125.1328" fill="#ADD1B2" rx="11" ry="11" style="stroke: #A80036; stroke-width: 1.0;"/><path d="M895.4731,130.7759 Q894.8921,131.0747 894.2529,131.2241 Q893.6138,131.3735 892.9082,131.3735 Q890.4014,131.3735 889.0815,129.7217 Q887.7617,128.0698 887.7617,124.9487 Q887.7617,121.8193 889.0815,120.1675 Q890.4014,118.5156 892.9082,118.5156 Q893.6138,118.5156 894.2612,118.665 Q894.9087,118.8145 895.4731,119.1133 L895.4731,121.8359 Q894.8423,121.2549 894.2488,120.9851 Q893.6553,120.7153 893.0244,120.7153 Q891.6797,120.7153 890.9949,121.782 Q890.3101,122.8486 890.3101,124.9487 Q890.3101,127.0405 890.9949,128.1072 Q891.6797,129.1738 893.0244,129.1738 Q893.6553,129.1738 894.2488,128.9041 Q894.8423,128.6343 895.4731,128.0532 Z "/><text fill="#000000" font-family="sans-serif" font-size="12" font-style="italic" lengthAdjust="spacingAndGlyphs" textLength="85" x="904.5" y="122.6016">«ConcreteImp»</text><text fill="#000000" font-family="sans-serif" font-size="12" lengthAdjust="spacingAndGlyphs" textLength="35" x="929.5" y="136.7344">Diesel</text><!--class RechtsVerkehr--><rect fill="#FEFECE" filter="url(#fxo8dhggvxxnh)" height="38.2656" id="RechtsVerkehr" style="stroke: #A80036; stroke-width: 1.5;" width="116" x="6" y="106"/><ellipse cx="21" cy="125.1328" fill="#ADD1B2" rx="11" ry="11" style="stroke: #A80036; stroke-width: 1.0;"/><path d="M23.9731,130.7759 Q23.3921,131.0747 22.7529,131.2241 Q22.1138,131.3735 21.4082,131.3735 Q18.9014,131.3735 17.5815,129.7217 Q16.2617,128.0698 16.2617,124.9487 Q16.2617,121.8193 17.5815,120.1675 Q18.9014,118.5156 21.4082,118.5156 Q22.1138,118.5156 22.7612,118.665 Q23.4087,118.8145 23.9731,119.1133 L23.9731,121.8359 Q23.3423,121.2549 22.7488,120.9851 Q22.1553,120.7153 21.5244,120.7153 Q20.1797,120.7153 19.4949,121.782 Q18.8101,122.8486 18.8101,124.9487 Q18.8101,127.0405 19.4949,128.1072 Q20.1797,129.1738 21.5244,129.1738 Q22.1553,129.1738 22.7488,128.9041 Q23.3423,128.6343 23.9731,128.0532 Z "/><text fill="#000000" font-family="sans-serif" font-size="12" font-style="italic" lengthAdjust="spacingAndGlyphs" textLength="85" x="34.5" y="122.6016">«ConcreteImp»</text><text fill="#000000" font-family="sans-serif" font-size="12" lengthAdjust="spacingAndGlyphs" textLength="84" x="35" y="136.7344">RechtsVerkehr</text><!--class LinksVerkehr--><rect fill="#FEFECE" filter="url(#fxo8dhggvxxnh)" height="38.2656" id="LinksVerkehr" style="stroke: #A80036; stroke-width: 1.5;" width="113" x="157.5" y="106"/><ellipse cx="172.5" cy="125.1328" fill="#ADD1B2" rx="11" ry="11" style="stroke: #A80036; stroke-width: 1.0;"/><path d="M175.4731,130.7759 Q174.8921,131.0747 174.2529,131.2241 Q173.6138,131.3735 172.9082,131.3735 Q170.4014,131.3735 169.0815,129.7217 Q167.7617,128.0698 167.7617,124.9487 Q167.7617,121.8193 169.0815,120.1675 Q170.4014,118.5156 172.9082,118.5156 Q173.6138,118.5156 174.2612,118.665 Q174.9087,118.8145 175.4731,119.1133 L175.4731,121.8359 Q174.8423,121.2549 174.2488,120.9851 Q173.6553,120.7153 173.0244,120.7153 Q171.6797,120.7153 170.9949,121.782 Q170.3101,122.8486 170.3101,124.9487 Q170.3101,127.0405 170.9949,128.1072 Q171.6797,129.1738 173.0244,129.1738 Q173.6553,129.1738 174.2488,128.9041 Q174.8423,128.6343 175.4731,128.0532 Z "/><text fill="#000000" font-family="sans-serif" font-size="12" font-style="italic" lengthAdjust="spacingAndGlyphs" textLength="85" x="184.5" y="122.6016">«ConcreteImp»</text><text fill="#000000" font-family="sans-serif" font-size="12" lengthAdjust="spacingAndGlyphs" textLength="75" x="189.5" y="136.7344">LinksVerkehr</text><!--link Auto to Coupe--><path d="M455.7721,57.7399 C433.0737,73.5161 406.1354,92.2392 386.4515,105.9202 " fill="none" id="Auto-Coupe" style="stroke: #A80036; stroke-width: 1.0;"/><polygon fill="none" points="452.0611,51.7945,472.4791,46.128,460.0513,63.2905,452.0611,51.7945" style="stroke: #A80036; stroke-width: 1.0;"/><!--link Auto to Kombi--><path d="M500,66.692 C500,80.1338 500,94.5458 500,105.6786 " fill="none" id="Auto-Kombi" style="stroke: #A80036; stroke-width: 1.0;"/><polygon fill="none" points="493.0001,66.3617,500,46.3616,507.0001,66.3616,493.0001,66.3617" style="stroke: #A80036; stroke-width: 1.0;"/><!--link Auto to Limousine--><path d="M544.2279,57.7399 C566.9263,73.5161 593.8646,92.2392 613.5485,105.9202 " fill="none" id="Auto-Limousine" style="stroke: #A80036; stroke-width: 1.0;"/><polygon fill="none" points="539.9487,63.2905,527.5209,46.128,547.9389,51.7945,539.9487,63.2905" style="stroke: #A80036; stroke-width: 1.0;"/><!--link Auto to TreibstoffInterface--><path d="M565.6546,27 C611.5724,27 657.4903,27 703.4081,27 " fill="none" id="Auto-TreibstoffInterface" style="stroke: #A80036; stroke-width: 1.0;"/><polygon fill="#A80036" points="716.682,27,707.682,23,711.682,27,707.682,31,716.682,27" style="stroke: #A80036; stroke-width: 1.0;"/><line style="stroke: #A80036; stroke-width: 1.0;" x1="711.682" x2="703.682" y1="27" y2="26.9999"/><polygon fill="#FFFFFF" points="552.5078,27,558.5078,31,564.5078,27,558.5078,23,552.5078,27" style="stroke: #A80036; stroke-width: 1.0;"/><text fill="#000000" font-family="sans-serif" font-size="13" lengthAdjust="spacingAndGlyphs" textLength="62" x="647.0014" y="23.9959">Treibstoff</text><!--link SteuerInterface to Auto--><path d="M286.4708,27 C335.6796,27 384.8884,27 434.0971,27 " fill="none" id="SteuerInterface-Auto" style="stroke: #A80036; stroke-width: 1.0;"/><polygon fill="#FFFFFF" points="447.2893,27,441.2893,23,435.2893,27,441.2893,31,447.2893,27" style="stroke: #A80036; stroke-width: 1.0;"/><polygon fill="#A80036" points="273.2109,27,282.2109,31,278.2109,27,282.2109,23,273.2109,27" style="stroke: #A80036; stroke-width: 1.0;"/><line style="stroke: #A80036; stroke-width: 1.0;" x1="278.2109" x2="286.211" y1="27" y2="26.9999"/><text fill="#000000" font-family="sans-serif" font-size="13" lengthAdjust="spacingAndGlyphs" textLength="39" x="280.959" y="23.8323">Steuer</text><!--link TreibstoffInterface to Benzin--><path d="M786,66.692 C786,80.1338 786,94.5458 786,105.6786 " fill="none" id="TreibstoffInterface-Benzin" style="stroke: #A80036; stroke-width: 1.0; stroke-dasharray: 7.0,7.0;"/><polygon fill="none" points="779.0001,66.3617,786,46.3616,793.0001,66.3616,779.0001,66.3617" style="stroke: #A80036; stroke-width: 1.0;"/><!--link TreibstoffInterface to Diesel--><path d="M831.7207,57.2745 C855.691,73.1467 884.3209,92.1044 905.1856,105.9202 " fill="none" id="TreibstoffInterface-Diesel" style="stroke: #A80036; stroke-width: 1.0; stroke-dasharray: 7.0,7.0;"/><polygon fill="none" points="827.6981,63.0065,814.8872,46.128,835.4275,51.3336,827.6981,63.0065" style="stroke: #A80036; stroke-width: 1.0;"/><!--link SteuerInterface to RechtsVerkehr--><path d="M167.6614,57.2745 C143.3673,73.1467 114.3504,92.1044 93.2038,105.9202 " fill="none" id="SteuerInterface-RechtsVerkehr" style="stroke: #A80036; stroke-width: 1.0; stroke-dasharray: 7.0,7.0;"/><polygon fill="none" points="164.1504,51.2069,184.7224,46.128,171.8077,62.9272,164.1504,51.2069" style="stroke: #A80036; stroke-width: 1.0;"/><!--link SteuerInterface to LinksVerkehr--><path d="M214,66.692 C214,80.1338 214,94.5458 214,105.6786 " fill="none" id="SteuerInterface-LinksVerkehr" style="stroke: #A80036; stroke-width: 1.0; stroke-dasharray: 7.0,7.0;"/><polygon fill="none" points="207.0001,66.3617,214,46.3616,221.0001,66.3616,207.0001,66.3617" style="stroke: #A80036; stroke-width: 1.0;"/><!--
@startuml
hide member

abstract class Auto <<Abstraction>>

class Coupe <<RefinedAbs>> extends Auto
class Kombi <<RefinedAbs>> extends Auto
class Limousine <<RefinedAbs>> extends Auto

interface TreibstoffInterface<<Implementor>>
interface SteuerInterface<<Implementor>>

Auto o-> "Treibstoff" TreibstoffInterface
Auto o-left-> "Steuer" SteuerInterface

class Benzin <<ConcreteImp>> implements TreibstoffInterface
class Diesel <<ConcreteImp>> implements TreibstoffInterface

class RechtsVerkehr <<ConcreteImp>> implements SteuerInterface
class LinksVerkehr <<ConcreteImp>> implements SteuerInterface

@enduml

PlantUML version 1.2018.09(Fri Jul 27 18:58:18 CEST 2018)
(GPL source distribution)
Java Runtime: OpenJDK Runtime Environment
JVM: OpenJDK 64-Bit Server VM
Java Version: 1.8.0_152-release-1248-b8
Operating System: Mac OS X
OS Version: 10.13.6
Default Encoding: UTF-8
Language: de
Country: DE
--></g></svg>