<?xml version="1.0" encoding="UTF-8" standalone="no"?><svg xmlns="http://www.w3.org/2000/svg" xmlns:xlink="http://www.w3.org/1999/xlink" contentScriptType="application/ecmascript" contentStyleType="text/css" height="143px" preserveAspectRatio="none" style="width:556px;height:143px;" version="1.1" viewBox="0 0 556 143" width="556px" zoomAndPan="magnify"><defs><filter height="300%" id="f17y8ry9nqwnbh" width="300%" x="-1" y="-1"><feGaussianBlur result="blurOut" stdDeviation="2.0"/><feColorMatrix in="blurOut" result="blurOut2" type="matrix" values="0 0 0 0 0 0 0 0 0 0 0 0 0 0 0 0 0 0 .4 0"/><feOffset dx="4.0" dy="4.0" in="blurOut2" result="blurOut3"/><feBlend in="SourceGraphic" in2="blurOut3" mode="normal"/></filter></defs><g><!--class Abstraction--><rect fill="#FEFECE" filter="url(#f17y8ry9nqwnbh)" height="32" id="Abstraction" style="stroke: #A80036; stroke-width: 1.5;" width="97" x="54" y="8"/><ellipse cx="69" cy="24" fill="#A9DCDF" rx="11" ry="11" style="stroke: #A80036; stroke-width: 1.0;"/><path d="M69.1133,19.3481 L67.9595,24.4199 L70.2754,24.4199 Z M67.6191,17.1069 L70.6157,17.1069 L73.9609,29.5 L71.5122,29.5 L70.7485,26.437 L67.4697,26.437 L66.7227,29.5 L64.2739,29.5 Z "/><text fill="#000000" font-family="sans-serif" font-size="12" font-style="italic" lengthAdjust="spacingAndGlyphs" textLength="65" x="83" y="28.5352">Abstraction</text><!--class Implementor--><rect fill="#FEFECE" filter="url(#f17y8ry9nqwnbh)" height="32" id="Implementor" style="stroke: #A80036; stroke-width: 1.5;" width="105" x="212" y="8"/><ellipse cx="227" cy="24" fill="#B4A7E5" rx="11" ry="11" style="stroke: #A80036; stroke-width: 1.0;"/><path d="M222.9277,19.7651 L222.9277,17.6069 L230.3071,17.6069 L230.3071,19.7651 L227.8418,19.7651 L227.8418,27.8418 L230.3071,27.8418 L230.3071,30 L222.9277,30 L222.9277,27.8418 L225.3931,27.8418 L225.3931,19.7651 Z "/><text fill="#000000" font-family="sans-serif" font-size="12" font-style="italic" lengthAdjust="spacingAndGlyphs" textLength="73" x="241" y="28.5352">Implementor</text><!--class RefinedAbstraction--><rect fill="#FEFECE" filter="url(#f17y8ry9nqwnbh)" height="32" id="RefinedAbstraction" style="stroke: #A80036; stroke-width: 1.5;" width="141" x="6" y="100"/><ellipse cx="21" cy="116" fill="#ADD1B2" rx="11" ry="11" style="stroke: #A80036; stroke-width: 1.0;"/><path d="M23.9731,121.6431 Q23.3921,121.9419 22.7529,122.0913 Q22.1138,122.2407 21.4082,122.2407 Q18.9014,122.2407 17.5815,120.5889 Q16.2617,118.937 16.2617,115.8159 Q16.2617,112.6865 17.5815,111.0347 Q18.9014,109.3828 21.4082,109.3828 Q22.1138,109.3828 22.7612,109.5322 Q23.4087,109.6816 23.9731,109.9805 L23.9731,112.7031 Q23.3423,112.1221 22.7488,111.8523 Q22.1553,111.5825 21.5244,111.5825 Q20.1797,111.5825 19.4949,112.6492 Q18.8101,113.7158 18.8101,115.8159 Q18.8101,117.9077 19.4949,118.9744 Q20.1797,120.041 21.5244,120.041 Q22.1553,120.041 22.7488,119.7712 Q23.3423,119.5015 23.9731,118.9204 Z "/><text fill="#000000" font-family="sans-serif" font-size="12" lengthAdjust="spacingAndGlyphs" textLength="109" x="35" y="120.5352">RefinedAbstraction</text><!--class ConcreteImplementorA--><rect fill="#FEFECE" filter="url(#f17y8ry9nqwnbh)" height="32" id="ConcreteImplementorA" style="stroke: #A80036; stroke-width: 1.5;" width="164" x="182.5" y="100"/><ellipse cx="197.5" cy="116" fill="#ADD1B2" rx="11" ry="11" style="stroke: #A80036; stroke-width: 1.0;"/><path d="M200.4731,121.6431 Q199.8921,121.9419 199.2529,122.0913 Q198.6138,122.2407 197.9082,122.2407 Q195.4014,122.2407 194.0815,120.5889 Q192.7617,118.937 192.7617,115.8159 Q192.7617,112.6865 194.0815,111.0347 Q195.4014,109.3828 197.9082,109.3828 Q198.6138,109.3828 199.2612,109.5322 Q199.9087,109.6816 200.4731,109.9805 L200.4731,112.7031 Q199.8423,112.1221 199.2488,111.8523 Q198.6553,111.5825 198.0244,111.5825 Q196.6797,111.5825 195.9949,112.6492 Q195.3101,113.7158 195.3101,115.8159 Q195.3101,117.9077 195.9949,118.9744 Q196.6797,120.041 198.0244,120.041 Q198.6553,120.041 199.2488,119.7712 Q199.8423,119.5015 200.4731,118.9204 Z "/><text fill="#000000" font-family="sans-serif" font-size="12" lengthAdjust="spacingAndGlyphs" textLength="132" x="211.5" y="120.5352">ConcreteImplementorA</text><!--class ConcreteImplementorB--><rect fill="#FEFECE" filter="url(#f17y8ry9nqwnbh)" height="32" id="ConcreteImplementorB" style="stroke: #A80036; stroke-width: 1.5;" width="163" x="382" y="100"/><ellipse cx="397" cy="116" fill="#ADD1B2" rx="11" ry="11" style="stroke: #A80036; stroke-width: 1.0;"/><path d="M399.9731,121.6431 Q399.3921,121.9419 398.7529,122.0913 Q398.1138,122.2407 397.4082,122.2407 Q394.9014,122.2407 393.5815,120.5889 Q392.2617,118.937 392.2617,115.8159 Q392.2617,112.6865 393.5815,111.0347 Q394.9014,109.3828 397.4082,109.3828 Q398.1138,109.3828 398.7612,109.5322 Q399.4087,109.6816 399.9731,109.9805 L399.9731,112.7031 Q399.3423,112.1221 398.7488,111.8523 Q398.1553,111.5825 397.5244,111.5825 Q396.1797,111.5825 395.4949,112.6492 Q394.8101,113.7158 394.8101,115.8159 Q394.8101,117.9077 395.4949,118.9744 Q396.1797,120.041 397.5244,120.041 Q398.1553,120.041 398.7488,119.7712 Q399.3423,119.5015 399.9731,118.9204 Z "/><text fill="#000000" font-family="sans-serif" font-size="12" lengthAdjust="spacingAndGlyphs" textLength="131" x="411" y="120.5352">ConcreteImplementorB</text><!--link Abstraction to RefinedAbstraction--><path d="M100.5,60.0252 C100.5,60.0252 100.5,99.8498 100.5,99.8498 " fill="none" id="Abstraction-RefinedAbstraction" style="stroke: #A80036; stroke-width: 1.0;"/><polygon fill="none" points="93.5001,60.0252,100.5,40.0252,107.5001,60.0251,93.5001,60.0252" style="stroke: #A80036; stroke-width: 1.0;"/><!--link Implementor to ConcreteImplementorA--><path d="M264.5,60.0252 C264.5,60.0252 264.5,99.8498 264.5,99.8498 " fill="none" id="Implementor-ConcreteImplementorA" style="stroke: #A80036; stroke-width: 1.0; stroke-dasharray: 7.0,7.0;"/><polygon fill="none" points="257.5001,60.0252,264.5,40.0252,271.5001,60.0251,257.5001,60.0252" style="stroke: #A80036; stroke-width: 1.0;"/><!--link Implementor to ConcreteImplementorB--><path d="M337.0452,24 C337.0452,24 463.5,24 463.5,24 C463.5,24 463.5,73.6162 463.5,99.9748 " fill="none" id="Implementor-ConcreteImplementorB" style="stroke: #A80036; stroke-width: 1.0; stroke-dasharray: 7.0,7.0;"/><polygon fill="none" points="337.0452,30.9999,317.0452,24,337.0452,16.9999,337.0452,30.9999" style="stroke: #A80036; stroke-width: 1.0;"/><!--link Abstraction to Implementor--><path d="M151.1053,24 C151.1053,24 206.9767,24 206.9767,24 " fill="none" id="Abstraction-Implementor" style="stroke: #A80036; stroke-width: 1.0;"/><polygon fill="#A80036" points="211.9767,24,202.9767,20,206.9767,24,202.9767,28,211.9767,24" style="stroke: #A80036; stroke-width: 1.0;"/><!--
@startuml
hide member

skinparam linetype ortho

abstract class Abstraction
interface Implementor

Abstraction <|- - RefinedAbstraction

Implementor <|.. ConcreteImplementorA
Implementor <|.. ConcreteImplementorB

Abstraction -right-> Implementor

@enduml

PlantUML version 1.2018.09(Fri Jul 27 18:58:18 CEST 2018)
(GPL source distribution)
Java Runtime: OpenJDK Runtime Environment
JVM: OpenJDK 64-Bit Server VM
Java Version: 1.8.0_152-release-1248-b8
Operating System: Mac OS X
OS Version: 10.13.6
Default Encoding: UTF-8
Language: de
Country: DE
--></g></svg>