<?xml version="1.0" encoding="UTF-8" standalone="no"?><svg xmlns="http://www.w3.org/2000/svg" xmlns:xlink="http://www.w3.org/1999/xlink" contentScriptType="application/ecmascript" contentStyleType="text/css" height="235px" preserveAspectRatio="none" style="width:867px;height:235px;" version="1.1" viewBox="0 0 867 235" width="867px" zoomAndPan="magnify"><defs><filter height="300%" id="f1iw73055hd359" width="300%" x="-1" y="-1"><feGaussianBlur result="blurOut" stdDeviation="2.0"/><feColorMatrix in="blurOut" result="blurOut2" type="matrix" values="0 0 0 0 0 0 0 0 0 0 0 0 0 0 0 0 0 0 .4 0"/><feOffset dx="4.0" dy="4.0" in="blurOut2" result="blurOut3"/><feBlend in="SourceGraphic" in2="blurOut3" mode="normal"/></filter></defs><g><!--class Auto--><rect fill="#FEFECE" filter="url(#f1iw73055hd359)" height="32" id="Auto" style="stroke: #A80036; stroke-width: 1.5;" width="58" x="382.5" y="8"/><ellipse cx="397.5" cy="24" fill="#ADD1B2" rx="11" ry="11" style="stroke: #A80036; stroke-width: 1.0;"/><path d="M400.4731,29.6431 Q399.8921,29.9419 399.2529,30.0913 Q398.6138,30.2407 397.9082,30.2407 Q395.4014,30.2407 394.0815,28.5889 Q392.7617,26.937 392.7617,23.8159 Q392.7617,20.6865 394.0815,19.0347 Q395.4014,17.3828 397.9082,17.3828 Q398.6138,17.3828 399.2612,17.5322 Q399.9087,17.6816 400.4731,17.9805 L400.4731,20.7031 Q399.8423,20.1221 399.2488,19.8523 Q398.6553,19.5825 398.0244,19.5825 Q396.6797,19.5825 395.9949,20.6492 Q395.3101,21.7158 395.3101,23.8159 Q395.3101,25.9077 395.9949,26.9744 Q396.6797,28.041 398.0244,28.041 Q398.6553,28.041 399.2488,27.7712 Q399.8423,27.5015 400.4731,26.9204 Z "/><text fill="#000000" font-family="sans-serif" font-size="12" lengthAdjust="spacingAndGlyphs" textLength="26" x="411.5" y="28.5352">Auto</text><!--class Coupe--><rect fill="#FEFECE" filter="url(#f1iw73055hd359)" height="32" id="Coupe" style="stroke: #A80036; stroke-width: 1.5;" width="69" x="166" y="100"/><ellipse cx="181" cy="116" fill="#ADD1B2" rx="11" ry="11" style="stroke: #A80036; stroke-width: 1.0;"/><path d="M183.9731,121.6431 Q183.3921,121.9419 182.7529,122.0913 Q182.1138,122.2407 181.4082,122.2407 Q178.9014,122.2407 177.5815,120.5889 Q176.2617,118.937 176.2617,115.8159 Q176.2617,112.6865 177.5815,111.0347 Q178.9014,109.3828 181.4082,109.3828 Q182.1138,109.3828 182.7612,109.5322 Q183.4087,109.6816 183.9731,109.9805 L183.9731,112.7031 Q183.3423,112.1221 182.7488,111.8523 Q182.1553,111.5825 181.5244,111.5825 Q180.1797,111.5825 179.4949,112.6492 Q178.8101,113.7158 178.8101,115.8159 Q178.8101,117.9077 179.4949,118.9744 Q180.1797,120.041 181.5244,120.041 Q182.1553,120.041 182.7488,119.7712 Q183.3423,119.5015 183.9731,118.9204 Z "/><text fill="#000000" font-family="sans-serif" font-size="12" lengthAdjust="spacingAndGlyphs" textLength="37" x="195" y="120.5352">Coupe</text><!--class Kombi--><rect fill="#FEFECE" filter="url(#f1iw73055hd359)" height="32" id="Kombi" style="stroke: #A80036; stroke-width: 1.5;" width="69" x="377" y="100"/><ellipse cx="392" cy="116" fill="#ADD1B2" rx="11" ry="11" style="stroke: #A80036; stroke-width: 1.0;"/><path d="M394.9731,121.6431 Q394.3921,121.9419 393.7529,122.0913 Q393.1138,122.2407 392.4082,122.2407 Q389.9014,122.2407 388.5815,120.5889 Q387.2617,118.937 387.2617,115.8159 Q387.2617,112.6865 388.5815,111.0347 Q389.9014,109.3828 392.4082,109.3828 Q393.1138,109.3828 393.7612,109.5322 Q394.4087,109.6816 394.9731,109.9805 L394.9731,112.7031 Q394.3423,112.1221 393.7488,111.8523 Q393.1553,111.5825 392.5244,111.5825 Q391.1797,111.5825 390.4949,112.6492 Q389.8101,113.7158 389.8101,115.8159 Q389.8101,117.9077 390.4949,118.9744 Q391.1797,120.041 392.5244,120.041 Q393.1553,120.041 393.7488,119.7712 Q394.3423,119.5015 394.9731,118.9204 Z "/><text fill="#000000" font-family="sans-serif" font-size="12" lengthAdjust="spacingAndGlyphs" textLength="37" x="406" y="120.5352">Kombi</text><!--class Limousine--><rect fill="#FEFECE" filter="url(#f1iw73055hd359)" height="32" id="Limousine" style="stroke: #A80036; stroke-width: 1.5;" width="89" x="589" y="100"/><ellipse cx="604" cy="116" fill="#ADD1B2" rx="11" ry="11" style="stroke: #A80036; stroke-width: 1.0;"/><path d="M606.9731,121.6431 Q606.3921,121.9419 605.7529,122.0913 Q605.1138,122.2407 604.4082,122.2407 Q601.9014,122.2407 600.5815,120.5889 Q599.2617,118.937 599.2617,115.8159 Q599.2617,112.6865 600.5815,111.0347 Q601.9014,109.3828 604.4082,109.3828 Q605.1138,109.3828 605.7612,109.5322 Q606.4087,109.6816 606.9731,109.9805 L606.9731,112.7031 Q606.3423,112.1221 605.7488,111.8523 Q605.1553,111.5825 604.5244,111.5825 Q603.1797,111.5825 602.4949,112.6492 Q601.8101,113.7158 601.8101,115.8159 Q601.8101,117.9077 602.4949,118.9744 Q603.1797,120.041 604.5244,120.041 Q605.1553,120.041 605.7488,119.7712 Q606.3423,119.5015 606.9731,118.9204 Z "/><text fill="#000000" font-family="sans-serif" font-size="12" lengthAdjust="spacingAndGlyphs" textLength="57" x="618" y="120.5352">Limousine</text><!--class BenzinCoupe--><rect fill="#FEFECE" filter="url(#f1iw73055hd359)" height="32" id="BenzinCoupe" style="stroke: #A80036; stroke-width: 1.5;" width="107" x="6" y="192"/><ellipse cx="21" cy="208" fill="#ADD1B2" rx="11" ry="11" style="stroke: #A80036; stroke-width: 1.0;"/><path d="M23.9731,213.6431 Q23.3921,213.9419 22.7529,214.0913 Q22.1138,214.2407 21.4082,214.2407 Q18.9014,214.2407 17.5815,212.5889 Q16.2617,210.937 16.2617,207.8159 Q16.2617,204.6865 17.5815,203.0347 Q18.9014,201.3828 21.4082,201.3828 Q22.1138,201.3828 22.7612,201.5322 Q23.4087,201.6816 23.9731,201.9805 L23.9731,204.7031 Q23.3423,204.1221 22.7488,203.8523 Q22.1553,203.5825 21.5244,203.5825 Q20.1797,203.5825 19.4949,204.6492 Q18.8101,205.7158 18.8101,207.8159 Q18.8101,209.9077 19.4949,210.9744 Q20.1797,212.041 21.5244,212.041 Q22.1553,212.041 22.7488,211.7712 Q23.3423,211.5015 23.9731,210.9204 Z "/><text fill="#000000" font-family="sans-serif" font-size="12" lengthAdjust="spacingAndGlyphs" textLength="75" x="35" y="212.5352">BenzinCoupe</text><!--class DieselCoupe--><rect fill="#FEFECE" filter="url(#f1iw73055hd359)" height="32" id="DieselCoupe" style="stroke: #A80036; stroke-width: 1.5;" width="104" x="148.5" y="192"/><ellipse cx="163.5" cy="208" fill="#ADD1B2" rx="11" ry="11" style="stroke: #A80036; stroke-width: 1.0;"/><path d="M166.4731,213.6431 Q165.8921,213.9419 165.2529,214.0913 Q164.6138,214.2407 163.9082,214.2407 Q161.4014,214.2407 160.0815,212.5889 Q158.7617,210.937 158.7617,207.8159 Q158.7617,204.6865 160.0815,203.0347 Q161.4014,201.3828 163.9082,201.3828 Q164.6138,201.3828 165.2612,201.5322 Q165.9087,201.6816 166.4731,201.9805 L166.4731,204.7031 Q165.8423,204.1221 165.2488,203.8523 Q164.6553,203.5825 164.0244,203.5825 Q162.6797,203.5825 161.9949,204.6492 Q161.3101,205.7158 161.3101,207.8159 Q161.3101,209.9077 161.9949,210.9744 Q162.6797,212.041 164.0244,212.041 Q164.6553,212.041 165.2488,211.7712 Q165.8423,211.5015 166.4731,210.9204 Z "/><text fill="#000000" font-family="sans-serif" font-size="12" lengthAdjust="spacingAndGlyphs" textLength="72" x="177.5" y="212.5352">DieselCoupe</text><!--class BenzinKombi--><rect fill="#FEFECE" filter="url(#f1iw73055hd359)" height="32" id="BenzinKombi" style="stroke: #A80036; stroke-width: 1.5;" width="107" x="288" y="192"/><ellipse cx="303" cy="208" fill="#ADD1B2" rx="11" ry="11" style="stroke: #A80036; stroke-width: 1.0;"/><path d="M305.9731,213.6431 Q305.3921,213.9419 304.7529,214.0913 Q304.1138,214.2407 303.4082,214.2407 Q300.9014,214.2407 299.5815,212.5889 Q298.2617,210.937 298.2617,207.8159 Q298.2617,204.6865 299.5815,203.0347 Q300.9014,201.3828 303.4082,201.3828 Q304.1138,201.3828 304.7612,201.5322 Q305.4087,201.6816 305.9731,201.9805 L305.9731,204.7031 Q305.3423,204.1221 304.7488,203.8523 Q304.1553,203.5825 303.5244,203.5825 Q302.1797,203.5825 301.4949,204.6492 Q300.8101,205.7158 300.8101,207.8159 Q300.8101,209.9077 301.4949,210.9744 Q302.1797,212.041 303.5244,212.041 Q304.1553,212.041 304.7488,211.7712 Q305.3423,211.5015 305.9731,210.9204 Z "/><text fill="#000000" font-family="sans-serif" font-size="12" lengthAdjust="spacingAndGlyphs" textLength="75" x="317" y="212.5352">BenzinKombi</text><!--class DieselKombi--><rect fill="#FEFECE" filter="url(#f1iw73055hd359)" height="32" id="DieselKombi" style="stroke: #A80036; stroke-width: 1.5;" width="104" x="430.5" y="192"/><ellipse cx="445.5" cy="208" fill="#ADD1B2" rx="11" ry="11" style="stroke: #A80036; stroke-width: 1.0;"/><path d="M448.4731,213.6431 Q447.8921,213.9419 447.2529,214.0913 Q446.6138,214.2407 445.9082,214.2407 Q443.4014,214.2407 442.0815,212.5889 Q440.7617,210.937 440.7617,207.8159 Q440.7617,204.6865 442.0815,203.0347 Q443.4014,201.3828 445.9082,201.3828 Q446.6138,201.3828 447.2612,201.5322 Q447.9087,201.6816 448.4731,201.9805 L448.4731,204.7031 Q447.8423,204.1221 447.2488,203.8523 Q446.6553,203.5825 446.0244,203.5825 Q444.6797,203.5825 443.9949,204.6492 Q443.3101,205.7158 443.3101,207.8159 Q443.3101,209.9077 443.9949,210.9744 Q444.6797,212.041 446.0244,212.041 Q446.6553,212.041 447.2488,211.7712 Q447.8423,211.5015 448.4731,210.9204 Z "/><text fill="#000000" font-family="sans-serif" font-size="12" lengthAdjust="spacingAndGlyphs" textLength="72" x="459.5" y="212.5352">DieselKombi</text><!--class BenzinLimousine--><rect fill="#FEFECE" filter="url(#f1iw73055hd359)" height="32" id="BenzinLimousine" style="stroke: #A80036; stroke-width: 1.5;" width="127" x="570" y="192"/><ellipse cx="585" cy="208" fill="#ADD1B2" rx="11" ry="11" style="stroke: #A80036; stroke-width: 1.0;"/><path d="M587.9731,213.6431 Q587.3921,213.9419 586.7529,214.0913 Q586.1138,214.2407 585.4082,214.2407 Q582.9014,214.2407 581.5815,212.5889 Q580.2617,210.937 580.2617,207.8159 Q580.2617,204.6865 581.5815,203.0347 Q582.9014,201.3828 585.4082,201.3828 Q586.1138,201.3828 586.7612,201.5322 Q587.4087,201.6816 587.9731,201.9805 L587.9731,204.7031 Q587.3423,204.1221 586.7488,203.8523 Q586.1553,203.5825 585.5244,203.5825 Q584.1797,203.5825 583.4949,204.6492 Q582.8101,205.7158 582.8101,207.8159 Q582.8101,209.9077 583.4949,210.9744 Q584.1797,212.041 585.5244,212.041 Q586.1553,212.041 586.7488,211.7712 Q587.3423,211.5015 587.9731,210.9204 Z "/><text fill="#000000" font-family="sans-serif" font-size="12" lengthAdjust="spacingAndGlyphs" textLength="95" x="599" y="212.5352">BenzinLimousine</text><!--class DieselLimousine--><rect fill="#FEFECE" filter="url(#f1iw73055hd359)" height="32" id="DieselLimousine" style="stroke: #A80036; stroke-width: 1.5;" width="124" x="732.5" y="192"/><ellipse cx="747.5" cy="208" fill="#ADD1B2" rx="11" ry="11" style="stroke: #A80036; stroke-width: 1.0;"/><path d="M750.4731,213.6431 Q749.8921,213.9419 749.2529,214.0913 Q748.6138,214.2407 747.9082,214.2407 Q745.4014,214.2407 744.0815,212.5889 Q742.7617,210.937 742.7617,207.8159 Q742.7617,204.6865 744.0815,203.0347 Q745.4014,201.3828 747.9082,201.3828 Q748.6138,201.3828 749.2612,201.5322 Q749.9087,201.6816 750.4731,201.9805 L750.4731,204.7031 Q749.8423,204.1221 749.2488,203.8523 Q748.6553,203.5825 748.0244,203.5825 Q746.6797,203.5825 745.9949,204.6492 Q745.3101,205.7158 745.3101,207.8159 Q745.3101,209.9077 745.9949,210.9744 Q746.6797,212.041 748.0244,212.041 Q748.6553,212.041 749.2488,211.7712 Q749.8423,211.5015 750.4731,210.9204 Z "/><text fill="#000000" font-family="sans-serif" font-size="12" lengthAdjust="spacingAndGlyphs" textLength="92" x="761.5" y="212.5352">DieselLimousine</text><!--link Auto to Coupe--><path d="M363.8194,44.7896 C324.7095,61.8423 270.2607,85.583 235.1946,100.8725 " fill="none" id="Auto-Coupe" style="stroke: #A80036; stroke-width: 1.0;"/><polygon fill="none" points="361.0305,38.3693,382.1614,36.7922,366.626,51.2024,361.0305,38.3693" style="stroke: #A80036; stroke-width: 1.0;"/><!--link Auto to Kombi--><path d="M411.5,60.4048 C411.5,74.0788 411.5,88.9368 411.5,99.8498 " fill="none" id="Auto-Kombi" style="stroke: #A80036; stroke-width: 1.0;"/><polygon fill="none" points="404.5001,60.0252,411.5,40.0252,418.5001,60.0251,404.5001,60.0252" style="stroke: #A80036; stroke-width: 1.0;"/><!--link Auto to Limousine--><path d="M459.1532,43.7482 C499.6484,60.53 557.0522,84.3189 594.7671,99.9485 " fill="none" id="Auto-Limousine" style="stroke: #A80036; stroke-width: 1.0;"/><polygon fill="none" points="456.319,50.151,440.5226,36.0274,461.6788,37.2176,456.319,50.151" style="stroke: #A80036; stroke-width: 1.0;"/><!--link Coupe to BenzinCoupe--><path d="M159.0743,143.0296 C134.7823,158.8796 104.9068,178.3729 84.252,191.8498 " fill="none" id="Coupe-BenzinCoupe" style="stroke: #A80036; stroke-width: 1.0;"/><polygon fill="none" points="155.3647,137.0917,175.9397,132.0252,163.015,148.8167,155.3647,137.0917" style="stroke: #A80036; stroke-width: 1.0;"/><!--link Coupe to DieselCoupe--><path d="M200.5,152.4048 C200.5,166.0788 200.5,180.9368 200.5,191.8498 " fill="none" id="Coupe-DieselCoupe" style="stroke: #A80036; stroke-width: 1.0;"/><polygon fill="none" points="193.5001,152.0252,200.5,132.0252,207.5001,152.0251,193.5001,152.0252" style="stroke: #A80036; stroke-width: 1.0;"/><!--link Kombi to BenzinKombi--><path d="M387.1485,148.0049 C375.8835,162.8102 362.9919,179.7534 353.7882,191.8498 " fill="none" id="Kombi-BenzinKombi" style="stroke: #A80036; stroke-width: 1.0;"/><polygon fill="none" points="381.6256,143.7031,399.3069,132.0252,392.7673,152.1804,381.6256,143.7031" style="stroke: #A80036; stroke-width: 1.0;"/><!--link Kombi to DieselKombi--><path d="M436.1994,148.0049 C447.6253,162.8102 460.701,179.7534 470.0362,191.8498 " fill="none" id="Kombi-DieselKombi" style="stroke: #A80036; stroke-width: 1.0;"/><polygon fill="none" points="430.5448,152.1352,423.8673,132.0252,441.6281,143.5817,430.5448,152.1352" style="stroke: #A80036; stroke-width: 1.0;"/><!--link Limousine to BenzinLimousine--><path d="M633.5,152.4048 C633.5,166.0788 633.5,180.9368 633.5,191.8498 " fill="none" id="Limousine-BenzinLimousine" style="stroke: #A80036; stroke-width: 1.0;"/><polygon fill="none" points="626.5001,152.0252,633.5,132.0252,640.5001,152.0251,626.5001,152.0252" style="stroke: #A80036; stroke-width: 1.0;"/><!--link Limousine to DieselLimousine--><path d="M679.1855,142.106 C707.2041,158.1166 742.1924,178.1099 766.2371,191.8498 " fill="none" id="Limousine-DieselLimousine" style="stroke: #A80036; stroke-width: 1.0;"/><polygon fill="none" points="675.4359,148.0257,661.5441,132.0252,682.3819,135.8703,675.4359,148.0257" style="stroke: #A80036; stroke-width: 1.0;"/><!--
@startuml
hide member

Auto <|- - Coupe
Auto <|- - Kombi
Auto <|- - Limousine



Coupe <|- - BenzinCoupe
Coupe <|- - DieselCoupe

Kombi <|- - BenzinKombi
Kombi <|- - DieselKombi

Limousine <|- - BenzinLimousine
Limousine <|- - DieselLimousine

@enduml

PlantUML version 1.2018.09(Fri Jul 27 18:58:18 CEST 2018)
(GPL source distribution)
Java Runtime: OpenJDK Runtime Environment
JVM: OpenJDK 64-Bit Server VM
Java Version: 1.8.0_152-release-1248-b8
Operating System: Mac OS X
OS Version: 10.13.6
Default Encoding: UTF-8
Language: de
Country: DE
--></g></svg>