<?xml version="1.0" encoding="UTF-8" standalone="no"?><svg xmlns="http://www.w3.org/2000/svg" xmlns:xlink="http://www.w3.org/1999/xlink" contentScriptType="application/ecmascript" contentStyleType="text/css" height="296px" preserveAspectRatio="none" style="width:681px;height:296px;" version="1.1" viewBox="0 0 681 296" width="681px" zoomAndPan="magnify"><defs><filter height="300%" id="f1efn3j40orc4j" width="300%" x="-1" y="-1"><feGaussianBlur result="blurOut" stdDeviation="2.0"/><feColorMatrix in="blurOut" result="blurOut2" type="matrix" values="0 0 0 0 0 0 0 0 0 0 0 0 0 0 0 0 0 0 .4 0"/><feOffset dx="4.0" dy="4.0" in="blurOut2" result="blurOut3"/><feBlend in="SourceGraphic" in2="blurOut3" mode="normal"/></filter></defs><g><!--class Controller--><rect fill="#FEFECE" filter="url(#f1efn3j40orc4j)" height="60.9551" id="Controller" style="stroke: #A80036; stroke-width: 1.5;" width="217" x="216" y="8"/><ellipse cx="292.25" cy="24" fill="#ADD1B2" rx="11" ry="11" style="stroke: #A80036; stroke-width: 1.0;"/><path d="M295.2231,29.6431 Q294.6421,29.9419 294.0029,30.0913 Q293.3638,30.2407 292.6582,30.2407 Q290.1514,30.2407 288.8315,28.5889 Q287.5117,26.937 287.5117,23.8159 Q287.5117,20.6865 288.8315,19.0347 Q290.1514,17.3828 292.6582,17.3828 Q293.3638,17.3828 294.0112,17.5322 Q294.6587,17.6816 295.2231,17.9805 L295.2231,20.7031 Q294.5923,20.1221 293.9988,19.8523 Q293.4053,19.5825 292.7744,19.5825 Q291.4297,19.5825 290.7449,20.6492 Q290.0601,21.7158 290.0601,23.8159 Q290.0601,25.9077 290.7449,26.9744 Q291.4297,28.041 292.7744,28.041 Q293.4053,28.041 293.9988,27.7712 Q294.5923,27.5015 295.2231,26.9204 Z "/><text fill="#000000" font-family="sans-serif" font-size="12" lengthAdjust="spacingAndGlyphs" textLength="56" x="312.75" y="28.5352">Controller</text><line style="stroke: #A80036; stroke-width: 1.5;" x1="217" x2="432" y1="40" y2="40"/><line style="stroke: #A80036; stroke-width: 1.5;" x1="217" x2="432" y1="48" y2="48"/><ellipse cx="227" cy="59.9775" fill="#84BE84" rx="3" ry="3" style="stroke: #038048; stroke-width: 1.0;"/><text fill="#000000" font-family="sans-serif" font-size="11" lengthAdjust="spacingAndGlyphs" textLength="191" x="236" y="62.6348">buildResponse(Request) : Response</text><!--class EntityAwareController--><rect fill="#FEFECE" filter="url(#f1efn3j40orc4j)" height="48" id="EntityAwareController" style="stroke: #A80036; stroke-width: 1.5;" width="155" x="45" y="129"/><ellipse cx="60" cy="145" fill="#ADD1B2" rx="11" ry="11" style="stroke: #A80036; stroke-width: 1.0;"/><path d="M62.9731,150.6431 Q62.3921,150.9419 61.7529,151.0913 Q61.1138,151.2407 60.4082,151.2407 Q57.9014,151.2407 56.5815,149.5889 Q55.2617,147.937 55.2617,144.8159 Q55.2617,141.6865 56.5815,140.0347 Q57.9014,138.3828 60.4082,138.3828 Q61.1138,138.3828 61.7612,138.5322 Q62.4087,138.6816 62.9731,138.9805 L62.9731,141.7031 Q62.3423,141.1221 61.7488,140.8523 Q61.1553,140.5825 60.5244,140.5825 Q59.1797,140.5825 58.4949,141.6492 Q57.8101,142.7158 57.8101,144.8159 Q57.8101,146.9077 58.4949,147.9744 Q59.1797,149.041 60.5244,149.041 Q61.1553,149.041 61.7488,148.7712 Q62.3423,148.5015 62.9731,147.9204 Z "/><text fill="#000000" font-family="sans-serif" font-size="12" lengthAdjust="spacingAndGlyphs" textLength="123" x="74" y="149.5352">EntityAwareController</text><line style="stroke: #A80036; stroke-width: 1.5;" x1="46" x2="199" y1="161" y2="161"/><line style="stroke: #A80036; stroke-width: 1.5;" x1="46" x2="199" y1="169" y2="169"/><!--class ContainerAwareController--><rect fill="#FEFECE" filter="url(#f1efn3j40orc4j)" height="48" id="ContainerAwareController" style="stroke: #A80036; stroke-width: 1.5;" width="179" x="235" y="129"/><ellipse cx="250" cy="145" fill="#ADD1B2" rx="11" ry="11" style="stroke: #A80036; stroke-width: 1.0;"/><path d="M252.9731,150.6431 Q252.3921,150.9419 251.7529,151.0913 Q251.1138,151.2407 250.4082,151.2407 Q247.9014,151.2407 246.5815,149.5889 Q245.2617,147.937 245.2617,144.8159 Q245.2617,141.6865 246.5815,140.0347 Q247.9014,138.3828 250.4082,138.3828 Q251.1138,138.3828 251.7612,138.5322 Q252.4087,138.6816 252.9731,138.9805 L252.9731,141.7031 Q252.3423,141.1221 251.7488,140.8523 Q251.1553,140.5825 250.5244,140.5825 Q249.1797,140.5825 248.4949,141.6492 Q247.8101,142.7158 247.8101,144.8159 Q247.8101,146.9077 248.4949,147.9744 Q249.1797,149.041 250.5244,149.041 Q251.1553,149.041 251.7488,148.7712 Q252.3423,148.5015 252.9731,147.9204 Z "/><text fill="#000000" font-family="sans-serif" font-size="12" lengthAdjust="spacingAndGlyphs" textLength="147" x="264" y="149.5352">ContainerAwareController</text><line style="stroke: #A80036; stroke-width: 1.5;" x1="236" x2="413" y1="161" y2="161"/><line style="stroke: #A80036; stroke-width: 1.5;" x1="236" x2="413" y1="169" y2="169"/><!--class CacheableController--><rect fill="#FEFECE" filter="url(#f1efn3j40orc4j)" height="48" id="CacheableController" style="stroke: #A80036; stroke-width: 1.5;" width="148" x="449.5" y="129"/><ellipse cx="464.5" cy="145" fill="#ADD1B2" rx="11" ry="11" style="stroke: #A80036; stroke-width: 1.0;"/><path d="M467.4731,150.6431 Q466.8921,150.9419 466.2529,151.0913 Q465.6138,151.2407 464.9082,151.2407 Q462.4014,151.2407 461.0815,149.5889 Q459.7617,147.937 459.7617,144.8159 Q459.7617,141.6865 461.0815,140.0347 Q462.4014,138.3828 464.9082,138.3828 Q465.6138,138.3828 466.2612,138.5322 Q466.9087,138.6816 467.4731,138.9805 L467.4731,141.7031 Q466.8423,141.1221 466.2488,140.8523 Q465.6553,140.5825 465.0244,140.5825 Q463.6797,140.5825 462.9949,141.6492 Q462.3101,142.7158 462.3101,144.8159 Q462.3101,146.9077 462.9949,147.9744 Q463.6797,149.041 465.0244,149.041 Q465.6553,149.041 466.2488,148.7712 Q466.8423,148.5015 467.4731,147.9204 Z "/><text fill="#000000" font-family="sans-serif" font-size="12" lengthAdjust="spacingAndGlyphs" textLength="116" x="478.5" y="149.5352">CacheableController</text><line style="stroke: #A80036; stroke-width: 1.5;" x1="450.5" x2="596.5" y1="161" y2="161"/><line style="stroke: #A80036; stroke-width: 1.5;" x1="450.5" x2="596.5" y1="169" y2="169"/><!--class EntityAndContainerAwareController--><rect fill="#FEFECE" filter="url(#f1efn3j40orc4j)" height="48" id="EntityAndContainerAwareController" style="stroke: #A80036; stroke-width: 1.5;" width="233" x="6" y="237"/><ellipse cx="21" cy="253" fill="#ADD1B2" rx="11" ry="11" style="stroke: #A80036; stroke-width: 1.0;"/><path d="M23.9731,258.6431 Q23.3921,258.9419 22.7529,259.0913 Q22.1138,259.2407 21.4082,259.2407 Q18.9014,259.2407 17.5815,257.5889 Q16.2617,255.937 16.2617,252.8159 Q16.2617,249.6865 17.5815,248.0347 Q18.9014,246.3828 21.4082,246.3828 Q22.1138,246.3828 22.7612,246.5322 Q23.4087,246.6816 23.9731,246.9805 L23.9731,249.7031 Q23.3423,249.1221 22.7488,248.8523 Q22.1553,248.5825 21.5244,248.5825 Q20.1797,248.5825 19.4949,249.6492 Q18.8101,250.7158 18.8101,252.8159 Q18.8101,254.9077 19.4949,255.9744 Q20.1797,257.041 21.5244,257.041 Q22.1553,257.041 22.7488,256.7712 Q23.3423,256.5015 23.9731,255.9204 Z "/><text fill="#000000" font-family="sans-serif" font-size="12" lengthAdjust="spacingAndGlyphs" textLength="201" x="35" y="257.5352">EntityAndContainerAwareController</text><line style="stroke: #A80036; stroke-width: 1.5;" x1="7" x2="238" y1="269" y2="269"/><line style="stroke: #A80036; stroke-width: 1.5;" x1="7" x2="238" y1="277" y2="277"/><!--class CacheableEntityAndContainerAwareController--><rect fill="#FEFECE" filter="url(#f1efn3j40orc4j)" height="48" id="CacheableEntityAndContainerAwareController" style="stroke: #A80036; stroke-width: 1.5;" width="293" x="377" y="237"/><ellipse cx="392" cy="253" fill="#ADD1B2" rx="11" ry="11" style="stroke: #A80036; stroke-width: 1.0;"/><path d="M394.9731,258.6431 Q394.3921,258.9419 393.7529,259.0913 Q393.1138,259.2407 392.4082,259.2407 Q389.9014,259.2407 388.5815,257.5889 Q387.2617,255.937 387.2617,252.8159 Q387.2617,249.6865 388.5815,248.0347 Q389.9014,246.3828 392.4082,246.3828 Q393.1138,246.3828 393.7612,246.5322 Q394.4087,246.6816 394.9731,246.9805 L394.9731,249.7031 Q394.3423,249.1221 393.7488,248.8523 Q393.1553,248.5825 392.5244,248.5825 Q391.1797,248.5825 390.4949,249.6492 Q389.8101,250.7158 389.8101,252.8159 Q389.8101,254.9077 390.4949,255.9744 Q391.1797,257.041 392.5244,257.041 Q393.1553,257.041 393.7488,256.7712 Q394.3423,256.5015 394.9731,255.9204 Z "/><text fill="#000000" font-family="sans-serif" font-size="12" lengthAdjust="spacingAndGlyphs" textLength="261" x="406" y="257.5352">CacheableEntityAndContainerAwareController</text><line style="stroke: #A80036; stroke-width: 1.5;" x1="378" x2="669" y1="269" y2="269"/><line style="stroke: #A80036; stroke-width: 1.5;" x1="378" x2="669" y1="277" y2="277"/><!--link Controller to EntityAwareController--><path d="M252.9083,79.0805 C223.5254,95.7356 190.5046,114.4528 165.0426,128.8855 " fill="none" id="Controller-EntityAwareController" style="stroke: #A80036; stroke-width: 1.0;"/><polygon fill="none" points="249.782,72.8062,270.6331,69.0335,256.6857,84.9857,249.782,72.8062" style="stroke: #A80036; stroke-width: 1.0;"/><!--link Controller to ContainerAwareController--><path d="M324.5,89.2346 C324.5,102.9779 324.5,117.2288 324.5,128.7634 " fill="none" id="Controller-ContainerAwareController" style="stroke: #A80036; stroke-width: 1.0;"/><polygon fill="none" points="317.5001,89.1839,324.5,69.1839,331.5001,89.1839,317.5001,89.1839" style="stroke: #A80036; stroke-width: 1.0;"/><!--link Controller to CacheableController--><path d="M395.0285,79.0805 C423.975,95.7356 456.5054,114.4528 481.5892,128.8855 " fill="none" id="Controller-CacheableController" style="stroke: #A80036; stroke-width: 1.0;"/><polygon fill="none" points="391.4112,85.0752,377.5669,69.0335,398.3933,72.9405,391.4112,85.0752" style="stroke: #A80036; stroke-width: 1.0;"/><!--link EntityAwareController to EntityAndContainerAwareController--><path d="M122.5,197.2911 C122.5,210.8171 122.5,225.1835 122.5,236.8436 " fill="none" id="EntityAwareController-EntityAndContainerAwareController" style="stroke: #A80036; stroke-width: 1.0;"/><polygon fill="none" points="115.5001,197.2373,122.5,177.2373,129.5001,197.2373,115.5001,197.2373" style="stroke: #A80036; stroke-width: 1.0;"/><!--link CacheableController to CacheableEntityAndContainerAwareController--><path d="M523.5,197.2911 C523.5,210.8171 523.5,225.1835 523.5,236.8436 " fill="none" id="CacheableController-CacheableEntityAndContainerAwareController" style="stroke: #A80036; stroke-width: 1.0;"/><polygon fill="none" points="516.5001,197.2373,523.5,177.2373,530.5001,197.2373,516.5001,197.2373" style="stroke: #A80036; stroke-width: 1.0;"/><!--
@startuml

class Controller {
    + buildResponse(Request) : Response
}

class EntityAwareController extends Controller
class ContainerAwareController extends Controller
class CacheableController extends Controller
class EntityAndContainerAwareController extends EntityAwareController
class CacheableEntityAndContainerAwareController extends CacheableController


@enduml

PlantUML version 1.2018.09(Fri Jul 27 18:58:18 CEST 2018)
(GPL source distribution)
Java Runtime: OpenJDK Runtime Environment
JVM: OpenJDK 64-Bit Server VM
Java Version: 1.8.0_152-release-1248-b8
Operating System: Mac OS X
OS Version: 10.13.6
Default Encoding: UTF-8
Language: de
Country: DE
--></g></svg>