<?xml version="1.0" encoding="UTF-8" standalone="no"?><svg xmlns="http://www.w3.org/2000/svg" xmlns:xlink="http://www.w3.org/1999/xlink" contentScriptType="application/ecmascript" contentStyleType="text/css" height="143px" preserveAspectRatio="none" style="width:314px;height:143px;" version="1.1" viewBox="0 0 314 143" width="314px" zoomAndPan="magnify"><defs><filter height="300%" id="fpo1cyscl02w2" width="300%" x="-1" y="-1"><feGaussianBlur result="blurOut" stdDeviation="2.0"/><feColorMatrix in="blurOut" result="blurOut2" type="matrix" values="0 0 0 0 0 0 0 0 0 0 0 0 0 0 0 0 0 0 .4 0"/><feOffset dx="4.0" dy="4.0" in="blurOut2" result="blurOut3"/><feBlend in="SourceGraphic" in2="blurOut3" mode="normal"/></filter></defs><g><!--class Auto--><rect fill="#FEFECE" filter="url(#fpo1cyscl02w2)" height="32" id="Auto" style="stroke: #A80036; stroke-width: 1.5;" width="58" x="115.5" y="8"/><ellipse cx="130.5" cy="24" fill="#ADD1B2" rx="11" ry="11" style="stroke: #A80036; stroke-width: 1.0;"/><path d="M133.4731,29.6431 Q132.8921,29.9419 132.2529,30.0913 Q131.6138,30.2407 130.9082,30.2407 Q128.4014,30.2407 127.0815,28.5889 Q125.7617,26.937 125.7617,23.8159 Q125.7617,20.6865 127.0815,19.0347 Q128.4014,17.3828 130.9082,17.3828 Q131.6138,17.3828 132.2612,17.5322 Q132.9087,17.6816 133.4731,17.9805 L133.4731,20.7031 Q132.8423,20.1221 132.2488,19.8523 Q131.6553,19.5825 131.0244,19.5825 Q129.6797,19.5825 128.9949,20.6492 Q128.3101,21.7158 128.3101,23.8159 Q128.3101,25.9077 128.9949,26.9744 Q129.6797,28.041 131.0244,28.041 Q131.6553,28.041 132.2488,27.7712 Q132.8423,27.5015 133.4731,26.9204 Z "/><text fill="#000000" font-family="sans-serif" font-size="12" lengthAdjust="spacingAndGlyphs" textLength="26" x="144.5" y="28.5352">Auto</text><!--class Coupe--><rect fill="#FEFECE" filter="url(#fpo1cyscl02w2)" height="32" id="Coupe" style="stroke: #A80036; stroke-width: 1.5;" width="69" x="6" y="100"/><ellipse cx="21" cy="116" fill="#ADD1B2" rx="11" ry="11" style="stroke: #A80036; stroke-width: 1.0;"/><path d="M23.9731,121.6431 Q23.3921,121.9419 22.7529,122.0913 Q22.1138,122.2407 21.4082,122.2407 Q18.9014,122.2407 17.5815,120.5889 Q16.2617,118.937 16.2617,115.8159 Q16.2617,112.6865 17.5815,111.0347 Q18.9014,109.3828 21.4082,109.3828 Q22.1138,109.3828 22.7612,109.5322 Q23.4087,109.6816 23.9731,109.9805 L23.9731,112.7031 Q23.3423,112.1221 22.7488,111.8523 Q22.1553,111.5825 21.5244,111.5825 Q20.1797,111.5825 19.4949,112.6492 Q18.8101,113.7158 18.8101,115.8159 Q18.8101,117.9077 19.4949,118.9744 Q20.1797,120.041 21.5244,120.041 Q22.1553,120.041 22.7488,119.7712 Q23.3423,119.5015 23.9731,118.9204 Z "/><text fill="#000000" font-family="sans-serif" font-size="12" lengthAdjust="spacingAndGlyphs" textLength="37" x="35" y="120.5352">Coupe</text><!--class Kombi--><rect fill="#FEFECE" filter="url(#fpo1cyscl02w2)" height="32" id="Kombi" style="stroke: #A80036; stroke-width: 1.5;" width="69" x="110" y="100"/><ellipse cx="125" cy="116" fill="#ADD1B2" rx="11" ry="11" style="stroke: #A80036; stroke-width: 1.0;"/><path d="M127.9731,121.6431 Q127.3921,121.9419 126.7529,122.0913 Q126.1138,122.2407 125.4082,122.2407 Q122.9014,122.2407 121.5815,120.5889 Q120.2617,118.937 120.2617,115.8159 Q120.2617,112.6865 121.5815,111.0347 Q122.9014,109.3828 125.4082,109.3828 Q126.1138,109.3828 126.7612,109.5322 Q127.4087,109.6816 127.9731,109.9805 L127.9731,112.7031 Q127.3423,112.1221 126.7488,111.8523 Q126.1553,111.5825 125.5244,111.5825 Q124.1797,111.5825 123.4949,112.6492 Q122.8101,113.7158 122.8101,115.8159 Q122.8101,117.9077 123.4949,118.9744 Q124.1797,120.041 125.5244,120.041 Q126.1553,120.041 126.7488,119.7712 Q127.3423,119.5015 127.9731,118.9204 Z "/><text fill="#000000" font-family="sans-serif" font-size="12" lengthAdjust="spacingAndGlyphs" textLength="37" x="139" y="120.5352">Kombi</text><!--class Limousine--><rect fill="#FEFECE" filter="url(#fpo1cyscl02w2)" height="32" id="Limousine" style="stroke: #A80036; stroke-width: 1.5;" width="89" x="214" y="100"/><ellipse cx="229" cy="116" fill="#ADD1B2" rx="11" ry="11" style="stroke: #A80036; stroke-width: 1.0;"/><path d="M231.9731,121.6431 Q231.3921,121.9419 230.7529,122.0913 Q230.1138,122.2407 229.4082,122.2407 Q226.9014,122.2407 225.5815,120.5889 Q224.2617,118.937 224.2617,115.8159 Q224.2617,112.6865 225.5815,111.0347 Q226.9014,109.3828 229.4082,109.3828 Q230.1138,109.3828 230.7612,109.5322 Q231.4087,109.6816 231.9731,109.9805 L231.9731,112.7031 Q231.3423,112.1221 230.7488,111.8523 Q230.1553,111.5825 229.5244,111.5825 Q228.1797,111.5825 227.4949,112.6492 Q226.8101,113.7158 226.8101,115.8159 Q226.8101,117.9077 227.4949,118.9744 Q228.1797,120.041 229.5244,120.041 Q230.1553,120.041 230.7488,119.7712 Q231.3423,119.5015 231.9731,118.9204 Z "/><text fill="#000000" font-family="sans-serif" font-size="12" lengthAdjust="spacingAndGlyphs" textLength="57" x="243" y="120.5352">Limousine</text><!--link Auto to Coupe--><path d="M111.2946,53.374 C93.8937,68.7671 73.2484,87.0303 58.7568,99.8498 " fill="none" id="Auto-Coupe" style="stroke: #A80036; stroke-width: 1.0;"/><polygon fill="none" points="106.7666,48.0337,126.3846,40.0252,116.0427,58.5197,106.7666,48.0337" style="stroke: #A80036; stroke-width: 1.0;"/><!--link Auto to Kombi--><path d="M144.5,60.4048 C144.5,74.0788 144.5,88.9368 144.5,99.8498 " fill="none" id="Auto-Kombi" style="stroke: #A80036; stroke-width: 1.0;"/><polygon fill="none" points="137.5001,60.0252,144.5,40.0252,151.5001,60.0251,137.5001,60.0252" style="stroke: #A80036; stroke-width: 1.0;"/><!--link Auto to Limousine--><path d="M180.0204,52.6656 C199.2744,68.2039 222.3584,86.8331 238.4878,99.8498 " fill="none" id="Auto-Limousine" style="stroke: #A80036; stroke-width: 1.0;"/><polygon fill="none" points="175.5251,58.033,164.3573,40.0252,184.3174,47.1382,175.5251,58.033" style="stroke: #A80036; stroke-width: 1.0;"/><!--
@startuml
hide member

Auto <|- - Coupe
Auto <|- - Kombi
Auto <|- - Limousine

@enduml

PlantUML version 1.2018.09(Fri Jul 27 18:58:18 CEST 2018)
(GPL source distribution)
Java Runtime: OpenJDK Runtime Environment
JVM: OpenJDK 64-Bit Server VM
Java Version: 1.8.0_152-release-1248-b8
Operating System: Mac OS X
OS Version: 10.13.6
Default Encoding: UTF-8
Language: de
Country: DE
--></g></svg>