<?xml version="1.0" encoding="UTF-8" standalone="no"?><svg xmlns="http://www.w3.org/2000/svg" xmlns:xlink="http://www.w3.org/1999/xlink" contentScriptType="application/ecmascript" contentStyleType="text/css" height="362px" preserveAspectRatio="none" style="width:572px;height:362px;" version="1.1" viewBox="0 0 572 362" width="572px" zoomAndPan="magnify"><defs><filter height="300%" id="f4w9qi0h1kul3" width="300%" x="-1" y="-1"><feGaussianBlur result="blurOut" stdDeviation="2.0"/><feColorMatrix in="blurOut" result="blurOut2" type="matrix" values="0 0 0 0 0 0 0 0 0 0 0 0 0 0 0 0 0 0 .4 0"/><feOffset dx="4.0" dy="4.0" in="blurOut2" result="blurOut3"/><feBlend in="SourceGraphic" in2="blurOut3" mode="normal"/></filter></defs><g><!--class Client--><rect fill="#FEFECE" filter="url(#f4w9qi0h1kul3)" height="24.1328" id="Client" style="stroke: #A80036; stroke-width: 1.5;" width="38" x="373" y="8"/><text fill="#000000" font-family="sans-serif" font-size="12" lengthAdjust="spacingAndGlyphs" textLength="32" x="376" y="24.6016">Client</text><!--class Directory--><rect fill="#FEFECE" filter="url(#f4w9qi0h1kul3)" height="99.8203" id="Directory" style="stroke: #A80036; stroke-width: 1.5;" width="218" x="283" y="92"/><ellipse cx="361.75" cy="108" fill="#ADD1B2" rx="11" ry="11" style="stroke: #A80036; stroke-width: 1.0;"/><path d="M364.7231,113.6431 Q364.1421,113.9419 363.5029,114.0913 Q362.8638,114.2407 362.1582,114.2407 Q359.6514,114.2407 358.3315,112.5889 Q357.0117,110.937 357.0117,107.8159 Q357.0117,104.6865 358.3315,103.0347 Q359.6514,101.3828 362.1582,101.3828 Q362.8638,101.3828 363.5112,101.5322 Q364.1587,101.6816 364.7231,101.9805 L364.7231,104.7031 Q364.0923,104.1221 363.4988,103.8523 Q362.9053,103.5825 362.2744,103.5825 Q360.9297,103.5825 360.2449,104.6492 Q359.5601,105.7158 359.5601,107.8159 Q359.5601,109.9077 360.2449,110.9744 Q360.9297,112.041 362.2744,112.041 Q362.9053,112.041 363.4988,111.7712 Q364.0923,111.5015 364.7231,110.9204 Z "/><text fill="#000000" font-family="sans-serif" font-size="12" lengthAdjust="spacingAndGlyphs" textLength="52" x="382.25" y="112.5352">Directory</text><line style="stroke: #A80036; stroke-width: 1.5;" x1="284" x2="500" y1="124" y2="124"/><ellipse cx="294" cy="135.9775" fill="none" rx="3" ry="3" style="stroke: #038048; stroke-width: 1.0;"/><text fill="#000000" font-family="sans-serif" font-size="11" lengthAdjust="spacingAndGlyphs" textLength="192" x="303" y="138.6348">containedFiles : [Directory|File|Link]</text><line style="stroke: #A80036; stroke-width: 1.5;" x1="284" x2="500" y1="144.9551" y2="144.9551"/><ellipse cx="294" cy="156.9326" fill="#84BE84" rx="3" ry="3" style="stroke: #038048; stroke-width: 1.0;"/><text fill="#000000" font-family="sans-serif" font-size="11" lengthAdjust="spacingAndGlyphs" textLength="96" x="303" y="159.5898">getName() : string</text><ellipse cx="294" cy="169.8877" fill="#84BE84" rx="3" ry="3" style="stroke: #038048; stroke-width: 1.0;"/><text fill="#000000" font-family="sans-serif" font-size="11" lengthAdjust="spacingAndGlyphs" textLength="168" x="303" y="172.5449">getParentDirectory() : Directory</text><ellipse cx="294" cy="182.8428" fill="#84BE84" rx="3" ry="3" style="stroke: #038048; stroke-width: 1.0;"/><text fill="#000000" font-family="sans-serif" font-size="11" lengthAdjust="spacingAndGlyphs" textLength="82" x="303" y="185.5">getDate() : Date</text><!--class File--><rect fill="#FEFECE" filter="url(#f4w9qi0h1kul3)" height="86.8652" id="File" style="stroke: #A80036; stroke-width: 1.5;" width="194" x="54" y="98.5"/><ellipse cx="137.25" cy="114.5" fill="#ADD1B2" rx="11" ry="11" style="stroke: #A80036; stroke-width: 1.0;"/><path d="M140.2231,120.1431 Q139.6421,120.4419 139.0029,120.5913 Q138.3638,120.7407 137.6582,120.7407 Q135.1514,120.7407 133.8315,119.0889 Q132.5117,117.437 132.5117,114.3159 Q132.5117,111.1865 133.8315,109.5347 Q135.1514,107.8828 137.6582,107.8828 Q138.3638,107.8828 139.0112,108.0322 Q139.6587,108.1816 140.2231,108.4805 L140.2231,111.2031 Q139.5923,110.6221 138.9988,110.3523 Q138.4053,110.0825 137.7744,110.0825 Q136.4297,110.0825 135.7449,111.1492 Q135.0601,112.2158 135.0601,114.3159 Q135.0601,116.4077 135.7449,117.4744 Q136.4297,118.541 137.7744,118.541 Q138.4053,118.541 138.9988,118.2712 Q139.5923,118.0015 140.2231,117.4204 Z "/><text fill="#000000" font-family="sans-serif" font-size="12" lengthAdjust="spacingAndGlyphs" textLength="19" x="157.75" y="119.0352">File</text><line style="stroke: #A80036; stroke-width: 1.5;" x1="55" x2="247" y1="130.5" y2="130.5"/><line style="stroke: #A80036; stroke-width: 1.5;" x1="55" x2="247" y1="138.5" y2="138.5"/><ellipse cx="65" cy="150.4775" fill="#84BE84" rx="3" ry="3" style="stroke: #038048; stroke-width: 1.0;"/><text fill="#000000" font-family="sans-serif" font-size="11" lengthAdjust="spacingAndGlyphs" textLength="96" x="74" y="153.1348">getName() : string</text><ellipse cx="65" cy="163.4326" fill="#84BE84" rx="3" ry="3" style="stroke: #038048; stroke-width: 1.0;"/><text fill="#000000" font-family="sans-serif" font-size="11" lengthAdjust="spacingAndGlyphs" textLength="168" x="74" y="166.0898">getParentDirectory() : Directory</text><ellipse cx="65" cy="176.3877" fill="#84BE84" rx="3" ry="3" style="stroke: #038048; stroke-width: 1.0;"/><text fill="#000000" font-family="sans-serif" font-size="11" lengthAdjust="spacingAndGlyphs" textLength="69" x="74" y="179.0449">getSize() : int</text><!--class Image--><rect fill="#FEFECE" filter="url(#f4w9qi0h1kul3)" height="60.9551" id="Image" style="stroke: #A80036; stroke-width: 1.5;" width="94" x="6" y="271.5"/><ellipse cx="33.15" cy="287.5" fill="#ADD1B2" rx="11" ry="11" style="stroke: #A80036; stroke-width: 1.0;"/><path d="M36.1231,293.1431 Q35.5421,293.4419 34.9029,293.5913 Q34.2638,293.7407 33.5582,293.7407 Q31.0514,293.7407 29.7315,292.0889 Q28.4117,290.437 28.4117,287.3159 Q28.4117,284.1865 29.7315,282.5347 Q31.0514,280.8828 33.5582,280.8828 Q34.2638,280.8828 34.9112,281.0322 Q35.5587,281.1816 36.1231,281.4805 L36.1231,284.2031 Q35.4923,283.6221 34.8988,283.3523 Q34.3053,283.0825 33.6744,283.0825 Q32.3297,283.0825 31.6449,284.1492 Q30.9601,285.2158 30.9601,287.3159 Q30.9601,289.4077 31.6449,290.4744 Q32.3297,291.541 33.6744,291.541 Q34.3053,291.541 34.8988,291.2712 Q35.4923,291.0015 36.1231,290.4204 Z "/><text fill="#000000" font-family="sans-serif" font-size="12" lengthAdjust="spacingAndGlyphs" textLength="35" x="49.85" y="292.0352">Image</text><line style="stroke: #A80036; stroke-width: 1.5;" x1="7" x2="99" y1="303.5" y2="303.5"/><line style="stroke: #A80036; stroke-width: 1.5;" x1="7" x2="99" y1="311.5" y2="311.5"/><ellipse cx="17" cy="323.4775" fill="#84BE84" rx="3" ry="3" style="stroke: #038048; stroke-width: 1.0;"/><text fill="#000000" font-family="sans-serif" font-size="11" lengthAdjust="spacingAndGlyphs" textLength="68" x="26" y="326.1348">getContent()</text><!--class Text--><rect fill="#FEFECE" filter="url(#f4w9qi0h1kul3)" height="60.9551" id="Text" style="stroke: #A80036; stroke-width: 1.5;" width="94" x="135" y="271.5"/><ellipse cx="166.2" cy="287.5" fill="#ADD1B2" rx="11" ry="11" style="stroke: #A80036; stroke-width: 1.0;"/><path d="M169.1731,293.1431 Q168.5921,293.4419 167.9529,293.5913 Q167.3138,293.7407 166.6082,293.7407 Q164.1014,293.7407 162.7815,292.0889 Q161.4617,290.437 161.4617,287.3159 Q161.4617,284.1865 162.7815,282.5347 Q164.1014,280.8828 166.6082,280.8828 Q167.3138,280.8828 167.9612,281.0322 Q168.6087,281.1816 169.1731,281.4805 L169.1731,284.2031 Q168.5423,283.6221 167.9488,283.3523 Q167.3553,283.0825 166.7244,283.0825 Q165.3797,283.0825 164.6949,284.1492 Q164.0101,285.2158 164.0101,287.3159 Q164.0101,289.4077 164.6949,290.4744 Q165.3797,291.541 166.7244,291.541 Q167.3553,291.541 167.9488,291.2712 Q168.5423,291.0015 169.1731,290.4204 Z "/><text fill="#000000" font-family="sans-serif" font-size="12" lengthAdjust="spacingAndGlyphs" textLength="26" x="183.8" y="292.0352">Text</text><line style="stroke: #A80036; stroke-width: 1.5;" x1="136" x2="228" y1="303.5" y2="303.5"/><line style="stroke: #A80036; stroke-width: 1.5;" x1="136" x2="228" y1="311.5" y2="311.5"/><ellipse cx="146" cy="323.4775" fill="#84BE84" rx="3" ry="3" style="stroke: #038048; stroke-width: 1.0;"/><text fill="#000000" font-family="sans-serif" font-size="11" lengthAdjust="spacingAndGlyphs" textLength="68" x="155" y="326.1348">getContent()</text><!--class Link--><rect fill="#FEFECE" filter="url(#f4w9qi0h1kul3)" height="99.8203" id="Link" style="stroke: #A80036; stroke-width: 1.5;" width="195" x="294.5" y="252"/><ellipse cx="376.25" cy="268" fill="#ADD1B2" rx="11" ry="11" style="stroke: #A80036; stroke-width: 1.0;"/><path d="M379.2231,273.6431 Q378.6421,273.9419 378.0029,274.0913 Q377.3638,274.2407 376.6582,274.2407 Q374.1514,274.2407 372.8315,272.5889 Q371.5117,270.937 371.5117,267.8159 Q371.5117,264.6865 372.8315,263.0347 Q374.1514,261.3828 376.6582,261.3828 Q377.3638,261.3828 378.0112,261.5322 Q378.6587,261.6816 379.2231,261.9805 L379.2231,264.7031 Q378.5923,264.1221 377.9988,263.8523 Q377.4053,263.5825 376.7744,263.5825 Q375.4297,263.5825 374.7449,264.6492 Q374.0601,265.7158 374.0601,267.8159 Q374.0601,269.9077 374.7449,270.9744 Q375.4297,272.041 376.7744,272.041 Q377.4053,272.041 377.9988,271.7712 Q378.5923,271.5015 379.2231,270.9204 Z "/><text fill="#000000" font-family="sans-serif" font-size="12" lengthAdjust="spacingAndGlyphs" textLength="23" x="396.75" y="272.5352">Link</text><line style="stroke: #A80036; stroke-width: 1.5;" x1="295.5" x2="488.5" y1="284" y2="284"/><line style="stroke: #A80036; stroke-width: 1.5;" x1="295.5" x2="488.5" y1="292" y2="292"/><ellipse cx="305.5" cy="303.9775" fill="#84BE84" rx="3" ry="3" style="stroke: #038048; stroke-width: 1.0;"/><text fill="#000000" font-family="sans-serif" font-size="11" lengthAdjust="spacingAndGlyphs" textLength="168" x="314.5" y="306.6348">getParentDirectory() : Directory</text><ellipse cx="305.5" cy="316.9326" fill="#84BE84" rx="3" ry="3" style="stroke: #038048; stroke-width: 1.0;"/><text fill="#000000" font-family="sans-serif" font-size="11" lengthAdjust="spacingAndGlyphs" textLength="105" x="314.5" y="319.5898">getTargetFile() : File</text><ellipse cx="305.5" cy="329.8877" fill="#84BE84" rx="3" ry="3" style="stroke: #038048; stroke-width: 1.0;"/><text fill="#000000" font-family="sans-serif" font-size="11" lengthAdjust="spacingAndGlyphs" textLength="169" x="314.5" y="332.5449">getTargetDirectory() : Directory</text><ellipse cx="305.5" cy="342.8428" fill="#84BE84" rx="3" ry="3" style="stroke: #038048; stroke-width: 1.0;"/><text fill="#000000" font-family="sans-serif" font-size="11" lengthAdjust="spacingAndGlyphs" textLength="140" x="314.5" y="345.5">isFileOrDirectory() : String</text><!--link Client to Directory--><path d="M392,32.1439 C392,45.0342 392,66.3245 392,86.7478 " fill="none" id="Client-Directory" style="stroke: #A80036; stroke-width: 1.0;"/><polygon fill="#A80036" points="392,91.9158,396,82.9158,392,86.9158,388,82.9158,392,91.9158" style="stroke: #A80036; stroke-width: 1.0;"/><!--link Client to File--><path d="M372.6853,29.7775 C344.3355,44.1289 289.615,71.8298 241.636,96.1179 " fill="none" id="Client-File" style="stroke: #A80036; stroke-width: 1.0;"/><polygon fill="#A80036" points="237.0151,98.4571,246.8514,97.9606,241.476,96.1987,243.2379,90.8232,237.0151,98.4571" style="stroke: #A80036; stroke-width: 1.0;"/><!--link Client to Link--><path d="M411.1041,22.9856 C443.6629,29.2172 509.0844,46.9708 537,92 C560.418,129.7744 556.7669,152.1932 537,192 C526.0253,214.101 508.253,232.9543 488.8516,248.4848 " fill="none" id="Client-Link" style="stroke: #A80036; stroke-width: 1.0;"/><polygon fill="#A80036" points="484.4239,251.9515,493.9762,249.5528,488.3608,248.8692,489.0444,243.2538,484.4239,251.9515" style="stroke: #A80036; stroke-width: 1.0;"/><!--link Directory to Directory--><path d="M506.3742,121.0892 C524.0046,124.2484 536,131.2187 536,142 C536,153.7949 521.6431,161.0285 501.2573,163.7008 " fill="none" id="Directory-Directory" style="stroke: #A80036; stroke-width: 1.0;"/><polygon fill="#A80036" points="501.2573,120.2992,509.5415,125.6258,506.1987,121.0622,510.7623,117.7195,501.2573,120.2992" style="stroke: #A80036; stroke-width: 1.0;"/><text fill="#000000" font-family="sans-serif" font-size="13" lengthAdjust="spacingAndGlyphs" textLength="6" x="509.1504" y="115.8316">*</text><text fill="#000000" font-family="sans-serif" font-size="13" lengthAdjust="spacingAndGlyphs" textLength="6" x="509.1504" y="162.2849">*</text><!--link Link to Directory--><path d="M404.9174,246.5698 C405.7805,228.901 405.6846,209.4613 404.6297,192.186 " fill="none" id="Link-Directory" style="stroke: #A80036; stroke-width: 1.0;"/><polygon fill="#A80036" points="404.6188,251.9921,409.1077,243.2257,404.8938,246.9997,401.1199,242.7857,404.6188,251.9921" style="stroke: #A80036; stroke-width: 1.0;"/><text fill="#000000" font-family="sans-serif" font-size="13" lengthAdjust="spacingAndGlyphs" textLength="6" x="400.0316" y="241.15">*</text><text fill="#000000" font-family="sans-serif" font-size="13" lengthAdjust="spacingAndGlyphs" textLength="6" x="399.9237" y="212.5389">*</text><!--link Directory to Link--><path d="M379.7918,197.6124 C378.9829,215.2934 379.0797,234.7317 380.0823,251.9921 " fill="none" id="Directory-Link" style="stroke: #A80036; stroke-width: 1.0;"/><polygon fill="#A80036" points="380.072,192.186,375.6132,200.9677,379.8141,197.1793,383.6025,201.3803,380.072,192.186" style="stroke: #A80036; stroke-width: 1.0;"/><text fill="#000000" font-family="sans-serif" font-size="13" lengthAdjust="spacingAndGlyphs" textLength="24" x="352.8567" y="212.5389">0..1</text><text fill="#000000" font-family="sans-serif" font-size="13" lengthAdjust="spacingAndGlyphs" textLength="6" x="371.8913" y="241.15">*</text><!--link File to Directory--><path d="M253.555,142 C263.3449,142 273.1348,142 282.9247,142 " fill="none" id="File-Directory" style="stroke: #A80036; stroke-width: 1.0;"/><polygon fill="#A80036" points="248.4355,142,257.4355,146,253.4355,142,257.4355,138,248.4355,142" style="stroke: #A80036; stroke-width: 1.0;"/><text fill="#000000" font-family="sans-serif" font-size="13" lengthAdjust="spacingAndGlyphs" textLength="6" x="256.1251" y="139.0112">*</text><text fill="#000000" font-family="sans-serif" font-size="13" lengthAdjust="spacingAndGlyphs" textLength="6" x="269.0444" y="139.0583">*</text><!--link File to Link--><path d="M220.9268,188.4244 C250.9462,208.3543 286.0814,231.6806 316.6743,251.9912 " fill="none" id="File-Link" style="stroke: #A80036; stroke-width: 1.0;"/><polygon fill="#A80036" points="216.536,185.5094,221.8215,193.8198,220.7015,188.275,226.2464,187.155,216.536,185.5094" style="stroke: #A80036; stroke-width: 1.0;"/><text fill="#000000" font-family="sans-serif" font-size="13" lengthAdjust="spacingAndGlyphs" textLength="24" x="200.7337" y="205.9227">0..1</text><text fill="#000000" font-family="sans-serif" font-size="13" lengthAdjust="spacingAndGlyphs" textLength="6" x="299.1702" y="241.149">*</text><!--link File to Image--><path d="M113.6921,202.9108 C99.4544,226.1561 83.818,251.6849 71.9825,271.0081 " fill="none" id="File-Image" style="stroke: #A80036; stroke-width: 1.0;"/><polygon fill="none" points="107.8055,199.1196,124.2211,185.7207,119.7441,206.432,107.8055,199.1196" style="stroke: #A80036; stroke-width: 1.0;"/><!--link File to Text--><path d="M163.3333,205.6555 C167.6913,228.1488 172.3983,252.4427 175.9953,271.0081 " fill="none" id="File-Text" style="stroke: #A80036; stroke-width: 1.0;"/><polygon fill="none" points="156.403,206.6871,159.4709,185.7207,170.1474,204.024,156.403,206.6871" style="stroke: #A80036; stroke-width: 1.0;"/><!--
@startuml
hide Client member
hide Client circle

class Client

class Directory {
    + containedFiles : [Directory|File|Link]

    + getName() : string
    + getParentDirectory() : Directory
    + getDate() : Date
}

class File {
    + getName() : string
    + getParentDirectory() : Directory
    + getSize() : int
}

class Image {
    + getContent()
}

class Text {
    + getContent()
}

class Link {
    + getParentDirectory() : Directory
    + getTargetFile() : File
    + getTargetDirectory() : Directory
    + isFileOrDirectory() : String
}

Directory <-down- Client
File <-down- Client
Link <-down- Client
Directory "*" <- - "*" Directory
Link "*" <- - "*" Directory
File "*" <-left- "*" Directory

File "0..1" <- - "*" Link
Directory "0..1" <- - "*" Link

File <|- - Image
File <|- - Text


@enduml

PlantUML version 1.2018.09(Fri Jul 27 18:58:18 CEST 2018)
(GPL source distribution)
Java Runtime: OpenJDK Runtime Environment
JVM: OpenJDK 64-Bit Server VM
Java Version: 1.8.0_152-release-1248-b8
Operating System: Mac OS X
OS Version: 10.13.6
Default Encoding: UTF-8
Language: de
Country: DE
--></g></svg>