<?xml version="1.0" encoding="UTF-8" standalone="no"?><svg xmlns="http://www.w3.org/2000/svg" xmlns:xlink="http://www.w3.org/1999/xlink" contentScriptType="application/ecmascript" contentStyleType="text/css" height="226px" preserveAspectRatio="none" style="width:448px;height:226px;" version="1.1" viewBox="0 0 448 226" width="448px" zoomAndPan="magnify"><defs><filter height="300%" id="f1s8qtx5v5q0ed" width="300%" x="-1" y="-1"><feGaussianBlur result="blurOut" stdDeviation="2.0"/><feColorMatrix in="blurOut" result="blurOut2" type="matrix" values="0 0 0 0 0 0 0 0 0 0 0 0 0 0 0 0 0 0 .4 0"/><feOffset dx="4.0" dy="4.0" in="blurOut2" result="blurOut3"/><feBlend in="SourceGraphic" in2="blurOut3" mode="normal"/></filter></defs><g><!--class Vorstand--><rect fill="#FEFECE" filter="url(#f1s8qtx5v5q0ed)" height="73.9102" id="Vorstand" style="stroke: #A80036; stroke-width: 1.5;" width="120" x="6" y="8"/><ellipse cx="37.2" cy="24" fill="#ADD1B2" rx="11" ry="11" style="stroke: #A80036; stroke-width: 1.0;"/><path d="M40.1731,29.6431 Q39.5921,29.9419 38.9529,30.0913 Q38.3138,30.2407 37.6082,30.2407 Q35.1014,30.2407 33.7815,28.5889 Q32.4617,26.937 32.4617,23.8159 Q32.4617,20.6865 33.7815,19.0347 Q35.1014,17.3828 37.6082,17.3828 Q38.3138,17.3828 38.9612,17.5322 Q39.6087,17.6816 40.1731,17.9805 L40.1731,20.7031 Q39.5423,20.1221 38.9488,19.8523 Q38.3553,19.5825 37.7244,19.5825 Q36.3797,19.5825 35.6949,20.6492 Q35.0101,21.7158 35.0101,23.8159 Q35.0101,25.9077 35.6949,26.9744 Q36.3797,28.041 37.7244,28.041 Q38.3553,28.041 38.9488,27.7712 Q39.5423,27.5015 40.1731,26.9204 Z "/><text fill="#000000" font-family="sans-serif" font-size="12" lengthAdjust="spacingAndGlyphs" textLength="52" x="54.8" y="28.5352">Vorstand</text><line style="stroke: #A80036; stroke-width: 1.5;" x1="7" x2="125" y1="40" y2="40"/><line style="stroke: #A80036; stroke-width: 1.5;" x1="7" x2="125" y1="48" y2="48"/><ellipse cx="17" cy="59.9775" fill="#84BE84" rx="3" ry="3" style="stroke: #038048; stroke-width: 1.0;"/><text fill="#000000" font-family="sans-serif" font-size="11" lengthAdjust="spacingAndGlyphs" textLength="55" x="26" y="62.6348">getName()</text><ellipse cx="17" cy="72.9326" fill="#84BE84" rx="3" ry="3" style="stroke: #038048; stroke-width: 1.0;"/><text fill="#000000" font-family="sans-serif" font-size="11" lengthAdjust="spacingAndGlyphs" textLength="94" x="26" y="75.5898">getUntergebene()</text><!--class Bereichsleiter--><rect fill="#FEFECE" filter="url(#f1s8qtx5v5q0ed)" height="73.9102" id="Bereichsleiter" style="stroke: #A80036; stroke-width: 1.5;" width="120" x="161" y="8"/><ellipse cx="180.95" cy="24" fill="#ADD1B2" rx="11" ry="11" style="stroke: #A80036; stroke-width: 1.0;"/><path d="M183.9231,29.6431 Q183.3421,29.9419 182.7029,30.0913 Q182.0638,30.2407 181.3582,30.2407 Q178.8514,30.2407 177.5315,28.5889 Q176.2117,26.937 176.2117,23.8159 Q176.2117,20.6865 177.5315,19.0347 Q178.8514,17.3828 181.3582,17.3828 Q182.0638,17.3828 182.7112,17.5322 Q183.3587,17.6816 183.9231,17.9805 L183.9231,20.7031 Q183.2923,20.1221 182.6988,19.8523 Q182.1053,19.5825 181.4744,19.5825 Q180.1297,19.5825 179.4449,20.6492 Q178.7601,21.7158 178.7601,23.8159 Q178.7601,25.9077 179.4449,26.9744 Q180.1297,28.041 181.4744,28.041 Q182.1053,28.041 182.6988,27.7712 Q183.2923,27.5015 183.9231,26.9204 Z "/><text fill="#000000" font-family="sans-serif" font-size="12" lengthAdjust="spacingAndGlyphs" textLength="77" x="196.05" y="28.5352">Bereichsleiter</text><line style="stroke: #A80036; stroke-width: 1.5;" x1="162" x2="280" y1="40" y2="40"/><line style="stroke: #A80036; stroke-width: 1.5;" x1="162" x2="280" y1="48" y2="48"/><ellipse cx="172" cy="59.9775" fill="#84BE84" rx="3" ry="3" style="stroke: #038048; stroke-width: 1.0;"/><text fill="#000000" font-family="sans-serif" font-size="11" lengthAdjust="spacingAndGlyphs" textLength="55" x="181" y="62.6348">getName()</text><ellipse cx="172" cy="72.9326" fill="#84BE84" rx="3" ry="3" style="stroke: #038048; stroke-width: 1.0;"/><text fill="#000000" font-family="sans-serif" font-size="11" lengthAdjust="spacingAndGlyphs" textLength="94" x="181" y="75.5898">getUntergebene()</text><!--class Abteilungsleiter--><rect fill="#FEFECE" filter="url(#f1s8qtx5v5q0ed)" height="73.9102" id="Abteilungsleiter" style="stroke: #A80036; stroke-width: 1.5;" width="121" x="316.5" y="8"/><ellipse cx="331.5" cy="24" fill="#ADD1B2" rx="11" ry="11" style="stroke: #A80036; stroke-width: 1.0;"/><path d="M334.4731,29.6431 Q333.8921,29.9419 333.2529,30.0913 Q332.6138,30.2407 331.9082,30.2407 Q329.4014,30.2407 328.0815,28.5889 Q326.7617,26.937 326.7617,23.8159 Q326.7617,20.6865 328.0815,19.0347 Q329.4014,17.3828 331.9082,17.3828 Q332.6138,17.3828 333.2612,17.5322 Q333.9087,17.6816 334.4731,17.9805 L334.4731,20.7031 Q333.8423,20.1221 333.2488,19.8523 Q332.6553,19.5825 332.0244,19.5825 Q330.6797,19.5825 329.9949,20.6492 Q329.3101,21.7158 329.3101,23.8159 Q329.3101,25.9077 329.9949,26.9744 Q330.6797,28.041 332.0244,28.041 Q332.6553,28.041 333.2488,27.7712 Q333.8423,27.5015 334.4731,26.9204 Z "/><text fill="#000000" font-family="sans-serif" font-size="12" lengthAdjust="spacingAndGlyphs" textLength="89" x="345.5" y="28.5352">Abteilungsleiter</text><line style="stroke: #A80036; stroke-width: 1.5;" x1="317.5" x2="436.5" y1="40" y2="40"/><line style="stroke: #A80036; stroke-width: 1.5;" x1="317.5" x2="436.5" y1="48" y2="48"/><ellipse cx="327.5" cy="59.9775" fill="#84BE84" rx="3" ry="3" style="stroke: #038048; stroke-width: 1.0;"/><text fill="#000000" font-family="sans-serif" font-size="11" lengthAdjust="spacingAndGlyphs" textLength="55" x="336.5" y="62.6348">getName()</text><ellipse cx="327.5" cy="72.9326" fill="#84BE84" rx="3" ry="3" style="stroke: #038048; stroke-width: 1.0;"/><text fill="#000000" font-family="sans-serif" font-size="11" lengthAdjust="spacingAndGlyphs" textLength="94" x="336.5" y="75.5898">getUntergebene()</text><!--class Teamleiter--><rect fill="#FEFECE" filter="url(#f1s8qtx5v5q0ed)" height="73.9102" id="Teamleiter" style="stroke: #A80036; stroke-width: 1.5;" width="120" x="6" y="142"/><ellipse cx="32.7" cy="158" fill="#ADD1B2" rx="11" ry="11" style="stroke: #A80036; stroke-width: 1.0;"/><path d="M35.6731,163.6431 Q35.0921,163.9419 34.4529,164.0913 Q33.8138,164.2407 33.1082,164.2407 Q30.6014,164.2407 29.2815,162.5889 Q27.9617,160.937 27.9617,157.8159 Q27.9617,154.6865 29.2815,153.0347 Q30.6014,151.3828 33.1082,151.3828 Q33.8138,151.3828 34.4612,151.5322 Q35.1087,151.6816 35.6731,151.9805 L35.6731,154.7031 Q35.0423,154.1221 34.4488,153.8523 Q33.8553,153.5825 33.2244,153.5825 Q31.8797,153.5825 31.1949,154.6492 Q30.5101,155.7158 30.5101,157.8159 Q30.5101,159.9077 31.1949,160.9744 Q31.8797,162.041 33.2244,162.041 Q33.8553,162.041 34.4488,161.7712 Q35.0423,161.5015 35.6731,160.9204 Z "/><text fill="#000000" font-family="sans-serif" font-size="12" lengthAdjust="spacingAndGlyphs" textLength="62" x="49.3" y="162.5352">Teamleiter</text><line style="stroke: #A80036; stroke-width: 1.5;" x1="7" x2="125" y1="174" y2="174"/><line style="stroke: #A80036; stroke-width: 1.5;" x1="7" x2="125" y1="182" y2="182"/><ellipse cx="17" cy="193.9775" fill="#84BE84" rx="3" ry="3" style="stroke: #038048; stroke-width: 1.0;"/><text fill="#000000" font-family="sans-serif" font-size="11" lengthAdjust="spacingAndGlyphs" textLength="55" x="26" y="196.6348">getName()</text><ellipse cx="17" cy="206.9326" fill="#84BE84" rx="3" ry="3" style="stroke: #038048; stroke-width: 1.0;"/><text fill="#000000" font-family="sans-serif" font-size="11" lengthAdjust="spacingAndGlyphs" textLength="94" x="26" y="209.5898">getUntergebene()</text><!--class Angestellter--><rect fill="#FEFECE" filter="url(#f1s8qtx5v5q0ed)" height="73.9102" id="Angestellter" style="stroke: #A80036; stroke-width: 1.5;" width="120" x="161" y="142"/><ellipse cx="185" cy="158" fill="#ADD1B2" rx="11" ry="11" style="stroke: #A80036; stroke-width: 1.0;"/><path d="M187.9731,163.6431 Q187.3921,163.9419 186.7529,164.0913 Q186.1138,164.2407 185.4082,164.2407 Q182.9014,164.2407 181.5815,162.5889 Q180.2617,160.937 180.2617,157.8159 Q180.2617,154.6865 181.5815,153.0347 Q182.9014,151.3828 185.4082,151.3828 Q186.1138,151.3828 186.7612,151.5322 Q187.4087,151.6816 187.9731,151.9805 L187.9731,154.7031 Q187.3423,154.1221 186.7488,153.8523 Q186.1553,153.5825 185.5244,153.5825 Q184.1797,153.5825 183.4949,154.6492 Q182.8101,155.7158 182.8101,157.8159 Q182.8101,159.9077 183.4949,160.9744 Q184.1797,162.041 185.5244,162.041 Q186.1553,162.041 186.7488,161.7712 Q187.3423,161.5015 187.9731,160.9204 Z "/><text fill="#000000" font-family="sans-serif" font-size="12" lengthAdjust="spacingAndGlyphs" textLength="68" x="201" y="162.5352">Angestellter</text><line style="stroke: #A80036; stroke-width: 1.5;" x1="162" x2="280" y1="174" y2="174"/><line style="stroke: #A80036; stroke-width: 1.5;" x1="162" x2="280" y1="182" y2="182"/><ellipse cx="172" cy="193.9775" fill="#84BE84" rx="3" ry="3" style="stroke: #038048; stroke-width: 1.0;"/><text fill="#000000" font-family="sans-serif" font-size="11" lengthAdjust="spacingAndGlyphs" textLength="55" x="181" y="196.6348">getName()</text><ellipse cx="172" cy="206.9326" fill="#84BE84" rx="3" ry="3" style="stroke: #038048; stroke-width: 1.0;"/><text fill="#000000" font-family="sans-serif" font-size="11" lengthAdjust="spacingAndGlyphs" textLength="94" x="181" y="209.5898">getUntergebene()</text><!--link Vorstand to Bereichsleiter--><!--link Bereichsleiter to Abteilungsleiter--><!--link Vorstand to Teamleiter--><!--link Teamleiter to Angestellter--><!--
@startuml

class Vorstand {
    + getName()
    + getUntergebene()
}
class Bereichsleiter{
    + getName()
    + getUntergebene()
}
class Abteilungsleiter{
  + getName()
  + getUntergebene()
}
class Teamleiter{
    + getName()
    + getUntergebene()
}
class Angestellter{
  + getName()
  + getUntergebene()
}

@enduml

PlantUML version 1.2018.09(Fri Jul 27 18:58:18 CEST 2018)
(GPL source distribution)
Java Runtime: OpenJDK Runtime Environment
JVM: OpenJDK 64-Bit Server VM
Java Version: 1.8.0_152-release-1248-b8
Operating System: Mac OS X
OS Version: 10.13.6
Default Encoding: UTF-8
Language: de
Country: DE
--></g></svg>