<?xml version="1.0" encoding="UTF-8" standalone="no"?><svg xmlns="http://www.w3.org/2000/svg" xmlns:xlink="http://www.w3.org/1999/xlink" contentScriptType="application/ecmascript" contentStyleType="text/css" height="335px" preserveAspectRatio="none" style="width:203px;height:335px;" version="1.1" viewBox="0 0 203 335" width="203px" zoomAndPan="magnify"><defs><filter height="300%" id="f1xgztrsy77va4" width="300%" x="-1" y="-1"><feGaussianBlur result="blurOut" stdDeviation="2.0"/><feColorMatrix in="blurOut" result="blurOut2" type="matrix" values="0 0 0 0 0 0 0 0 0 0 0 0 0 0 0 0 0 0 .4 0"/><feOffset dx="4.0" dy="4.0" in="blurOut2" result="blurOut3"/><feBlend in="SourceGraphic" in2="blurOut3" mode="normal"/></filter></defs><g><rect fill="#FEFECE" filter="url(#f1xgztrsy77va4)" height="34.1328" style="stroke: #A80036; stroke-width: 1.5;" width="83" x="77.5" y="8"/><text fill="#000000" font-family="sans-serif" font-size="12" lengthAdjust="spacingAndGlyphs" textLength="69" x="84.5" y="21.6016">Composite1</text><line style="stroke: #A80036; stroke-width: 1.5;" x1="78.5" x2="159.5" y1="26.1328" y2="26.1328"/><rect fill="#FEFECE" filter="url(#f1xgztrsy77va4)" height="34.1328" style="stroke: #A80036; stroke-width: 1.5;" width="83" x="27.5" y="102"/><text fill="#000000" font-family="sans-serif" font-size="12" lengthAdjust="spacingAndGlyphs" textLength="69" x="34.5" y="115.6016">Composite2</text><line style="stroke: #A80036; stroke-width: 1.5;" x1="28.5" x2="109.5" y1="120.1328" y2="120.1328"/><rect fill="#FEFECE" filter="url(#f1xgztrsy77va4)" height="34.1328" style="stroke: #A80036; stroke-width: 1.5;" width="83" x="27.5" y="196"/><text fill="#000000" font-family="sans-serif" font-size="12" lengthAdjust="spacingAndGlyphs" textLength="69" x="34.5" y="209.6016">Composite3</text><line style="stroke: #A80036; stroke-width: 1.5;" x1="28.5" x2="109.5" y1="214.1328" y2="214.1328"/><rect fill="#FEFECE" filter="url(#f1xgztrsy77va4)" height="34.1328" style="stroke: #A80036; stroke-width: 1.5;" width="46" x="146" y="102"/><text fill="#000000" font-family="sans-serif" font-size="12" lengthAdjust="spacingAndGlyphs" textLength="32" x="153" y="115.6016">Leaf1</text><line style="stroke: #A80036; stroke-width: 1.5;" x1="147" x2="191" y1="120.1328" y2="120.1328"/><rect fill="#FEFECE" filter="url(#f1xgztrsy77va4)" height="34.1328" style="stroke: #A80036; stroke-width: 1.5;" width="46" x="6" y="290"/><text fill="#000000" font-family="sans-serif" font-size="12" lengthAdjust="spacingAndGlyphs" textLength="32" x="13" y="303.6016">Leaf2</text><line style="stroke: #A80036; stroke-width: 1.5;" x1="7" x2="51" y1="308.1328" y2="308.1328"/><rect fill="#FEFECE" filter="url(#f1xgztrsy77va4)" height="34.1328" style="stroke: #A80036; stroke-width: 1.5;" width="46" x="87" y="290"/><text fill="#000000" font-family="sans-serif" font-size="12" lengthAdjust="spacingAndGlyphs" textLength="32" x="94" y="303.6016">Leaf3</text><line style="stroke: #A80036; stroke-width: 1.5;" x1="88" x2="132" y1="308.1328" y2="308.1328"/><!--link c1 to c2--><path d="M94,47.241 C94,47.241 94,101.8683 94,101.8683 " fill="none" id="c1-c2" style="stroke: #A80036; stroke-width: 1.0;"/><polygon fill="#A80036" points="94,42.241,90,51.241,94,47.241,98,51.241,94,42.241" style="stroke: #A80036; stroke-width: 1.0;"/><!--link c1 to l1--><path d="M153.25,47.241 C153.25,47.241 153.25,101.8683 153.25,101.8683 " fill="none" id="c1-l1" style="stroke: #A80036; stroke-width: 1.0;"/><polygon fill="#A80036" points="153.25,42.241,149.25,51.241,153.25,47.241,157.25,51.241,153.25,42.241" style="stroke: #A80036; stroke-width: 1.0;"/><!--link c2 to c3--><path d="M69,141.241 C69,141.241 69,195.8683 69,195.8683 " fill="none" id="c2-c3" style="stroke: #A80036; stroke-width: 1.0;"/><polygon fill="#A80036" points="69,136.241,65,145.241,69,141.241,73,145.241,69,136.241" style="stroke: #A80036; stroke-width: 1.0;"/><!--link c3 to l2--><path d="M39.75,235.241 C39.75,235.241 39.75,289.8683 39.75,289.8683 " fill="none" id="c3-l2" style="stroke: #A80036; stroke-width: 1.0;"/><polygon fill="#A80036" points="39.75,230.241,35.75,239.241,39.75,235.241,43.75,239.241,39.75,230.241" style="stroke: #A80036; stroke-width: 1.0;"/><!--link c3 to l3--><path d="M98.75,235.241 C98.75,235.241 98.75,289.8683 98.75,289.8683 " fill="none" id="c3-l3" style="stroke: #A80036; stroke-width: 1.0;"/><polygon fill="#A80036" points="98.75,230.241,94.75,239.241,98.75,235.241,102.75,239.241,98.75,230.241" style="stroke: #A80036; stroke-width: 1.0;"/><!--
@startuml
hide member

skinparam linetype ortho

object "Composite1" as c1
object "Composite2" as c2
object "Composite3" as c3
object "Leaf1" as l1
object "Leaf2" as l2
object "Leaf3" as l3

c1 <- - c2
c1 <- - l1
c2 <- - c3
c3 <- - l2
c3 <- - l3


@enduml

PlantUML version 1.2018.09(Fri Jul 27 18:58:18 CEST 2018)
(GPL source distribution)
Java Runtime: OpenJDK Runtime Environment
JVM: OpenJDK 64-Bit Server VM
Java Version: 1.8.0_152-release-1248-b8
Operating System: Mac OS X
OS Version: 10.13.6
Default Encoding: UTF-8
Language: de
Country: DE
--></g></svg>