<?xml version="1.0" encoding="UTF-8" standalone="no"?><svg xmlns="http://www.w3.org/2000/svg" xmlns:xlink="http://www.w3.org/1999/xlink" contentScriptType="application/ecmascript" contentStyleType="text/css" height="226px" preserveAspectRatio="none" style="width:571px;height:226px;" version="1.1" viewBox="0 0 571 226" width="571px" zoomAndPan="magnify"><defs><filter height="300%" id="f1dy9s13wuch7z" width="300%" x="-1" y="-1"><feGaussianBlur result="blurOut" stdDeviation="2.0"/><feColorMatrix in="blurOut" result="blurOut2" type="matrix" values="0 0 0 0 0 0 0 0 0 0 0 0 0 0 0 0 0 0 .4 0"/><feOffset dx="4.0" dy="4.0" in="blurOut2" result="blurOut3"/><feBlend in="SourceGraphic" in2="blurOut3" mode="normal"/></filter></defs><g><!--class Pilot--><rect fill="#FEFECE" filter="url(#f1dy9s13wuch7z)" height="60.9551" id="Pilot" style="stroke: #A80036; stroke-width: 1.5;" width="115" x="223.5" y="155"/><ellipse cx="265.05" cy="171" fill="#ADD1B2" rx="11" ry="11" style="stroke: #A80036; stroke-width: 1.0;"/><path d="M268.0231,176.6431 Q267.4421,176.9419 266.8029,177.0913 Q266.1638,177.2407 265.4582,177.2407 Q262.9514,177.2407 261.6315,175.5889 Q260.3117,173.937 260.3117,170.8159 Q260.3117,167.6865 261.6315,166.0347 Q262.9514,164.3828 265.4582,164.3828 Q266.1638,164.3828 266.8112,164.5322 Q267.4587,164.6816 268.0231,164.9805 L268.0231,167.7031 Q267.3923,167.1221 266.7988,166.8523 Q266.2053,166.5825 265.5744,166.5825 Q264.2297,166.5825 263.5449,167.6492 Q262.8601,168.7158 262.8601,170.8159 Q262.8601,172.9077 263.5449,173.9744 Q264.2297,175.041 265.5744,175.041 Q266.2053,175.041 266.7988,174.7712 Q267.3923,174.5015 268.0231,173.9204 Z "/><text fill="#000000" font-family="sans-serif" font-size="12" lengthAdjust="spacingAndGlyphs" textLength="24" x="284.95" y="175.5352">Pilot</text><line style="stroke: #A80036; stroke-width: 1.5;" x1="224.5" x2="337.5" y1="187" y2="187"/><line style="stroke: #A80036; stroke-width: 1.5;" x1="224.5" x2="337.5" y1="195" y2="195"/><ellipse cx="234.5" cy="206.9775" fill="#84BE84" rx="3" ry="3" style="stroke: #038048; stroke-width: 1.0;"/><text fill="#000000" font-family="sans-serif" font-size="11" lengthAdjust="spacingAndGlyphs" textLength="89" x="243.5" y="209.6348">fliegeZuZiel(Ziel)</text><!--class Triebwerk--><rect fill="#FEFECE" filter="url(#f1dy9s13wuch7z)" height="73.9102" id="Triebwerk" style="stroke: #A80036; stroke-width: 1.5;" width="154" x="6" y="14.5"/><ellipse cx="49.35" cy="30.5" fill="#ADD1B2" rx="11" ry="11" style="stroke: #A80036; stroke-width: 1.0;"/><path d="M52.3231,36.1431 Q51.7421,36.4419 51.1029,36.5913 Q50.4638,36.7407 49.7582,36.7407 Q47.2514,36.7407 45.9315,35.0889 Q44.6117,33.437 44.6117,30.3159 Q44.6117,27.1865 45.9315,25.5347 Q47.2514,23.8828 49.7582,23.8828 Q50.4638,23.8828 51.1112,24.0322 Q51.7587,24.1816 52.3231,24.4805 L52.3231,27.2031 Q51.6923,26.6221 51.0988,26.3523 Q50.5053,26.0825 49.8744,26.0825 Q48.5297,26.0825 47.8449,27.1492 Q47.1601,28.2158 47.1601,30.3159 Q47.1601,32.4077 47.8449,33.4744 Q48.5297,34.541 49.8744,34.541 Q50.5053,34.541 51.0988,34.2712 Q51.6923,34.0015 52.3231,33.4204 Z "/><text fill="#000000" font-family="sans-serif" font-size="12" lengthAdjust="spacingAndGlyphs" textLength="59" x="69.65" y="35.0352">Triebwerk</text><line style="stroke: #A80036; stroke-width: 1.5;" x1="7" x2="159" y1="46.5" y2="46.5"/><line style="stroke: #A80036; stroke-width: 1.5;" x1="7" x2="159" y1="54.5" y2="54.5"/><ellipse cx="17" cy="66.4775" fill="#84BE84" rx="3" ry="3" style="stroke: #038048; stroke-width: 1.0;"/><text fill="#000000" font-family="sans-serif" font-size="11" lengthAdjust="spacingAndGlyphs" textLength="128" x="26" y="69.1348">beschleunigeFlugzeug()</text><ellipse cx="17" cy="79.4326" fill="#84BE84" rx="3" ry="3" style="stroke: #038048; stroke-width: 1.0;"/><text fill="#000000" font-family="sans-serif" font-size="11" lengthAdjust="spacingAndGlyphs" textLength="127" x="26" y="82.0898">drosselklappenWarten()</text><!--class Höhenruder--><rect fill="#FEFECE" filter="url(#f1dy9s13wuch7z)" height="73.9102" id="Höhenruder" style="stroke: #A80036; stroke-width: 1.5;" width="171" x="195.5" y="14.5"/><ellipse cx="242.25" cy="30.5" fill="#ADD1B2" rx="11" ry="11" style="stroke: #A80036; stroke-width: 1.0;"/><path d="M245.2231,36.1431 Q244.6421,36.4419 244.0029,36.5913 Q243.3638,36.7407 242.6582,36.7407 Q240.1514,36.7407 238.8315,35.0889 Q237.5117,33.437 237.5117,30.3159 Q237.5117,27.1865 238.8315,25.5347 Q240.1514,23.8828 242.6582,23.8828 Q243.3638,23.8828 244.0112,24.0322 Q244.6587,24.1816 245.2231,24.4805 L245.2231,27.2031 Q244.5923,26.6221 243.9988,26.3523 Q243.4053,26.0825 242.7744,26.0825 Q241.4297,26.0825 240.7449,27.1492 Q240.0601,28.2158 240.0601,30.3159 Q240.0601,32.4077 240.7449,33.4744 Q241.4297,34.541 242.7744,34.541 Q243.4053,34.541 243.9988,34.2712 Q244.5923,34.0015 245.2231,33.4204 Z "/><text fill="#000000" font-family="sans-serif" font-size="12" lengthAdjust="spacingAndGlyphs" textLength="69" x="262.75" y="35.0352">Höhenruder</text><line style="stroke: #A80036; stroke-width: 1.5;" x1="196.5" x2="365.5" y1="46.5" y2="46.5"/><line style="stroke: #A80036; stroke-width: 1.5;" x1="196.5" x2="365.5" y1="54.5" y2="54.5"/><ellipse cx="206.5" cy="66.4775" fill="#84BE84" rx="3" ry="3" style="stroke: #038048; stroke-width: 1.0;"/><text fill="#000000" font-family="sans-serif" font-size="11" lengthAdjust="spacingAndGlyphs" textLength="86" x="215.5" y="69.1348">neigeFlugzeug()</text><ellipse cx="206.5" cy="79.4326" fill="#84BE84" rx="3" ry="3" style="stroke: #038048; stroke-width: 1.0;"/><text fill="#000000" font-family="sans-serif" font-size="11" lengthAdjust="spacingAndGlyphs" textLength="145" x="215.5" y="82.0898">wartungsklappeEntfernen()</text><!--class Funk--><rect fill="#FEFECE" filter="url(#f1dy9s13wuch7z)" height="86.8652" id="Funk" style="stroke: #A80036; stroke-width: 1.5;" width="159" x="401.5" y="8"/><ellipse cx="463.25" cy="24" fill="#ADD1B2" rx="11" ry="11" style="stroke: #A80036; stroke-width: 1.0;"/><path d="M466.2231,29.6431 Q465.6421,29.9419 465.0029,30.0913 Q464.3638,30.2407 463.6582,30.2407 Q461.1514,30.2407 459.8315,28.5889 Q458.5117,26.937 458.5117,23.8159 Q458.5117,20.6865 459.8315,19.0347 Q461.1514,17.3828 463.6582,17.3828 Q464.3638,17.3828 465.0112,17.5322 Q465.6587,17.6816 466.2231,17.9805 L466.2231,20.7031 Q465.5923,20.1221 464.9988,19.8523 Q464.4053,19.5825 463.7744,19.5825 Q462.4297,19.5825 461.7449,20.6492 Q461.0601,21.7158 461.0601,23.8159 Q461.0601,25.9077 461.7449,26.9744 Q462.4297,28.041 463.7744,28.041 Q464.4053,28.041 464.9988,27.7712 Q465.5923,27.5015 466.2231,26.9204 Z "/><text fill="#000000" font-family="sans-serif" font-size="12" lengthAdjust="spacingAndGlyphs" textLength="27" x="483.75" y="28.5352">Funk</text><line style="stroke: #A80036; stroke-width: 1.5;" x1="402.5" x2="559.5" y1="40" y2="40"/><line style="stroke: #A80036; stroke-width: 1.5;" x1="402.5" x2="559.5" y1="48" y2="48"/><ellipse cx="412.5" cy="59.9775" fill="#84BE84" rx="3" ry="3" style="stroke: #038048; stroke-width: 1.0;"/><text fill="#000000" font-family="sans-serif" font-size="11" lengthAdjust="spacingAndGlyphs" textLength="129" x="421.5" y="62.6348">starterlaubnisEinholen()</text><ellipse cx="412.5" cy="72.9326" fill="#84BE84" rx="3" ry="3" style="stroke: #038048; stroke-width: 1.0;"/><text fill="#000000" font-family="sans-serif" font-size="11" lengthAdjust="spacingAndGlyphs" textLength="133" x="421.5" y="75.5898">landeerlaubnisEinholen()</text><ellipse cx="412.5" cy="85.8877" fill="#84BE84" rx="3" ry="3" style="stroke: #038048; stroke-width: 1.0;"/><text fill="#000000" font-family="sans-serif" font-size="11" lengthAdjust="spacingAndGlyphs" textLength="97" x="421.5" y="88.5449">antenneErsetzen()</text><!--link Triebwerk to Pilot--><path d="M142.2659,91.6093 C172.2148,111.8777 207.9802,136.0826 235.6956,154.8394 " fill="none" id="Triebwerk-Pilot" style="stroke: #A80036; stroke-width: 1.0;"/><polygon fill="#A80036" points="137.8911,88.6485,143.1027,97.0055,142.0319,91.4509,147.5865,90.3802,137.8911,88.6485" style="stroke: #A80036; stroke-width: 1.0;"/><!--link Höhenruder to Pilot--><path d="M281,94.0241 C281,113.7267 281,136.7032 281,154.6999 " fill="none" id="Höhenruder-Pilot" style="stroke: #A80036; stroke-width: 1.0;"/><polygon fill="#A80036" points="281,88.8265,277,97.8265,281,93.8265,285,97.8265,281,88.8265" style="stroke: #A80036; stroke-width: 1.0;"/><!--link Funk to Pilot--><path d="M411.5836,98.009 C383.4558,116.8546 351.7559,138.0935 326.6333,154.9257 " fill="none" id="Funk-Pilot" style="stroke: #A80036; stroke-width: 1.0;"/><polygon fill="#A80036" points="416.0657,95.006,406.3623,96.6926,411.9119,97.7891,410.8153,103.3387,416.0657,95.006" style="stroke: #A80036; stroke-width: 1.0;"/><!--
@startuml

class Pilot {
    + fliegeZuZiel(Ziel)
}

class Triebwerk {
    + beschleunigeFlugzeug()
    + drosselklappenWarten()
}

class Höhenruder {
    + neigeFlugzeug()
    + wartungsklappeEntfernen()
}

class Funk {
    + starterlaubnisEinholen()
    + landeerlaubnisEinholen()
    + antenneErsetzen()
}

Triebwerk <- - Pilot
Höhenruder <- - Pilot
Funk <- - Pilot
@enduml

PlantUML version 1.2018.09(Fri Jul 27 18:58:18 CEST 2018)
(GPL source distribution)
Java Runtime: OpenJDK Runtime Environment
JVM: OpenJDK 64-Bit Server VM
Java Version: 1.8.0_152-release-1248-b8
Operating System: Mac OS X
OS Version: 10.13.6
Default Encoding: UTF-8
Language: de
Country: DE
--></g></svg>