<?xml version="1.0" encoding="UTF-8" standalone="no"?><svg xmlns="http://www.w3.org/2000/svg" xmlns:xlink="http://www.w3.org/1999/xlink" contentScriptType="application/ecmascript" contentStyleType="text/css" height="330px" preserveAspectRatio="none" style="width:566px;height:330px;" version="1.1" viewBox="0 0 566 330" width="566px" zoomAndPan="magnify"><defs><filter height="300%" id="f1al1d2ly8e51z" width="300%" x="-1" y="-1"><feGaussianBlur result="blurOut" stdDeviation="2.0"/><feColorMatrix in="blurOut" result="blurOut2" type="matrix" values="0 0 0 0 0 0 0 0 0 0 0 0 0 0 0 0 0 0 .4 0"/><feOffset dx="4.0" dy="4.0" in="blurOut2" result="blurOut3"/><feBlend in="SourceGraphic" in2="blurOut3" mode="normal"/></filter></defs><g><!--cluster GenericWebshop--><polygon fill="#DDDDDD" filter="url(#f1al1d2ly8e51z)" points="14,16,138,16,145,38.4883,379,38.4883,379,243,14,243,14,16" style="stroke: #000000; stroke-width: 1.5;"/><line style="stroke: #000000; stroke-width: 1.5;" x1="14" x2="145" y1="38.4883" y2="38.4883"/><text fill="#000000" font-family="sans-serif" font-size="14" font-weight="bold" lengthAdjust="spacingAndGlyphs" textLength="118" x="18" y="31.5352">GenericWebshop</text><!--class Client1--><rect fill="#FEFECE" filter="url(#f1al1d2ly8e51z)" height="24.1328" id="Client1" style="stroke: #A80036; stroke-width: 1.5;" width="46" x="271" y="295"/><text fill="#000000" font-family="sans-serif" font-size="12" lengthAdjust="spacingAndGlyphs" textLength="40" x="274" y="311.6016">Client1</text><!--class Client2--><rect fill="#FEFECE" filter="url(#f1al1d2ly8e51z)" height="24.1328" id="Client2" style="stroke: #A80036; stroke-width: 1.5;" width="46" x="352" y="295"/><text fill="#000000" font-family="sans-serif" font-size="12" lengthAdjust="spacingAndGlyphs" textLength="40" x="355" y="311.6016">Client2</text><!--class Client3--><rect fill="#FEFECE" filter="url(#f1al1d2ly8e51z)" height="24.1328" id="Client3" style="stroke: #A80036; stroke-width: 1.5;" width="46" x="433" y="295"/><text fill="#000000" font-family="sans-serif" font-size="12" lengthAdjust="spacingAndGlyphs" textLength="40" x="436" y="311.6016">Client3</text><!--class GenericWebshop.Fulfillment--><rect fill="#FEFECE" filter="url(#f1al1d2ly8e51z)" height="24.1328" id="GenericWebshop.Fulfillment" style="stroke: #A80036; stroke-width: 1.5;" width="64" x="22" y="211"/><text fill="#000000" font-family="sans-serif" font-size="12" lengthAdjust="spacingAndGlyphs" textLength="58" x="25" y="227.6016">Fulfillment</text><!--class GenericWebshop.Billing--><rect fill="#FEFECE" filter="url(#f1al1d2ly8e51z)" height="24.1328" id="GenericWebshop.Billing" style="stroke: #A80036; stroke-width: 1.5;" width="39" x="143.5" y="127"/><text fill="#000000" font-family="sans-serif" font-size="12" lengthAdjust="spacingAndGlyphs" textLength="33" x="146.5" y="143.6016">Billing</text><!--class GenericWebshop.Shipping--><rect fill="#FEFECE" filter="url(#f1al1d2ly8e51z)" height="24.1328" id="GenericWebshop.Shipping" style="stroke: #A80036; stroke-width: 1.5;" width="55" x="217.5" y="127"/><text fill="#000000" font-family="sans-serif" font-size="12" lengthAdjust="spacingAndGlyphs" textLength="49" x="220.5" y="143.6016">Shipping</text><!--class GenericWebshop.Marketing--><rect fill="#FEFECE" filter="url(#f1al1d2ly8e51z)" height="24.1328" id="GenericWebshop.Marketing" style="stroke: #A80036; stroke-width: 1.5;" width="63" x="307.5" y="127"/><text fill="#000000" font-family="sans-serif" font-size="12" lengthAdjust="spacingAndGlyphs" textLength="57" x="310.5" y="143.6016">Marketing</text><!--class GenericWebshop.BusinessIntelligence--><rect fill="#FEFECE" filter="url(#f1al1d2ly8e51z)" height="24.1328" id="GenericWebshop.BusinessIntelligence" style="stroke: #A80036; stroke-width: 1.5;" width="119" x="121.5" y="211"/><text fill="#000000" font-family="sans-serif" font-size="12" lengthAdjust="spacingAndGlyphs" textLength="113" x="124.5" y="227.6016">BusinessIntelligence</text><!--class GenericWebshop.Finance--><rect fill="#FEFECE" filter="url(#f1al1d2ly8e51z)" height="24.1328" id="GenericWebshop.Finance" style="stroke: #A80036; stroke-width: 1.5;" width="49" x="59.5" y="127"/><text fill="#000000" font-family="sans-serif" font-size="12" lengthAdjust="spacingAndGlyphs" textLength="43" x="62.5" y="143.6016">Finance</text><!--class GenericWebshop.InformationTechnology--><rect fill="#FEFECE" filter="url(#f1al1d2ly8e51z)" height="24.1328" id="GenericWebshop.InformationTechnology" style="stroke: #A80036; stroke-width: 1.5;" width="136" x="95" y="43"/><text fill="#000000" font-family="sans-serif" font-size="12" lengthAdjust="spacingAndGlyphs" textLength="130" x="98" y="59.6016">InformationTechnology</text><!--link GenericWebshop.Fulfillment to Client1--><path d="M83.2419,235.0129 C90.029,237.713 97.2442,240.5132 104,243 C163.6127,264.9433 234.7912,288.1259 270.7493,299.6289 " fill="none" id="GenericWebshop.Fulfillment-Client1" style="stroke: #A80036; stroke-width: 1.0;"/><!--link GenericWebshop.Billing to Client1--><path d="M182.7425,149.4471 C204.0276,161.6256 237.5939,183.622 258,211 C277.5729,237.2602 287.6074,275.3651 291.7036,294.7219 " fill="none" id="GenericWebshop.Billing-Client1" style="stroke: #A80036; stroke-width: 1.0;"/><!--link GenericWebshop.Billing to Client2--><path d="M182.8479,147.2844 C209.574,159.0171 257.8308,182.2774 293,211 C324.407,236.65 353.2441,275.362 366.8239,294.8621 " fill="none" id="GenericWebshop.Billing-Client2" style="stroke: #A80036; stroke-width: 1.0;"/><!--link GenericWebshop.Shipping to Client2--><path d="M272.7324,148.6753 C311.215,162.7282 377.6056,189.46 391,211 C407.4174,237.4015 391.9692,275.4446 381.9809,294.7554 " fill="none" id="GenericWebshop.Shipping-Client2" style="stroke: #A80036; stroke-width: 1.0;"/><!--link GenericWebshop.Shipping to Client3--><path d="M272.6818,147.395 C316.4361,161.1428 398.7963,189.1165 420,211 C443.0387,234.7773 451.6034,274.6809 454.5647,294.7255 " fill="none" id="GenericWebshop.Shipping-Client3" style="stroke: #A80036; stroke-width: 1.0;"/><!--link GenericWebshop.Marketing to Client3--><path d="M370.7065,146.1501 C420.6596,158.1292 513.9742,183.6451 533,211 C554.959,242.5723 507.9705,277.207 478.1358,294.9887 " fill="none" id="GenericWebshop.Marketing-Client3" style="stroke: #A80036; stroke-width: 1.0;"/><!--link GenericWebshop.BusinessIntelligence to Client3--><path d="M237.5471,235.0827 C285.7796,246.1692 356.5488,264.2981 416,287 C421.9477,289.2712 428.1892,292.1394 433.926,294.9891 " fill="none" id="GenericWebshop.BusinessIntelligence-Client3" style="stroke: #A80036; stroke-width: 1.0;"/><!--link GenericWebshop.Billing to GenericWebshop.Fulfillment--><path d="M147.383,151.0352 C126.6621,167.0035 90.2944,195.03 69.5881,210.9872 " fill="none" id="GenericWebshop.Billing-GenericWebshop.Fulfillment" style="stroke: #A80036; stroke-width: 1.0;"/><!--link GenericWebshop.Finance to GenericWebshop.BusinessIntelligence--><path d="M97.8977,151.0352 C116.3374,167.0035 148.7013,195.03 167.128,210.9872 " fill="none" id="GenericWebshop.Finance-GenericWebshop.BusinessIntelligence" style="stroke: #A80036; stroke-width: 1.0;"/><!--link GenericWebshop.InformationTechnology to GenericWebshop.Billing--><path d="M163,67.0352 C163,83.0035 163,111.03 163,126.9872 " fill="none" id="GenericWebshop.InformationTechnology-GenericWebshop.Billing" style="stroke: #A80036; stroke-width: 1.0;"/><!--link GenericWebshop.InformationTechnology to GenericWebshop.Fulfillment--><path d="M122.8897,67.0523 C94.7591,77.8403 59.2179,96.7192 42,127 C26.7239,153.8659 39.6064,191.7058 48.0612,210.8656 " fill="none" id="GenericWebshop.InformationTechnology-GenericWebshop.Fulfillment" style="stroke: #A80036; stroke-width: 1.0;"/><!--link GenericWebshop.InformationTechnology to GenericWebshop.Finance--><path d="M151.6812,67.0352 C136.6633,83.0035 110.3051,111.03 95.2978,126.9872 " fill="none" id="GenericWebshop.InformationTechnology-GenericWebshop.Finance" style="stroke: #A80036; stroke-width: 1.0;"/><!--link GenericWebshop.InformationTechnology to GenericWebshop.Shipping--><path d="M174.7486,67.0352 C190.3368,83.0035 217.696,111.03 233.2732,126.9872 " fill="none" id="GenericWebshop.InformationTechnology-GenericWebshop.Shipping" style="stroke: #A80036; stroke-width: 1.0;"/><!--link GenericWebshop.InformationTechnology to GenericWebshop.Marketing--><path d="M188.2165,67.0352 C221.6741,83.0035 280.3963,111.03 313.8303,126.9872 " fill="none" id="GenericWebshop.InformationTechnology-GenericWebshop.Marketing" style="stroke: #A80036; stroke-width: 1.0;"/><!--
@startuml

hide circle
hide methods
hide members

together {
    class Client1
    class Client2
    class Client3
}

GenericWebshop.Fulfillment - - Client1
GenericWebshop.Billing - - Client1
GenericWebshop.Billing - - Client2
GenericWebshop.Shipping - - Client2
GenericWebshop.Shipping - - Client3
GenericWebshop.Marketing - - Client3
GenericWebshop.BusinessIntelligence - - Client3

namespace GenericWebshop #DDDDDD {
    Billing - - Fulfillment
    Finance - - BusinessIntelligence

    InformationTechnology - - Billing
    InformationTechnology - - Fulfillment
    InformationTechnology - - Finance
    InformationTechnology - - Shipping
    InformationTechnology - - Marketing
}
@enduml

PlantUML version 1.2018.09(Fri Jul 27 18:58:18 CEST 2018)
(GPL source distribution)
Java Runtime: OpenJDK Runtime Environment
JVM: OpenJDK 64-Bit Server VM
Java Version: 1.8.0_152-release-1248-b8
Operating System: Mac OS X
OS Version: 10.13.6
Default Encoding: UTF-8
Language: de
Country: DE
--></g></svg>