<?xml version="1.0" encoding="UTF-8" standalone="no"?><svg xmlns="http://www.w3.org/2000/svg" xmlns:xlink="http://www.w3.org/1999/xlink" contentScriptType="application/ecmascript" contentStyleType="text/css" height="343px" preserveAspectRatio="none" style="width:369px;height:343px;" version="1.1" viewBox="0 0 369 343" width="369px" zoomAndPan="magnify"><defs><filter height="300%" id="f1r3sc5xxbrcvb" width="300%" x="-1" y="-1"><feGaussianBlur result="blurOut" stdDeviation="2.0"/><feColorMatrix in="blurOut" result="blurOut2" type="matrix" values="0 0 0 0 0 0 0 0 0 0 0 0 0 0 0 0 0 0 .4 0"/><feOffset dx="4.0" dy="4.0" in="blurOut2" result="blurOut3"/><feBlend in="SourceGraphic" in2="blurOut3" mode="normal"/></filter></defs><g><!--cluster System--><polygon fill="#DDDDDD" filter="url(#f1r3sc5xxbrcvb)" points="14,16,72,16,79,38.4883,347,38.4883,347,256,14,256,14,16" style="stroke: #000000; stroke-width: 1.5;"/><line style="stroke: #000000; stroke-width: 1.5;" x1="14" x2="79" y1="38.4883" y2="38.4883"/><text fill="#000000" font-family="sans-serif" font-size="14" font-weight="bold" lengthAdjust="spacingAndGlyphs" textLength="52" x="18" y="31.5352">System</text><!--class System.Facade--><rect fill="#FEFECE" filter="url(#f1r3sc5xxbrcvb)" height="91.9531" id="System.Facade" style="stroke: #A80036; stroke-width: 1.5;" width="57" x="251.5" y="156"/><text fill="#000000" font-family="sans-serif" font-size="12" lengthAdjust="spacingAndGlyphs" textLength="41" x="259.5" y="172.6016">Facade</text><line style="stroke: #A80036; stroke-width: 1.5;" x1="252.5" x2="307.5" y1="180.1328" y2="180.1328"/><line style="stroke: #A80036; stroke-width: 1.5;" x1="252.5" x2="307.5" y1="188.1328" y2="188.1328"/><text fill="#000000" font-family="sans-serif" font-size="11" lengthAdjust="spacingAndGlyphs" textLength="41" x="257.5" y="202.7676">create()</text><text fill="#000000" font-family="sans-serif" font-size="11" lengthAdjust="spacingAndGlyphs" textLength="32" x="257.5" y="215.7227">read()</text><text fill="#000000" font-family="sans-serif" font-size="11" lengthAdjust="spacingAndGlyphs" textLength="45" x="257.5" y="228.6777">update()</text><text fill="#000000" font-family="sans-serif" font-size="11" lengthAdjust="spacingAndGlyphs" textLength="40" x="257.5" y="241.6328">delete()</text><!--class System.Creater--><rect fill="#FEFECE" filter="url(#f1r3sc5xxbrcvb)" height="53.0879" id="System.Creater" style="stroke: #A80036; stroke-width: 1.5;" width="53" x="285.5" y="43"/><text fill="#000000" font-family="sans-serif" font-size="12" lengthAdjust="spacingAndGlyphs" textLength="43" x="290.5" y="59.6016">Creater</text><line style="stroke: #A80036; stroke-width: 1.5;" x1="286.5" x2="337.5" y1="67.1328" y2="67.1328"/><line style="stroke: #A80036; stroke-width: 1.5;" x1="286.5" x2="337.5" y1="75.1328" y2="75.1328"/><text fill="#000000" font-family="sans-serif" font-size="11" lengthAdjust="spacingAndGlyphs" textLength="41" x="291.5" y="89.7676">create()</text><!--class System.Reader--><rect fill="#FEFECE" filter="url(#f1r3sc5xxbrcvb)" height="53.0879" id="System.Reader" style="stroke: #A80036; stroke-width: 1.5;" width="48" x="202" y="43"/><text fill="#000000" font-family="sans-serif" font-size="12" lengthAdjust="spacingAndGlyphs" textLength="42" x="205" y="59.6016">Reader</text><line style="stroke: #A80036; stroke-width: 1.5;" x1="203" x2="249" y1="67.1328" y2="67.1328"/><line style="stroke: #A80036; stroke-width: 1.5;" x1="203" x2="249" y1="75.1328" y2="75.1328"/><text fill="#000000" font-family="sans-serif" font-size="11" lengthAdjust="spacingAndGlyphs" textLength="32" x="208" y="89.7676">read()</text><!--class System.Updater--><rect fill="#FEFECE" filter="url(#f1r3sc5xxbrcvb)" height="53.0879" id="System.Updater" style="stroke: #A80036; stroke-width: 1.5;" width="57" x="109.5" y="43"/><text fill="#000000" font-family="sans-serif" font-size="12" lengthAdjust="spacingAndGlyphs" textLength="47" x="114.5" y="59.6016">Updater</text><line style="stroke: #A80036; stroke-width: 1.5;" x1="110.5" x2="165.5" y1="67.1328" y2="67.1328"/><line style="stroke: #A80036; stroke-width: 1.5;" x1="110.5" x2="165.5" y1="75.1328" y2="75.1328"/><text fill="#000000" font-family="sans-serif" font-size="11" lengthAdjust="spacingAndGlyphs" textLength="45" x="115.5" y="89.7676">update()</text><!--class System.Deleter--><rect fill="#FEFECE" filter="url(#f1r3sc5xxbrcvb)" height="53.0879" id="System.Deleter" style="stroke: #A80036; stroke-width: 1.5;" width="52" x="22" y="43"/><text fill="#000000" font-family="sans-serif" font-size="12" lengthAdjust="spacingAndGlyphs" textLength="42" x="27" y="59.6016">Deleter</text><line style="stroke: #A80036; stroke-width: 1.5;" x1="23" x2="73" y1="67.1328" y2="67.1328"/><line style="stroke: #A80036; stroke-width: 1.5;" x1="23" x2="73" y1="75.1328" y2="75.1328"/><text fill="#000000" font-family="sans-serif" font-size="11" lengthAdjust="spacingAndGlyphs" textLength="40" x="28" y="89.7676">delete()</text><path d="M22,169 L22,224.9316 A0,0 0 0 0 22,224.9316 L216,224.9316 A0,0 0 0 0 216,224.9316 L216,200.9658 L255.5,198.6104 L216,192.9658 L216,179 L206,169 L22,169 A0,0 0 0 0 22,169 " fill="#FBFB77" filter="url(#f1r3sc5xxbrcvb)" style="stroke: #A80036; stroke-width: 1.0;"/><path d="M206,169 L206,179 L216,179 L206,169 " fill="#FBFB77" style="stroke: #A80036; stroke-width: 1.0;"/><text fill="#000000" font-family="sans-serif" font-size="13" lengthAdjust="spacingAndGlyphs" textLength="115" x="28" y="186.5684">function create () {</text><text fill="#000000" font-family="sans-serif" font-size="13" lengthAdjust="spacingAndGlyphs" textLength="157" x="44" y="201.8789">$this-&gt;creater-&gt;create()</text><text fill="#000000" font-family="sans-serif" font-size="13" lengthAdjust="spacingAndGlyphs" textLength="4" x="28" y="217.1895">}</text><!--class Client--><rect fill="#FEFECE" filter="url(#f1r3sc5xxbrcvb)" height="24.1328" id="Client" style="stroke: #A80036; stroke-width: 1.5;" width="38" x="261" y="308"/><text fill="#000000" font-family="sans-serif" font-size="12" lengthAdjust="spacingAndGlyphs" textLength="32" x="264" y="324.6016">Client</text><!--link System.Facade$$$LEFT to System.Facade--><!--link System.Facade to Client--><path d="M280,253.298 C280,253.298 280,307.8465 280,307.8465 " fill="none" id="System.Facade-Client" style="stroke: #A80036; stroke-width: 1.0;"/><polygon fill="#A80036" points="280,248.298,276,257.298,280,253.298,284,257.298,280,248.298" style="stroke: #A80036; stroke-width: 1.0;"/><!--link System.Creater to System.Facade--><path d="M297,101.3134 C297,101.3134 297,155.9078 297,155.9078 " fill="none" id="System.Creater-System.Facade" style="stroke: #A80036; stroke-width: 1.0;"/><polygon fill="#A80036" points="297,96.3134,293,105.3134,297,101.3134,301,105.3134,297,96.3134" style="stroke: #A80036; stroke-width: 1.0;"/><!--link System.Reader to System.Facade--><path d="M233,101.1635 C233,101.1635 233,160 233,160 C233,160 241.5206,160 251.306,160 " fill="none" id="System.Reader-System.Facade" style="stroke: #A80036; stroke-width: 1.0;"/><polygon fill="#A80036" points="233,96.1635,229,105.1635,233,101.1635,237,105.1635,233,96.1635" style="stroke: #A80036; stroke-width: 1.0;"/><!--link System.Updater to System.Facade--><path d="M138,101.0432 C138,101.0432 138,163 138,163 C138,163 209.7714,163 251.2642,163 " fill="none" id="System.Updater-System.Facade" style="stroke: #A80036; stroke-width: 1.0;"/><polygon fill="#A80036" points="138,96.0432,134,105.0432,138,101.0432,142,105.0432,138,96.0432" style="stroke: #A80036; stroke-width: 1.0;"/><!--link System.Deleter to System.Facade--><path d="M48,101.1245 C48,101.1245 48,166 48,166 C48,166 188.8944,166 251.0861,166 " fill="none" id="System.Deleter-System.Facade" style="stroke: #A80036; stroke-width: 1.0;"/><polygon fill="#A80036" points="48,96.1245,44,105.1245,48,101.1245,52,105.1245,48,96.1245" style="stroke: #A80036; stroke-width: 1.0;"/><!--
@startuml
hide circle
hide Client members

skinparam linetype ortho

class Client

class System.Facade {
    create()
    read()
    update()
    delete()
}

class System.Creater {
    create()
}

class System.Reader {
    read()
}

class System.Updater {
    update()
}

class System.Deleter {
    delete()
}

note left of System.Facade::create()
    function create () {
        $this->creater->create()
    }
end note

namespace System #DDDDDD {
    Facade <- - .Client
    Creater <- - Facade
    Reader <- - Facade
    Updater <- - Facade
    Deleter <- - Facade
}

@enduml

PlantUML version 1.2018.09(Fri Jul 27 18:58:18 CEST 2018)
(GPL source distribution)
Java Runtime: OpenJDK Runtime Environment
JVM: OpenJDK 64-Bit Server VM
Java Version: 1.8.0_152-release-1248-b8
Operating System: Mac OS X
OS Version: 10.13.6
Default Encoding: UTF-8
Language: de
Country: DE
--></g></svg>