<?xml version="1.0" encoding="UTF-8" standalone="no"?><svg xmlns="http://www.w3.org/2000/svg" xmlns:xlink="http://www.w3.org/1999/xlink" contentScriptType="application/ecmascript" contentStyleType="text/css" height="243px" preserveAspectRatio="none" style="width:202px;height:243px;" version="1.1" viewBox="0 0 202 243" width="202px" zoomAndPan="magnify"><defs><filter height="300%" id="fsg8fjxdm2nhv" width="300%" x="-1" y="-1"><feGaussianBlur result="blurOut" stdDeviation="2.0"/><feColorMatrix in="blurOut" result="blurOut2" type="matrix" values="0 0 0 0 0 0 0 0 0 0 0 0 0 0 0 0 0 0 .4 0"/><feOffset dx="4.0" dy="4.0" in="blurOut2" result="blurOut3"/><feBlend in="SourceGraphic" in2="blurOut3" mode="normal"/></filter></defs><g><!--class Client--><rect fill="#FEFECE" filter="url(#fsg8fjxdm2nhv)" height="48" id="Client" style="stroke: #A80036; stroke-width: 1.5;" width="64" x="66.5" y="8"/><ellipse cx="81.5" cy="24" fill="#ADD1B2" rx="11" ry="11" style="stroke: #A80036; stroke-width: 1.0;"/><path d="M84.4731,29.6431 Q83.8921,29.9419 83.2529,30.0913 Q82.6138,30.2407 81.9082,30.2407 Q79.4014,30.2407 78.0815,28.5889 Q76.7617,26.937 76.7617,23.8159 Q76.7617,20.6865 78.0815,19.0347 Q79.4014,17.3828 81.9082,17.3828 Q82.6138,17.3828 83.2612,17.5322 Q83.9087,17.6816 84.4731,17.9805 L84.4731,20.7031 Q83.8423,20.1221 83.2488,19.8523 Q82.6553,19.5825 82.0244,19.5825 Q80.6797,19.5825 79.9949,20.6492 Q79.3101,21.7158 79.3101,23.8159 Q79.3101,25.9077 79.9949,26.9744 Q80.6797,28.041 82.0244,28.041 Q82.6553,28.041 83.2488,27.7712 Q83.8423,27.5015 84.4731,26.9204 Z "/><text fill="#000000" font-family="sans-serif" font-size="12" lengthAdjust="spacingAndGlyphs" textLength="32" x="95.5" y="28.5352">Client</text><line style="stroke: #A80036; stroke-width: 1.5;" x1="67.5" x2="129.5" y1="40" y2="40"/><line style="stroke: #A80036; stroke-width: 1.5;" x1="67.5" x2="129.5" y1="48" y2="48"/><!--class ObjectPool--><rect fill="#FEFECE" filter="url(#fsg8fjxdm2nhv)" height="99.8203" id="ObjectPool" style="stroke: #A80036; stroke-width: 1.5;" width="185" x="6" y="133"/><ellipse cx="63.25" cy="149" fill="#ADD1B2" rx="11" ry="11" style="stroke: #A80036; stroke-width: 1.0;"/><path d="M66.2231,154.6431 Q65.6421,154.9419 65.0029,155.0913 Q64.3638,155.2407 63.6582,155.2407 Q61.1514,155.2407 59.8315,153.5889 Q58.5117,151.937 58.5117,148.8159 Q58.5117,145.6865 59.8315,144.0347 Q61.1514,142.3828 63.6582,142.3828 Q64.3638,142.3828 65.0112,142.5322 Q65.6587,142.6816 66.2231,142.9805 L66.2231,145.7031 Q65.5923,145.1221 64.9988,144.8523 Q64.4053,144.5825 63.7744,144.5825 Q62.4297,144.5825 61.7449,145.6492 Q61.0601,146.7158 61.0601,148.8159 Q61.0601,150.9077 61.7449,151.9744 Q62.4297,153.041 63.7744,153.041 Q64.4053,153.041 64.9988,152.7712 Q65.5923,152.5015 66.2231,151.9204 Z "/><text fill="#000000" font-family="sans-serif" font-size="12" lengthAdjust="spacingAndGlyphs" textLength="62" x="83.75" y="153.5352">ObjectPool</text><line style="stroke: #A80036; stroke-width: 1.5;" x1="7" x2="190" y1="165" y2="165"/><rect fill="none" height="6" style="stroke: #C82930; stroke-width: 1.0;" width="6" x="14" y="173.9775"/><text fill="#000000" font-family="sans-serif" font-size="11" lengthAdjust="spacingAndGlyphs" textLength="139" x="26" y="179.6348">reusableObjects : Object[]</text><line style="stroke: #A80036; stroke-width: 1.5;" x1="7" x2="190" y1="185.9551" y2="185.9551"/><ellipse cx="17" cy="197.9326" fill="#84BE84" rx="3" ry="3" style="stroke: #038048; stroke-width: 1.0;"/><text fill="#000000" font-family="sans-serif" font-size="11" lengthAdjust="spacingAndGlyphs" text-decoration="underline" textLength="83" x="26" y="200.5898">getObjectPool()</text><line style="stroke: #000000; stroke-width: 1.0;" x1="26" x2="109" y1="202.5898" y2="202.5898"/><ellipse cx="17" cy="210.8877" fill="#84BE84" rx="3" ry="3" style="stroke: #038048; stroke-width: 1.0;"/><text fill="#000000" font-family="sans-serif" font-size="11" lengthAdjust="spacingAndGlyphs" textLength="159" x="26" y="213.5449">getInstanceOf(String) : Object</text><ellipse cx="17" cy="223.8428" fill="#84BE84" rx="3" ry="3" style="stroke: #038048; stroke-width: 1.0;"/><text fill="#000000" font-family="sans-serif" font-size="11" lengthAdjust="spacingAndGlyphs" textLength="116" x="26" y="226.5">releaseObject(Object)</text><!--link Client to ObjectPool--><path d="M98.5,56.2608 C98.5,75.4851 98.5,103.1015 98.5,127.6509 " fill="none" id="Client-ObjectPool" style="stroke: #A80036; stroke-width: 1.0; stroke-dasharray: 7.0,7.0;"/><polygon fill="#A80036" points="98.5,132.8388,102.5,123.8388,98.5,127.8388,94.5,123.8388,98.5,132.8388" style="stroke: #A80036; stroke-width: 1.0;"/><text fill="#000000" font-family="sans-serif" font-size="13" lengthAdjust="spacingAndGlyphs" textLength="36" x="99.5" y="99.5684">«use»</text><!--
@startuml

class Client
class ObjectPool {
    - reusableObjects : Object[]
    + {static} getObjectPool()
    + getInstanceOf(String) : Object
    + releaseObject(Object)
}

Client ..> ObjectPool : <<use>>

@enduml

PlantUML version 1.2018.09(Fri Jul 27 18:58:18 CEST 2018)
(GPL source distribution)
Java Runtime: OpenJDK Runtime Environment
JVM: OpenJDK 64-Bit Server VM
Java Version: 1.8.0_152-release-1248-b8
Operating System: Mac OS X
OS Version: 10.13.6
Default Encoding: UTF-8
Language: de
Country: DE
--></g></svg>