<?xml version="1.0" encoding="UTF-8" standalone="no"?><svg xmlns="http://www.w3.org/2000/svg" xmlns:xlink="http://www.w3.org/1999/xlink" contentScriptType="application/ecmascript" contentStyleType="text/css" height="175px" preserveAspectRatio="none" style="width:354px;height:175px;" version="1.1" viewBox="0 0 354 175" width="354px" zoomAndPan="magnify"><defs><filter height="300%" id="f1up4g1cxvrq0d" width="300%" x="-1" y="-1"><feGaussianBlur result="blurOut" stdDeviation="2.0"/><feColorMatrix in="blurOut" result="blurOut2" type="matrix" values="0 0 0 0 0 0 0 0 0 0 0 0 0 0 0 0 0 0 .4 0"/><feOffset dx="4.0" dy="4.0" in="blurOut2" result="blurOut3"/><feBlend in="SourceGraphic" in2="blurOut3" mode="normal"/></filter></defs><g><!--class Controller--><rect fill="#FEFECE" filter="url(#f1up4g1cxvrq0d)" height="48" id="Controller" style="stroke: #A80036; stroke-width: 1.5;" width="88" x="75" y="8"/><ellipse cx="90" cy="24" fill="#A9DCDF" rx="11" ry="11" style="stroke: #A80036; stroke-width: 1.0;"/><path d="M90.1133,19.3481 L88.9595,24.4199 L91.2754,24.4199 Z M88.6191,17.1069 L91.6157,17.1069 L94.9609,29.5 L92.5122,29.5 L91.7485,26.437 L88.4697,26.437 L87.7227,29.5 L85.2739,29.5 Z "/><text fill="#000000" font-family="sans-serif" font-size="12" font-style="italic" lengthAdjust="spacingAndGlyphs" textLength="56" x="104" y="28.5352">Controller</text><line style="stroke: #A80036; stroke-width: 1.5;" x1="76" x2="162" y1="40" y2="40"/><line style="stroke: #A80036; stroke-width: 1.5;" x1="76" x2="162" y1="48" y2="48"/><!--class ControllerA--><rect fill="#FEFECE" filter="url(#f1up4g1cxvrq0d)" height="48" id="ControllerA" style="stroke: #A80036; stroke-width: 1.5;" width="96" x="6" y="116"/><ellipse cx="21" cy="132" fill="#ADD1B2" rx="11" ry="11" style="stroke: #A80036; stroke-width: 1.0;"/><path d="M23.9731,137.6431 Q23.3921,137.9419 22.7529,138.0913 Q22.1138,138.2407 21.4082,138.2407 Q18.9014,138.2407 17.5815,136.5889 Q16.2617,134.937 16.2617,131.8159 Q16.2617,128.6865 17.5815,127.0347 Q18.9014,125.3828 21.4082,125.3828 Q22.1138,125.3828 22.7612,125.5322 Q23.4087,125.6816 23.9731,125.9805 L23.9731,128.7031 Q23.3423,128.1221 22.7488,127.8523 Q22.1553,127.5825 21.5244,127.5825 Q20.1797,127.5825 19.4949,128.6492 Q18.8101,129.7158 18.8101,131.8159 Q18.8101,133.9077 19.4949,134.9744 Q20.1797,136.041 21.5244,136.041 Q22.1553,136.041 22.7488,135.7712 Q23.3423,135.5015 23.9731,134.9204 Z "/><text fill="#000000" font-family="sans-serif" font-size="12" lengthAdjust="spacingAndGlyphs" textLength="64" x="35" y="136.5352">ControllerA</text><line style="stroke: #A80036; stroke-width: 1.5;" x1="7" x2="101" y1="148" y2="148"/><line style="stroke: #A80036; stroke-width: 1.5;" x1="7" x2="101" y1="156" y2="156"/><!--class ControllerB--><rect fill="#FEFECE" filter="url(#f1up4g1cxvrq0d)" height="48" id="ControllerB" style="stroke: #A80036; stroke-width: 1.5;" width="95" x="137.5" y="116"/><ellipse cx="152.5" cy="132" fill="#ADD1B2" rx="11" ry="11" style="stroke: #A80036; stroke-width: 1.0;"/><path d="M155.4731,137.6431 Q154.8921,137.9419 154.2529,138.0913 Q153.6138,138.2407 152.9082,138.2407 Q150.4014,138.2407 149.0815,136.5889 Q147.7617,134.937 147.7617,131.8159 Q147.7617,128.6865 149.0815,127.0347 Q150.4014,125.3828 152.9082,125.3828 Q153.6138,125.3828 154.2612,125.5322 Q154.9087,125.6816 155.4731,125.9805 L155.4731,128.7031 Q154.8423,128.1221 154.2488,127.8523 Q153.6553,127.5825 153.0244,127.5825 Q151.6797,127.5825 150.9949,128.6492 Q150.3101,129.7158 150.3101,131.8159 Q150.3101,133.9077 150.9949,134.9744 Q151.6797,136.041 153.0244,136.041 Q153.6553,136.041 154.2488,135.7712 Q154.8423,135.5015 155.4731,134.9204 Z "/><text fill="#000000" font-family="sans-serif" font-size="12" lengthAdjust="spacingAndGlyphs" textLength="63" x="166.5" y="136.5352">ControllerB</text><line style="stroke: #A80036; stroke-width: 1.5;" x1="138.5" x2="231.5" y1="148" y2="148"/><line style="stroke: #A80036; stroke-width: 1.5;" x1="138.5" x2="231.5" y1="156" y2="156"/><!--class DatabaseConnector--><rect fill="#FEFECE" filter="url(#f1up4g1cxvrq0d)" height="48" id="DatabaseConnector" style="stroke: #A80036; stroke-width: 1.5;" width="145" x="198.5" y="8"/><ellipse cx="213.5" cy="24" fill="#ADD1B2" rx="11" ry="11" style="stroke: #A80036; stroke-width: 1.0;"/><path d="M216.4731,29.6431 Q215.8921,29.9419 215.2529,30.0913 Q214.6138,30.2407 213.9082,30.2407 Q211.4014,30.2407 210.0815,28.5889 Q208.7617,26.937 208.7617,23.8159 Q208.7617,20.6865 210.0815,19.0347 Q211.4014,17.3828 213.9082,17.3828 Q214.6138,17.3828 215.2612,17.5322 Q215.9087,17.6816 216.4731,17.9805 L216.4731,20.7031 Q215.8423,20.1221 215.2488,19.8523 Q214.6553,19.5825 214.0244,19.5825 Q212.6797,19.5825 211.9949,20.6492 Q211.3101,21.7158 211.3101,23.8159 Q211.3101,25.9077 211.9949,26.9744 Q212.6797,28.041 214.0244,28.041 Q214.6553,28.041 215.2488,27.7712 Q215.8423,27.5015 216.4731,26.9204 Z "/><text fill="#000000" font-family="sans-serif" font-size="12" lengthAdjust="spacingAndGlyphs" textLength="113" x="227.5" y="28.5352">DatabaseConnector</text><line style="stroke: #A80036; stroke-width: 1.5;" x1="199.5" x2="342.5" y1="40" y2="40"/><line style="stroke: #A80036; stroke-width: 1.5;" x1="199.5" x2="342.5" y1="48" y2="48"/><!--link Controller to ControllerA--><path d="M94.0792,73.4068 C85.4462,87.751 76.0575,103.3507 68.5386,115.8436 " fill="none" id="Controller-ControllerA" style="stroke: #A80036; stroke-width: 1.0;"/><polygon fill="none" points="88.1019,69.7635,104.4127,56.2373,100.097,76.9828,88.1019,69.7635" style="stroke: #A80036; stroke-width: 1.0;"/><!--link Controller to ControllerB--><path d="M144.3041,73.4068 C153.07,87.751 162.6032,103.3507 170.2377,115.8436 " fill="none" id="Controller-ControllerB" style="stroke: #A80036; stroke-width: 1.0;"/><polygon fill="none" points="138.2678,76.9531,133.8117,56.2373,150.2137,69.6528,138.2678,76.9531" style="stroke: #A80036; stroke-width: 1.0;"/><!--link Controller to DatabaseConnector--><path d="M163.2344,32 C173.1521,32 183.0699,32 192.9877,32 " fill="none" id="Controller-DatabaseConnector" style="stroke: #A80036; stroke-width: 1.0;"/><polygon fill="#A80036" points="198.174,32,189.174,28,193.174,32,189.174,36,198.174,32" style="stroke: #A80036; stroke-width: 1.0;"/><!--
@startuml

abstract class Controller

class ControllerA extends Controller
class ControllerB extends Controller

class DatabaseConnector

Controller -right-> DatabaseConnector

@enduml

PlantUML version 1.2018.09(Fri Jul 27 18:58:18 CEST 2018)
(GPL source distribution)
Java Runtime: OpenJDK Runtime Environment
JVM: OpenJDK 64-Bit Server VM
Java Version: 1.8.0_152-release-1248-b8
Operating System: Mac OS X
OS Version: 10.13.6
Default Encoding: UTF-8
Language: de
Country: DE
--></g></svg>