<?xml version="1.0" encoding="UTF-8" standalone="no"?><svg xmlns="http://www.w3.org/2000/svg" xmlns:xlink="http://www.w3.org/1999/xlink" contentScriptType="application/ecmascript" contentStyleType="text/css" height="332px" preserveAspectRatio="none" style="width:476px;height:332px;" version="1.1" viewBox="0 0 476 332" width="476px" zoomAndPan="magnify"><defs><filter height="300%" id="fbd1s1o91vq62" width="300%" x="-1" y="-1"><feGaussianBlur result="blurOut" stdDeviation="2.0"/><feColorMatrix in="blurOut" result="blurOut2" type="matrix" values="0 0 0 0 0 0 0 0 0 0 0 0 0 0 0 0 0 0 .4 0"/><feOffset dx="4.0" dy="4.0" in="blurOut2" result="blurOut3"/><feBlend in="SourceGraphic" in2="blurOut3" mode="normal"/></filter></defs><g><!--class Controller--><rect fill="#FEFECE" filter="url(#fbd1s1o91vq62)" height="73.9102" id="Controller" style="stroke: #A80036; stroke-width: 1.5;" width="161" x="124.5" y="139"/><ellipse cx="172.75" cy="155" fill="#A9DCDF" rx="11" ry="11" style="stroke: #A80036; stroke-width: 1.0;"/><path d="M172.8633,150.3481 L171.7095,155.4199 L174.0254,155.4199 Z M171.3691,148.1069 L174.3657,148.1069 L177.7109,160.5 L175.2622,160.5 L174.4985,157.437 L171.2197,157.437 L170.4727,160.5 L168.0239,160.5 Z "/><text fill="#000000" font-family="sans-serif" font-size="12" font-style="italic" lengthAdjust="spacingAndGlyphs" textLength="56" x="193.25" y="159.5352">Controller</text><line style="stroke: #A80036; stroke-width: 1.5;" x1="125.5" x2="284.5" y1="171" y2="171"/><rect fill="none" height="6" style="stroke: #C82930; stroke-width: 1.0;" width="6" x="132.5" y="179.9775"/><text fill="#000000" font-family="sans-serif" font-size="11" lengthAdjust="spacingAndGlyphs" textLength="135" x="144.5" y="185.6348">dbc : DatabaseConnector</text><line style="stroke: #A80036; stroke-width: 1.5;" x1="125.5" x2="284.5" y1="191.9551" y2="191.9551"/><ellipse cx="135.5" cy="203.9326" fill="#84BE84" rx="3" ry="3" style="stroke: #038048; stroke-width: 1.0;"/><text fill="#000000" font-family="sans-serif" font-size="11" lengthAdjust="spacingAndGlyphs" textLength="72" x="144.5" y="206.5898">__construct()</text><!--class ControllerA--><rect fill="#FEFECE" filter="url(#fbd1s1o91vq62)" height="48" id="ControllerA" style="stroke: #A80036; stroke-width: 1.5;" width="96" x="92" y="273"/><ellipse cx="107" cy="289" fill="#ADD1B2" rx="11" ry="11" style="stroke: #A80036; stroke-width: 1.0;"/><path d="M109.9731,294.6431 Q109.3921,294.9419 108.7529,295.0913 Q108.1138,295.2407 107.4082,295.2407 Q104.9014,295.2407 103.5815,293.5889 Q102.2617,291.937 102.2617,288.8159 Q102.2617,285.6865 103.5815,284.0347 Q104.9014,282.3828 107.4082,282.3828 Q108.1138,282.3828 108.7612,282.5322 Q109.4087,282.6816 109.9731,282.9805 L109.9731,285.7031 Q109.3423,285.1221 108.7488,284.8523 Q108.1553,284.5825 107.5244,284.5825 Q106.1797,284.5825 105.4949,285.6492 Q104.8101,286.7158 104.8101,288.8159 Q104.8101,290.9077 105.4949,291.9744 Q106.1797,293.041 107.5244,293.041 Q108.1553,293.041 108.7488,292.7712 Q109.3423,292.5015 109.9731,291.9204 Z "/><text fill="#000000" font-family="sans-serif" font-size="12" lengthAdjust="spacingAndGlyphs" textLength="64" x="121" y="293.5352">ControllerA</text><line style="stroke: #A80036; stroke-width: 1.5;" x1="93" x2="187" y1="305" y2="305"/><line style="stroke: #A80036; stroke-width: 1.5;" x1="93" x2="187" y1="313" y2="313"/><!--class ControllerB--><rect fill="#FEFECE" filter="url(#fbd1s1o91vq62)" height="48" id="ControllerB" style="stroke: #A80036; stroke-width: 1.5;" width="95" x="223.5" y="273"/><ellipse cx="238.5" cy="289" fill="#ADD1B2" rx="11" ry="11" style="stroke: #A80036; stroke-width: 1.0;"/><path d="M241.4731,294.6431 Q240.8921,294.9419 240.2529,295.0913 Q239.6138,295.2407 238.9082,295.2407 Q236.4014,295.2407 235.0815,293.5889 Q233.7617,291.937 233.7617,288.8159 Q233.7617,285.6865 235.0815,284.0347 Q236.4014,282.3828 238.9082,282.3828 Q239.6138,282.3828 240.2612,282.5322 Q240.9087,282.6816 241.4731,282.9805 L241.4731,285.7031 Q240.8423,285.1221 240.2488,284.8523 Q239.6553,284.5825 239.0244,284.5825 Q237.6797,284.5825 236.9949,285.6492 Q236.3101,286.7158 236.3101,288.8159 Q236.3101,290.9077 236.9949,291.9744 Q237.6797,293.041 239.0244,293.041 Q239.6553,293.041 240.2488,292.7712 Q240.8423,292.5015 241.4731,291.9204 Z "/><text fill="#000000" font-family="sans-serif" font-size="12" lengthAdjust="spacingAndGlyphs" textLength="63" x="252.5" y="293.5352">ControllerB</text><line style="stroke: #A80036; stroke-width: 1.5;" x1="224.5" x2="317.5" y1="305" y2="305"/><line style="stroke: #A80036; stroke-width: 1.5;" x1="224.5" x2="317.5" y1="313" y2="313"/><!--class DatabaseConnector--><rect fill="#FEFECE" filter="url(#fbd1s1o91vq62)" height="48" id="DatabaseConnector" style="stroke: #A80036; stroke-width: 1.5;" width="145" x="320.5" y="152"/><ellipse cx="335.5" cy="168" fill="#ADD1B2" rx="11" ry="11" style="stroke: #A80036; stroke-width: 1.0;"/><path d="M338.4731,173.6431 Q337.8921,173.9419 337.2529,174.0913 Q336.6138,174.2407 335.9082,174.2407 Q333.4014,174.2407 332.0815,172.5889 Q330.7617,170.937 330.7617,167.8159 Q330.7617,164.6865 332.0815,163.0347 Q333.4014,161.3828 335.9082,161.3828 Q336.6138,161.3828 337.2612,161.5322 Q337.9087,161.6816 338.4731,161.9805 L338.4731,164.7031 Q337.8423,164.1221 337.2488,163.8523 Q336.6553,163.5825 336.0244,163.5825 Q334.6797,163.5825 333.9949,164.6492 Q333.3101,165.7158 333.3101,167.8159 Q333.3101,169.9077 333.9949,170.9744 Q334.6797,172.041 336.0244,172.041 Q336.6553,172.041 337.2488,171.7712 Q337.8423,171.5015 338.4731,170.9204 Z "/><text fill="#000000" font-family="sans-serif" font-size="12" lengthAdjust="spacingAndGlyphs" textLength="113" x="349.5" y="172.5352">DatabaseConnector</text><line style="stroke: #A80036; stroke-width: 1.5;" x1="321.5" x2="464.5" y1="184" y2="184"/><line style="stroke: #A80036; stroke-width: 1.5;" x1="321.5" x2="464.5" y1="192" y2="192"/><path d="M6,8 L6,79.2422 A0,0 0 0 0 6,79.2422 L201,79.2422 L205,138.54 L209,79.2422 L404,79.2422 A0,0 0 0 0 404,79.2422 L404,18 L394,8 L6,8 A0,0 0 0 0 6,8 " fill="#FBFB77" filter="url(#fbd1s1o91vq62)" style="stroke: #A80036; stroke-width: 1.0;"/><path d="M394,8 L394,18 L404,18 L394,8 " fill="#FBFB77" style="stroke: #A80036; stroke-width: 1.0;"/><text fill="#000000" font-family="sans-serif" font-size="13" lengthAdjust="spacingAndGlyphs" textLength="143" x="12" y="25.5684">function __construct(){</text><text fill="#000000" font-family="sans-serif" font-size="13" lengthAdjust="spacingAndGlyphs" textLength="219" x="28" y="40.8789">$oP = ObjectPool-&gt;getObjectPool;</text><text fill="#000000" font-family="sans-serif" font-size="13" lengthAdjust="spacingAndGlyphs" textLength="361" x="28" y="56.1895">$this-&gt;dbc = $oP-&gt;getInstanceOf('DatabaseConnector');</text><text fill="#000000" font-family="sans-serif" font-size="13" lengthAdjust="spacingAndGlyphs" textLength="4" x="12" y="71.5">}</text><!--link Controller to ControllerA--><path d="M175.2696,231.3442 C167.4113,245.9728 159.3355,261.0063 152.8977,272.9903 " fill="none" id="Controller-ControllerA" style="stroke: #A80036; stroke-width: 1.0;"/><polygon fill="none" points="169.3362,227.5975,184.9675,213.2913,181.6694,234.2227,169.3362,227.5975" style="stroke: #A80036; stroke-width: 1.0;"/><!--link Controller to ControllerB--><path d="M234.9219,230.8568 C242.9845,245.6383 251.2944,260.8731 257.9038,272.9903 " fill="none" id="Controller-ControllerB" style="stroke: #A80036; stroke-width: 1.0;"/><polygon fill="none" points="228.7725,234.2012,225.3407,213.2913,241.0631,227.4973,228.7725,234.2012" style="stroke: #A80036; stroke-width: 1.0;"/><!--link Controller to DatabaseConnector--><path d="M285.7813,176 C295.5298,176 305.2783,176 315.0269,176 " fill="none" id="Controller-DatabaseConnector" style="stroke: #A80036; stroke-width: 1.0;"/><polygon fill="#A80036" points="320.1248,176,311.1248,172,315.1248,176,311.1248,180,320.1248,176" style="stroke: #A80036; stroke-width: 1.0;"/><!--
@startuml

abstract class Controller {
    - dbc : DatabaseConnector
    + __construct()
}

class ControllerA extends Controller
class ControllerB extends Controller

class DatabaseConnector

note top of Controller
function __construct(){
    $oP = ObjectPool->getObjectPool;
    $this->dbc = $oP->getInstanceOf('DatabaseConnector');
}
endnote

Controller -right-> DatabaseConnector

@enduml

PlantUML version 1.2018.09(Fri Jul 27 18:58:18 CEST 2018)
(GPL source distribution)
Java Runtime: OpenJDK Runtime Environment
JVM: OpenJDK 64-Bit Server VM
Java Version: 1.8.0_152-release-1248-b8
Operating System: Mac OS X
OS Version: 10.13.6
Default Encoding: UTF-8
Language: de
Country: DE
--></g></svg>