<?xml version="1.0" encoding="UTF-8" standalone="no"?><svg xmlns="http://www.w3.org/2000/svg" xmlns:xlink="http://www.w3.org/1999/xlink" contentScriptType="application/ecmascript" contentStyleType="text/css" height="200px" preserveAspectRatio="none" style="width:642px;height:200px;" version="1.1" viewBox="0 0 642 200" width="642px" zoomAndPan="magnify"><defs><filter height="300%" id="feeqlc8asz3wn" width="300%" x="-1" y="-1"><feGaussianBlur result="blurOut" stdDeviation="2.0"/><feColorMatrix in="blurOut" result="blurOut2" type="matrix" values="0 0 0 0 0 0 0 0 0 0 0 0 0 0 0 0 0 0 .4 0"/><feOffset dx="4.0" dy="4.0" in="blurOut2" result="blurOut3"/><feBlend in="SourceGraphic" in2="blurOut3" mode="normal"/></filter></defs><g><!--class Animal--><rect fill="#FEFECE" filter="url(#feeqlc8asz3wn)" height="60.9551" id="Animal" style="stroke: #A80036; stroke-width: 1.5;" width="130" x="253" y="8"/><ellipse cx="294.55" cy="24" fill="#A9DCDF" rx="11" ry="11" style="stroke: #A80036; stroke-width: 1.0;"/><path d="M294.6633,19.3481 L293.5095,24.4199 L295.8254,24.4199 Z M293.1691,17.1069 L296.1657,17.1069 L299.5109,29.5 L297.0622,29.5 L296.2985,26.437 L293.0197,26.437 L292.2727,29.5 L289.8239,29.5 Z "/><text fill="#000000" font-family="sans-serif" font-size="12" font-style="italic" lengthAdjust="spacingAndGlyphs" textLength="39" x="314.45" y="28.5352">Animal</text><line style="stroke: #A80036; stroke-width: 1.5;" x1="254" x2="382" y1="40" y2="40"/><line style="stroke: #A80036; stroke-width: 1.5;" x1="254" x2="382" y1="48" y2="48"/><ellipse cx="264" cy="59.9775" fill="#84BE84" rx="3" ry="3" style="stroke: #038048; stroke-width: 1.0;"/><text fill="#000000" font-family="sans-serif" font-size="11" font-style="italic" lengthAdjust="spacingAndGlyphs" textLength="104" x="273" y="62.6348">move($destination)</text><!--class Human--><rect fill="#FEFECE" filter="url(#feeqlc8asz3wn)" height="60.9551" id="Human" style="stroke: #A80036; stroke-width: 1.5;" width="130" x="6" y="129"/><ellipse cx="46.65" cy="145" fill="#ADD1B2" rx="11" ry="11" style="stroke: #A80036; stroke-width: 1.0;"/><path d="M49.6231,150.6431 Q49.0421,150.9419 48.4029,151.0913 Q47.7638,151.2407 47.0582,151.2407 Q44.5514,151.2407 43.2315,149.5889 Q41.9117,147.937 41.9117,144.8159 Q41.9117,141.6865 43.2315,140.0347 Q44.5514,138.3828 47.0582,138.3828 Q47.7638,138.3828 48.4112,138.5322 Q49.0587,138.6816 49.6231,138.9805 L49.6231,141.7031 Q48.9923,141.1221 48.3988,140.8523 Q47.8053,140.5825 47.1744,140.5825 Q45.8297,140.5825 45.1449,141.6492 Q44.4601,142.7158 44.4601,144.8159 Q44.4601,146.9077 45.1449,147.9744 Q45.8297,149.041 47.1744,149.041 Q47.8053,149.041 48.3988,148.7712 Q48.9923,148.5015 49.6231,147.9204 Z "/><text fill="#000000" font-family="sans-serif" font-size="12" lengthAdjust="spacingAndGlyphs" textLength="41" x="66.35" y="149.5352">Human</text><line style="stroke: #A80036; stroke-width: 1.5;" x1="7" x2="135" y1="161" y2="161"/><line style="stroke: #A80036; stroke-width: 1.5;" x1="7" x2="135" y1="169" y2="169"/><ellipse cx="17" cy="180.9775" fill="#84BE84" rx="3" ry="3" style="stroke: #038048; stroke-width: 1.0;"/><text fill="#000000" font-family="sans-serif" font-size="11" lengthAdjust="spacingAndGlyphs" textLength="104" x="26" y="183.6348">move($destination)</text><!--class Ape--><rect fill="#FEFECE" filter="url(#feeqlc8asz3wn)" height="60.9551" id="Ape" style="stroke: #A80036; stroke-width: 1.5;" width="130" x="171" y="129"/><ellipse cx="220.25" cy="145" fill="#ADD1B2" rx="11" ry="11" style="stroke: #A80036; stroke-width: 1.0;"/><path d="M223.2231,150.6431 Q222.6421,150.9419 222.0029,151.0913 Q221.3638,151.2407 220.6582,151.2407 Q218.1514,151.2407 216.8315,149.5889 Q215.5117,147.937 215.5117,144.8159 Q215.5117,141.6865 216.8315,140.0347 Q218.1514,138.3828 220.6582,138.3828 Q221.3638,138.3828 222.0112,138.5322 Q222.6587,138.6816 223.2231,138.9805 L223.2231,141.7031 Q222.5923,141.1221 221.9988,140.8523 Q221.4053,140.5825 220.7744,140.5825 Q219.4297,140.5825 218.7449,141.6492 Q218.0601,142.7158 218.0601,144.8159 Q218.0601,146.9077 218.7449,147.9744 Q219.4297,149.041 220.7744,149.041 Q221.4053,149.041 221.9988,148.7712 Q222.5923,148.5015 223.2231,147.9204 Z "/><text fill="#000000" font-family="sans-serif" font-size="12" lengthAdjust="spacingAndGlyphs" textLength="23" x="240.75" y="149.5352">Ape</text><line style="stroke: #A80036; stroke-width: 1.5;" x1="172" x2="300" y1="161" y2="161"/><line style="stroke: #A80036; stroke-width: 1.5;" x1="172" x2="300" y1="169" y2="169"/><ellipse cx="182" cy="180.9775" fill="#84BE84" rx="3" ry="3" style="stroke: #038048; stroke-width: 1.0;"/><text fill="#000000" font-family="sans-serif" font-size="11" lengthAdjust="spacingAndGlyphs" textLength="104" x="191" y="183.6348">move($destination)</text><!--class FastLion--><rect fill="#FEFECE" filter="url(#feeqlc8asz3wn)" height="60.9551" id="FastLion" style="stroke: #A80036; stroke-width: 1.5;" width="130" x="336" y="129"/><ellipse cx="374.4" cy="145" fill="#ADD1B2" rx="11" ry="11" style="stroke: #A80036; stroke-width: 1.0;"/><path d="M377.3731,150.6431 Q376.7921,150.9419 376.1529,151.0913 Q375.5138,151.2407 374.8082,151.2407 Q372.3014,151.2407 370.9815,149.5889 Q369.6617,147.937 369.6617,144.8159 Q369.6617,141.6865 370.9815,140.0347 Q372.3014,138.3828 374.8082,138.3828 Q375.5138,138.3828 376.1612,138.5322 Q376.8087,138.6816 377.3731,138.9805 L377.3731,141.7031 Q376.7423,141.1221 376.1488,140.8523 Q375.5553,140.5825 374.9244,140.5825 Q373.5797,140.5825 372.8949,141.6492 Q372.2101,142.7158 372.2101,144.8159 Q372.2101,146.9077 372.8949,147.9744 Q373.5797,149.041 374.9244,149.041 Q375.5553,149.041 376.1488,148.7712 Q376.7423,148.5015 377.3731,147.9204 Z "/><text fill="#000000" font-family="sans-serif" font-size="12" lengthAdjust="spacingAndGlyphs" textLength="46" x="393.6" y="149.5352">FastLion</text><line style="stroke: #A80036; stroke-width: 1.5;" x1="337" x2="465" y1="161" y2="161"/><line style="stroke: #A80036; stroke-width: 1.5;" x1="337" x2="465" y1="169" y2="169"/><ellipse cx="347" cy="180.9775" fill="#84BE84" rx="3" ry="3" style="stroke: #038048; stroke-width: 1.0;"/><text fill="#000000" font-family="sans-serif" font-size="11" lengthAdjust="spacingAndGlyphs" textLength="104" x="356" y="183.6348">move($destination)</text><!--class SilentLion--><rect fill="#FEFECE" filter="url(#feeqlc8asz3wn)" height="60.9551" id="SilentLion" style="stroke: #A80036; stroke-width: 1.5;" width="130" x="501" y="129"/><ellipse cx="536.25" cy="145" fill="#ADD1B2" rx="11" ry="11" style="stroke: #A80036; stroke-width: 1.0;"/><path d="M539.2231,150.6431 Q538.6421,150.9419 538.0029,151.0913 Q537.3638,151.2407 536.6582,151.2407 Q534.1514,151.2407 532.8315,149.5889 Q531.5117,147.937 531.5117,144.8159 Q531.5117,141.6865 532.8315,140.0347 Q534.1514,138.3828 536.6582,138.3828 Q537.3638,138.3828 538.0112,138.5322 Q538.6587,138.6816 539.2231,138.9805 L539.2231,141.7031 Q538.5923,141.1221 537.9988,140.8523 Q537.4053,140.5825 536.7744,140.5825 Q535.4297,140.5825 534.7449,141.6492 Q534.0601,142.7158 534.0601,144.8159 Q534.0601,146.9077 534.7449,147.9744 Q535.4297,149.041 536.7744,149.041 Q537.4053,149.041 537.9988,148.7712 Q538.5923,148.5015 539.2231,147.9204 Z "/><text fill="#000000" font-family="sans-serif" font-size="12" lengthAdjust="spacingAndGlyphs" textLength="53" x="554.75" y="149.5352">SilentLion</text><line style="stroke: #A80036; stroke-width: 1.5;" x1="502" x2="630" y1="161" y2="161"/><line style="stroke: #A80036; stroke-width: 1.5;" x1="502" x2="630" y1="169" y2="169"/><ellipse cx="512" cy="180.9775" fill="#84BE84" rx="3" ry="3" style="stroke: #038048; stroke-width: 1.0;"/><text fill="#000000" font-family="sans-serif" font-size="11" lengthAdjust="spacingAndGlyphs" textLength="104" x="521" y="183.6348">move($destination)</text><!--link Animal to Ape--><path d="M285.8541,85.9349 C276.0432,100.4119 265.522,115.9371 256.6854,128.9764 " fill="none" id="Animal-Ape" style="stroke: #A80036; stroke-width: 1.0;"/><polygon fill="none" points="280.2932,81.6627,297.3079,69.0334,291.8826,89.5168,280.2932,81.6627" style="stroke: #A80036; stroke-width: 1.0;"/><!--link Animal to SilentLion--><path d="M398.8647,77.9541 C432.8272,94.5246 471.7214,113.5012 503.4391,128.9764 " fill="none" id="Animal-SilentLion" style="stroke: #A80036; stroke-width: 1.0;"/><polygon fill="none" points="395.4861,84.0945,380.5809,69.0334,401.625,71.5122,395.4861,84.0945" style="stroke: #A80036; stroke-width: 1.0;"/><!--link Animal to Human--><path d="M237.4614,77.9541 C203.6358,94.5246 164.8984,113.5012 133.3086,128.9764 " fill="none" id="Animal-Human" style="stroke: #A80036; stroke-width: 1.0;"/><polygon fill="none" points="234.6313,71.5458,255.6715,69.0334,240.7903,84.1182,234.6313,71.5458" style="stroke: #A80036; stroke-width: 1.0;"/><!--link Animal to FastLion--><path d="M350.538,85.9349 C360.4685,100.4119 371.118,115.9371 380.0623,128.9764 " fill="none" id="Animal-FastLion" style="stroke: #A80036; stroke-width: 1.0;"/><polygon fill="none" points="344.4852,89.4858,338.9444,69.0334,356.0301,81.5665,344.4852,89.4858" style="stroke: #A80036; stroke-width: 1.0;"/><!--
@startuml

abstract class Animal {
    + {abstract} move($destination)
}

class Human {
    + move($destination)
}

class Ape {
    + move($destination)
}

class FastLion{
    + move($destination)
}

class SilentLion{
    + move($destination)
}

Animal <|- - Ape
Animal <|- - SilentLion
Animal <|- - Human
Animal <|- - FastLion

@enduml

PlantUML version 1.2018.09(Fri Jul 27 18:58:18 CEST 2018)
(GPL source distribution)
Java Runtime: OpenJDK Runtime Environment
JVM: OpenJDK 64-Bit Server VM
Java Version: 1.8.0_152-release-1248-b8
Operating System: Mac OS X
OS Version: 10.13.6
Default Encoding: UTF-8
Language: de
Country: DE
--></g></svg>