<?xml version="1.0" encoding="UTF-8" standalone="no"?><svg xmlns="http://www.w3.org/2000/svg" xmlns:xlink="http://www.w3.org/1999/xlink" contentScriptType="application/ecmascript" contentStyleType="text/css" height="394px" preserveAspectRatio="none" style="width:595px;height:394px;" version="1.1" viewBox="0 0 595 394" width="595px" zoomAndPan="magnify"><defs><filter height="300%" id="fa2xprtxj9ngx" width="300%" x="-1" y="-1"><feGaussianBlur result="blurOut" stdDeviation="2.0"/><feColorMatrix in="blurOut" result="blurOut2" type="matrix" values="0 0 0 0 0 0 0 0 0 0 0 0 0 0 0 0 0 0 .4 0"/><feOffset dx="4.0" dy="4.0" in="blurOut2" result="blurOut3"/><feBlend in="SourceGraphic" in2="blurOut3" mode="normal"/></filter></defs><g><!--class Client--><rect fill="#FEFECE" filter="url(#fa2xprtxj9ngx)" height="48" id="Client" style="stroke: #A80036; stroke-width: 1.5;" width="64" x="370" y="172"/><ellipse cx="385" cy="188" fill="#ADD1B2" rx="11" ry="11" style="stroke: #A80036; stroke-width: 1.0;"/><path d="M387.9731,193.6431 Q387.3921,193.9419 386.7529,194.0913 Q386.1138,194.2407 385.4082,194.2407 Q382.9014,194.2407 381.5815,192.5889 Q380.2617,190.937 380.2617,187.8159 Q380.2617,184.6865 381.5815,183.0347 Q382.9014,181.3828 385.4082,181.3828 Q386.1138,181.3828 386.7612,181.5322 Q387.4087,181.6816 387.9731,181.9805 L387.9731,184.7031 Q387.3423,184.1221 386.7488,183.8523 Q386.1553,183.5825 385.5244,183.5825 Q384.1797,183.5825 383.4949,184.6492 Q382.8101,185.7158 382.8101,187.8159 Q382.8101,189.9077 383.4949,190.9744 Q384.1797,192.041 385.5244,192.041 Q386.1553,192.041 386.7488,191.7712 Q387.3423,191.5015 387.9731,190.9204 Z "/><text fill="#000000" font-family="sans-serif" font-size="12" lengthAdjust="spacingAndGlyphs" textLength="32" x="399" y="192.5352">Client</text><line style="stroke: #A80036; stroke-width: 1.5;" x1="371" x2="433" y1="204" y2="204"/><line style="stroke: #A80036; stroke-width: 1.5;" x1="371" x2="433" y1="212" y2="212"/><!--class EncryptionService--><rect fill="#FEFECE" filter="url(#fa2xprtxj9ngx)" height="60.9551" id="EncryptionService" style="stroke: #A80036; stroke-width: 1.5;" width="160" x="241" y="14.5"/><ellipse cx="268.6" cy="30.5" fill="#ADD1B2" rx="11" ry="11" style="stroke: #A80036; stroke-width: 1.0;"/><path d="M271.5731,36.1431 Q270.9921,36.4419 270.3529,36.5913 Q269.7138,36.7407 269.0082,36.7407 Q266.5014,36.7407 265.1815,35.0889 Q263.8617,33.437 263.8617,30.3159 Q263.8617,27.1865 265.1815,25.5347 Q266.5014,23.8828 269.0082,23.8828 Q269.7138,23.8828 270.3612,24.0322 Q271.0087,24.1816 271.5731,24.4805 L271.5731,27.2031 Q270.9423,26.6221 270.3488,26.3523 Q269.7553,26.0825 269.1244,26.0825 Q267.7797,26.0825 267.0949,27.1492 Q266.4101,28.2158 266.4101,30.3159 Q266.4101,32.4077 267.0949,33.4744 Q267.7797,34.541 269.1244,34.541 Q269.7553,34.541 270.3488,34.2712 Q270.9423,34.0015 271.5731,33.4204 Z "/><text fill="#000000" font-family="sans-serif" font-size="12" lengthAdjust="spacingAndGlyphs" textLength="100" x="285.4" y="35.0352">EncryptionService</text><line style="stroke: #A80036; stroke-width: 1.5;" x1="242" x2="400" y1="46.5" y2="46.5"/><line style="stroke: #A80036; stroke-width: 1.5;" x1="242" x2="400" y1="54.5" y2="54.5"/><ellipse cx="252" cy="66.4775" fill="#84BE84" rx="3" ry="3" style="stroke: #038048; stroke-width: 1.0;"/><text fill="#000000" font-family="sans-serif" font-size="11" lengthAdjust="spacingAndGlyphs" textLength="134" x="261" y="69.1348">encrypt(Source) : Cypher</text><!--class DES--><rect fill="#FEFECE" filter="url(#fa2xprtxj9ngx)" height="73.9102" id="DES" style="stroke: #A80036; stroke-width: 1.5;" width="123" x="46.5" y="8"/><ellipse cx="92.75" cy="24" fill="#ADD1B2" rx="11" ry="11" style="stroke: #A80036; stroke-width: 1.0;"/><path d="M95.7231,29.6431 Q95.1421,29.9419 94.5029,30.0913 Q93.8638,30.2407 93.1582,30.2407 Q90.6514,30.2407 89.3315,28.5889 Q88.0117,26.937 88.0117,23.8159 Q88.0117,20.6865 89.3315,19.0347 Q90.6514,17.3828 93.1582,17.3828 Q93.8638,17.3828 94.5112,17.5322 Q95.1587,17.6816 95.7231,17.9805 L95.7231,20.7031 Q95.0923,20.1221 94.4988,19.8523 Q93.9053,19.5825 93.2744,19.5825 Q91.9297,19.5825 91.2449,20.6492 Q90.5601,21.7158 90.5601,23.8159 Q90.5601,25.9077 91.2449,26.9744 Q91.9297,28.041 93.2744,28.041 Q93.9053,28.041 94.4988,27.7712 Q95.0923,27.5015 95.7231,26.9204 Z "/><text fill="#000000" font-family="sans-serif" font-size="12" lengthAdjust="spacingAndGlyphs" textLength="22" x="113.25" y="28.5352">DES</text><line style="stroke: #A80036; stroke-width: 1.5;" x1="47.5" x2="168.5" y1="40" y2="40"/><line style="stroke: #A80036; stroke-width: 1.5;" x1="47.5" x2="168.5" y1="48" y2="48"/><ellipse cx="57.5" cy="59.9775" fill="#84BE84" rx="3" ry="3" style="stroke: #038048; stroke-width: 1.0;"/><text fill="#000000" font-family="sans-serif" font-size="11" lengthAdjust="spacingAndGlyphs" textLength="93" x="66.5" y="62.6348">set(Source) : void</text><ellipse cx="57.5" cy="72.9326" fill="#84BE84" rx="3" ry="3" style="stroke: #038048; stroke-width: 1.0;"/><text fill="#000000" font-family="sans-serif" font-size="11" lengthAdjust="spacingAndGlyphs" textLength="97" x="66.5" y="75.5898">encrypt() : Cypher</text><!--class AES--><rect fill="#FEFECE" filter="url(#fa2xprtxj9ngx)" height="73.9102" id="AES" style="stroke: #A80036; stroke-width: 1.5;" width="154" x="85" y="310"/><ellipse cx="147.25" cy="326" fill="#ADD1B2" rx="11" ry="11" style="stroke: #A80036; stroke-width: 1.0;"/><path d="M150.2231,331.6431 Q149.6421,331.9419 149.0029,332.0913 Q148.3638,332.2407 147.6582,332.2407 Q145.1514,332.2407 143.8315,330.5889 Q142.5117,328.937 142.5117,325.8159 Q142.5117,322.6865 143.8315,321.0347 Q145.1514,319.3828 147.6582,319.3828 Q148.3638,319.3828 149.0112,319.5322 Q149.6587,319.6816 150.2231,319.9805 L150.2231,322.7031 Q149.5923,322.1221 148.9988,321.8523 Q148.4053,321.5825 147.7744,321.5825 Q146.4297,321.5825 145.7449,322.6492 Q145.0601,323.7158 145.0601,325.8159 Q145.0601,327.9077 145.7449,328.9744 Q146.4297,330.041 147.7744,330.041 Q148.4053,330.041 148.9988,329.7712 Q149.5923,329.5015 150.2231,328.9204 Z "/><text fill="#000000" font-family="sans-serif" font-size="12" lengthAdjust="spacingAndGlyphs" textLength="21" x="167.75" y="330.5352">AES</text><line style="stroke: #A80036; stroke-width: 1.5;" x1="86" x2="238" y1="342" y2="342"/><line style="stroke: #A80036; stroke-width: 1.5;" x1="86" x2="238" y1="350" y2="350"/><ellipse cx="96" cy="361.9775" fill="#84BE84" rx="3" ry="3" style="stroke: #038048; stroke-width: 1.0;"/><text fill="#000000" font-family="sans-serif" font-size="11" lengthAdjust="spacingAndGlyphs" textLength="118" x="105" y="364.6348">encrypt(Source) : void</text><ellipse cx="96" cy="374.9326" fill="#84BE84" rx="3" ry="3" style="stroke: #038048; stroke-width: 1.0;"/><text fill="#000000" font-family="sans-serif" font-size="11" lengthAdjust="spacingAndGlyphs" textLength="128" x="105" y="377.5898">createCypher() : Cypher</text><!--class RSA--><rect fill="#FEFECE" filter="url(#fa2xprtxj9ngx)" height="60.9551" id="RSA" style="stroke: #A80036; stroke-width: 1.5;" width="148" x="436" y="14.5"/><ellipse cx="494.75" cy="30.5" fill="#ADD1B2" rx="11" ry="11" style="stroke: #A80036; stroke-width: 1.0;"/><path d="M497.7231,36.1431 Q497.1421,36.4419 496.5029,36.5913 Q495.8638,36.7407 495.1582,36.7407 Q492.6514,36.7407 491.3315,35.0889 Q490.0117,33.437 490.0117,30.3159 Q490.0117,27.1865 491.3315,25.5347 Q492.6514,23.8828 495.1582,23.8828 Q495.8638,23.8828 496.5112,24.0322 Q497.1587,24.1816 497.7231,24.4805 L497.7231,27.2031 Q497.0923,26.6221 496.4988,26.3523 Q495.9053,26.0825 495.2744,26.0825 Q493.9297,26.0825 493.2449,27.1492 Q492.5601,28.2158 492.5601,30.3159 Q492.5601,32.4077 493.2449,33.4744 Q493.9297,34.541 495.2744,34.541 Q495.9053,34.541 496.4988,34.2712 Q497.0923,34.0015 497.7231,33.4204 Z "/><text fill="#000000" font-family="sans-serif" font-size="12" lengthAdjust="spacingAndGlyphs" textLength="22" x="515.25" y="35.0352">RSA</text><line style="stroke: #A80036; stroke-width: 1.5;" x1="437" x2="583" y1="46.5" y2="46.5"/><line style="stroke: #A80036; stroke-width: 1.5;" x1="437" x2="583" y1="54.5" y2="54.5"/><ellipse cx="447" cy="66.4775" fill="#84BE84" rx="3" ry="3" style="stroke: #038048; stroke-width: 1.0;"/><text fill="#000000" font-family="sans-serif" font-size="11" lengthAdjust="spacingAndGlyphs" textLength="122" x="456" y="69.1348">encrypt(String) : String</text><!--class Source--><rect fill="#FEFECE" filter="url(#fa2xprtxj9ngx)" height="73.9102" id="Source" style="stroke: #A80036; stroke-width: 1.5;" width="130" x="6" y="159"/><ellipse cx="48" cy="175" fill="#ADD1B2" rx="11" ry="11" style="stroke: #A80036; stroke-width: 1.0;"/><path d="M50.9731,180.6431 Q50.3921,180.9419 49.7529,181.0913 Q49.1138,181.2407 48.4082,181.2407 Q45.9014,181.2407 44.5815,179.5889 Q43.2617,177.937 43.2617,174.8159 Q43.2617,171.6865 44.5815,170.0347 Q45.9014,168.3828 48.4082,168.3828 Q49.1138,168.3828 49.7612,168.5322 Q50.4087,168.6816 50.9731,168.9805 L50.9731,171.7031 Q50.3423,171.1221 49.7488,170.8523 Q49.1553,170.5825 48.5244,170.5825 Q47.1797,170.5825 46.4949,171.6492 Q45.8101,172.7158 45.8101,174.8159 Q45.8101,176.9077 46.4949,177.9744 Q47.1797,179.041 48.5244,179.041 Q49.1553,179.041 49.7488,178.7712 Q50.3423,178.5015 50.9731,177.9204 Z "/><text fill="#000000" font-family="sans-serif" font-size="12" lengthAdjust="spacingAndGlyphs" textLength="38" x="68" y="179.5352">Source</text><line style="stroke: #A80036; stroke-width: 1.5;" x1="7" x2="135" y1="191" y2="191"/><line style="stroke: #A80036; stroke-width: 1.5;" x1="7" x2="135" y1="199" y2="199"/><ellipse cx="17" cy="210.9775" fill="#84BE84" rx="3" ry="3" style="stroke: #038048; stroke-width: 1.0;"/><text fill="#000000" font-family="sans-serif" font-size="11" lengthAdjust="spacingAndGlyphs" textLength="104" x="26" y="213.6348">__construct(String)</text><ellipse cx="17" cy="223.9326" fill="#84BE84" rx="3" ry="3" style="stroke: #038048; stroke-width: 1.0;"/><text fill="#000000" font-family="sans-serif" font-size="11" lengthAdjust="spacingAndGlyphs" textLength="95" x="26" y="226.5898">getValue() : String</text><!--class Cypher--><rect fill="#FEFECE" filter="url(#fa2xprtxj9ngx)" height="73.9102" id="Cypher" style="stroke: #A80036; stroke-width: 1.5;" width="163" x="171.5" y="159"/><ellipse cx="228.25" cy="175" fill="#ADD1B2" rx="11" ry="11" style="stroke: #A80036; stroke-width: 1.0;"/><path d="M231.2231,180.6431 Q230.6421,180.9419 230.0029,181.0913 Q229.3638,181.2407 228.6582,181.2407 Q226.1514,181.2407 224.8315,179.5889 Q223.5117,177.937 223.5117,174.8159 Q223.5117,171.6865 224.8315,170.0347 Q226.1514,168.3828 228.6582,168.3828 Q229.3638,168.3828 230.0112,168.5322 Q230.6587,168.6816 231.2231,168.9805 L231.2231,171.7031 Q230.5923,171.1221 229.9988,170.8523 Q229.4053,170.5825 228.7744,170.5825 Q227.4297,170.5825 226.7449,171.6492 Q226.0601,172.7158 226.0601,174.8159 Q226.0601,176.9077 226.7449,177.9744 Q227.4297,179.041 228.7744,179.041 Q229.4053,179.041 229.9988,178.7712 Q230.5923,178.5015 231.2231,177.9204 Z "/><text fill="#000000" font-family="sans-serif" font-size="12" lengthAdjust="spacingAndGlyphs" textLength="41" x="248.75" y="179.5352">Cypher</text><line style="stroke: #A80036; stroke-width: 1.5;" x1="172.5" x2="333.5" y1="191" y2="191"/><line style="stroke: #A80036; stroke-width: 1.5;" x1="172.5" x2="333.5" y1="199" y2="199"/><ellipse cx="182.5" cy="210.9775" fill="#84BE84" rx="3" ry="3" style="stroke: #038048; stroke-width: 1.0;"/><text fill="#000000" font-family="sans-serif" font-size="11" lengthAdjust="spacingAndGlyphs" textLength="104" x="191.5" y="213.6348">__construct(String)</text><ellipse cx="182.5" cy="223.9326" fill="#84BE84" rx="3" ry="3" style="stroke: #038048; stroke-width: 1.0;"/><text fill="#000000" font-family="sans-serif" font-size="11" lengthAdjust="spacingAndGlyphs" textLength="137" x="191.5" y="226.5898">getCypherString() : String</text><!--link EncryptionService to Client--><path d="M339.769,79.9892 C354.903,108.2018 375.7885,147.1366 389.0954,171.9432 " fill="none" id="EncryptionService-Client" style="stroke: #A80036; stroke-width: 1.0;"/><polygon fill="#A80036" points="337.3916,75.5571,338.1211,85.3789,339.7551,79.9632,345.1709,81.5972,337.3916,75.5571" style="stroke: #A80036; stroke-width: 1.0;"/><!--link EncryptionService to Source--><path d="M281.7111,75.5545 C259.4838,92.2349 230.841,112.7402 204,129 C183.9553,141.1428 161.4308,153.0865 140.6958,163.4497 " fill="none" id="EncryptionService-Source" style="stroke: #A80036; stroke-width: 1.0; stroke-dasharray: 7.0,7.0;"/><polygon fill="#A80036" points="136.0238,165.7733,145.8634,165.3467,140.5006,163.5466,142.3007,158.1838,136.0238,165.7733" style="stroke: #A80036; stroke-width: 1.0;"/><text fill="#000000" font-family="sans-serif" font-size="13" lengthAdjust="spacingAndGlyphs" textLength="36" x="231" y="125.5684">«use»</text><!--link EncryptionService to Cypher--><path d="M307.2392,75.5571 C297.0461,98.1917 283.0373,129.2995 271.8101,154.2305 " fill="none" id="EncryptionService-Cypher" style="stroke: #A80036; stroke-width: 1.0; stroke-dasharray: 7.0,7.0;"/><polygon fill="#A80036" points="269.7476,158.8104,277.0904,152.2466,271.8007,154.2514,269.7959,148.9617,269.7476,158.8104" style="stroke: #A80036; stroke-width: 1.0;"/><text fill="#000000" font-family="sans-serif" font-size="13" lengthAdjust="spacingAndGlyphs" textLength="52" x="290" y="125.5684">«create»</text><!--link DES to Source--><path d="M81.1574,82.0006 C75.744,91.353 70.8455,101.6829 68,112 C64.3693,125.164 63.7938,139.9281 64.5251,153.3635 " fill="none" id="DES-Source" style="stroke: #A80036; stroke-width: 1.0; stroke-dasharray: 7.0,7.0;"/><polygon fill="#A80036" points="64.8812,158.6368,68.2652,149.3876,64.5441,153.6482,60.2834,149.927,64.8812,158.6368" style="stroke: #A80036; stroke-width: 1.0;"/><text fill="#000000" font-family="sans-serif" font-size="13" lengthAdjust="spacingAndGlyphs" textLength="36" x="69" y="125.5684">«use»</text><!--link DES to Cypher--><path d="M119.3479,82.0195 C125.4572,97.7343 134.205,115.5 146,129 C154.7336,138.996 165.3233,148.0123 176.4022,155.9528 " fill="none" id="DES-Cypher" style="stroke: #A80036; stroke-width: 1.0; stroke-dasharray: 7.0,7.0;"/><polygon fill="#A80036" points="180.5035,158.8294,175.4321,150.3866,176.41,155.9583,170.8383,156.9362,180.5035,158.8294" style="stroke: #A80036; stroke-width: 1.0;"/><text fill="#000000" font-family="sans-serif" font-size="13" lengthAdjust="spacingAndGlyphs" textLength="52" x="147" y="125.5684">«create»</text><!--link Source to AES--><path d="M96.1739,237.7721 C109.7848,260.3573 126.4503,288.0109 139.6069,309.8421 " fill="none" id="Source-AES" style="stroke: #A80036; stroke-width: 1.0; stroke-dasharray: 7.0,7.0;"/><polygon fill="#A80036" points="93.4944,233.3259,94.714,243.099,96.0753,237.6083,101.5659,238.9696,93.4944,233.3259" style="stroke: #A80036; stroke-width: 1.0;"/><text fill="#000000" font-family="sans-serif" font-size="13" lengthAdjust="spacingAndGlyphs" textLength="36" x="120" y="276.5684">«use»</text><!--link Cypher to AES--><path d="M227.8261,237.7721 C214.2152,260.3573 197.5497,288.0109 184.3931,309.8421 " fill="none" id="Cypher-AES" style="stroke: #A80036; stroke-width: 1.0; stroke-dasharray: 7.0,7.0;"/><polygon fill="#A80036" points="230.5056,233.3259,222.4341,238.9696,227.9247,237.6083,229.286,243.099,230.5056,233.3259" style="stroke: #A80036; stroke-width: 1.0;"/><text fill="#000000" font-family="sans-serif" font-size="13" lengthAdjust="spacingAndGlyphs" textLength="52" x="211" y="276.5684">«create»</text><!--
@startuml

class Client
class EncryptionService {
    + encrypt(Source) : Cypher
}

class DES {
    + set(Source) : void
    + encrypt() : Cypher
}

class AES {
    + encrypt(Source) : void
    + createCypher() : Cypher
}

class RSA {
    + encrypt(String) : String
}

class Source {
    + __construct(String)
    + getValue() : String
}

class Cypher {
    + __construct(String)
    + getCypherString() : String
}

EncryptionService <- - Client
EncryptionService ..> Source : <<use>>
EncryptionService ..> Cypher : <<create>>

DES ..> Source : <<use>>
DES ..> Cypher : <<create>>

AES .up.> Source : <<use>>
AES .up.> Cypher : <<create>>


@enduml

PlantUML version 1.2018.09(Fri Jul 27 18:58:18 CEST 2018)
(GPL source distribution)
Java Runtime: OpenJDK Runtime Environment
JVM: OpenJDK 64-Bit Server VM
Java Version: 1.8.0_152-release-1248-b8
Operating System: Mac OS X
OS Version: 10.13.6
Default Encoding: UTF-8
Language: de
Country: DE
--></g></svg>