<?xml version="1.0" encoding="UTF-8" standalone="no"?><svg xmlns="http://www.w3.org/2000/svg" xmlns:xlink="http://www.w3.org/1999/xlink" contentScriptType="application/ecmascript" contentStyleType="text/css" height="353px" preserveAspectRatio="none" style="width:597px;height:353px;" version="1.1" viewBox="0 0 597 353" width="597px" zoomAndPan="magnify"><defs><filter height="300%" id="f1oms8au6x6q8h" width="300%" x="-1" y="-1"><feGaussianBlur result="blurOut" stdDeviation="2.0"/><feColorMatrix in="blurOut" result="blurOut2" type="matrix" values="0 0 0 0 0 0 0 0 0 0 0 0 0 0 0 0 0 0 .4 0"/><feOffset dx="4.0" dy="4.0" in="blurOut2" result="blurOut3"/><feBlend in="SourceGraphic" in2="blurOut3" mode="normal"/></filter></defs><g><!--class Animal--><rect fill="#FEFECE" filter="url(#f1oms8au6x6q8h)" height="80.1758" id="Animal" style="stroke: #A80036; stroke-width: 1.5;" width="194" x="248.5" y="8"/><ellipse cx="315.25" cy="27.1328" fill="#ADD1B2" rx="11" ry="11" style="stroke: #A80036; stroke-width: 1.0;"/><path d="M318.2231,32.7759 Q317.6421,33.0747 317.0029,33.2241 Q316.3638,33.3735 315.6582,33.3735 Q313.1514,33.3735 311.8315,31.7217 Q310.5117,30.0698 310.5117,26.9487 Q310.5117,23.8193 311.8315,22.1675 Q313.1514,20.5156 315.6582,20.5156 Q316.3638,20.5156 317.0112,20.665 Q317.6587,20.8145 318.2231,21.1133 L318.2231,23.8359 Q317.5923,23.2549 316.9988,22.9851 Q316.4053,22.7153 315.7744,22.7153 Q314.4297,22.7153 313.7449,23.782 Q313.0601,24.8486 313.0601,26.9487 Q313.0601,29.0405 313.7449,30.1072 Q314.4297,31.1738 315.7744,31.1738 Q316.4053,31.1738 316.9988,30.9041 Q317.5923,30.6343 318.2231,30.0532 Z "/><text fill="#000000" font-family="sans-serif" font-size="12" font-style="italic" lengthAdjust="spacingAndGlyphs" textLength="56" x="333.75" y="24.6016">«Context»</text><text fill="#000000" font-family="sans-serif" font-size="12" lengthAdjust="spacingAndGlyphs" textLength="39" x="342.25" y="38.7344">Animal</text><line style="stroke: #A80036; stroke-width: 1.5;" x1="249.5" x2="441.5" y1="46.2656" y2="46.2656"/><line style="stroke: #A80036; stroke-width: 1.5;" x1="249.5" x2="441.5" y1="54.2656" y2="54.2656"/><ellipse cx="259.5" cy="66.2432" fill="#84BE84" rx="3" ry="3" style="stroke: #038048; stroke-width: 1.0;"/><text fill="#000000" font-family="sans-serif" font-size="11" lengthAdjust="spacingAndGlyphs" textLength="168" x="268.5" y="68.9004">setMoveStrategy(MoveStrategy)</text><ellipse cx="259.5" cy="79.1982" fill="#84BE84" rx="3" ry="3" style="stroke: #038048; stroke-width: 1.0;"/><text fill="#000000" font-family="sans-serif" font-size="11" lengthAdjust="spacingAndGlyphs" textLength="104" x="268.5" y="81.8555">move($destination)</text><path d="M6,15 L6,70.9316 A0,0 0 0 0 6,70.9316 L213,70.9316 A0,0 0 0 0 213,70.9316 L213,46.9658 L252.5,77.6982 L213,38.9658 L213,25 L203,15 L6,15 A0,0 0 0 0 6,15 " fill="#FBFB77" filter="url(#f1oms8au6x6q8h)" style="stroke: #A80036; stroke-width: 1.0;"/><path d="M203,15 L203,25 L213,25 L203,15 " fill="#FBFB77" style="stroke: #A80036; stroke-width: 1.0;"/><text fill="#000000" font-family="sans-serif" font-size="13" lengthAdjust="spacingAndGlyphs" textLength="186" x="12" y="32.5684">function move($destination) {</text><text fill="#000000" font-family="sans-serif" font-size="13" lengthAdjust="spacingAndGlyphs" textLength="157" x="28" y="47.8789">$moveStrategy-&gt;move();</text><text fill="#000000" font-family="sans-serif" font-size="13" lengthAdjust="spacingAndGlyphs" textLength="4" x="12" y="63.1895">}</text><!--class MoveStrategy--><rect fill="#FEFECE" filter="url(#f1oms8au6x6q8h)" height="67.2207" id="MoveStrategy" style="stroke: #A80036; stroke-width: 1.5;" width="130" x="280.5" y="148"/><ellipse cx="305.4" cy="167.1328" fill="#B4A7E5" rx="11" ry="11" style="stroke: #A80036; stroke-width: 1.0;"/><path d="M301.3277,162.8979 L301.3277,160.7397 L308.7071,160.7397 L308.7071,162.8979 L306.2418,162.8979 L306.2418,170.9746 L308.7071,170.9746 L308.7071,173.1328 L301.3277,173.1328 L301.3277,170.9746 L303.7931,170.9746 L303.7931,162.8979 Z "/><text fill="#000000" font-family="sans-serif" font-size="12" font-style="italic" lengthAdjust="spacingAndGlyphs" textLength="58" x="330.6" y="164.6016">«Strategy»</text><text fill="#000000" font-family="sans-serif" font-size="12" font-style="italic" lengthAdjust="spacingAndGlyphs" textLength="76" x="321.6" y="178.7344">MoveStrategy</text><line style="stroke: #A80036; stroke-width: 1.5;" x1="281.5" x2="409.5" y1="186.2656" y2="186.2656"/><line style="stroke: #A80036; stroke-width: 1.5;" x1="281.5" x2="409.5" y1="194.2656" y2="194.2656"/><ellipse cx="291.5" cy="206.2432" fill="#84BE84" rx="3" ry="3" style="stroke: #038048; stroke-width: 1.0;"/><text fill="#000000" font-family="sans-serif" font-size="11" font-style="italic" lengthAdjust="spacingAndGlyphs" textLength="104" x="300.5" y="208.9004">move($destination)</text><!--class FastMove--><rect fill="#FEFECE" filter="url(#f1oms8au6x6q8h)" height="67.2207" id="FastMove" style="stroke: #A80036; stroke-width: 1.5;" width="137" x="105" y="275"/><ellipse cx="120" cy="294.1328" fill="#ADD1B2" rx="11" ry="11" style="stroke: #A80036; stroke-width: 1.0;"/><path d="M122.9731,299.7759 Q122.3921,300.0747 121.7529,300.2241 Q121.1138,300.3735 120.4082,300.3735 Q117.9014,300.3735 116.5815,298.7217 Q115.2617,297.0698 115.2617,293.9487 Q115.2617,290.8193 116.5815,289.1675 Q117.9014,287.5156 120.4082,287.5156 Q121.1138,287.5156 121.7612,287.665 Q122.4087,287.8145 122.9731,288.1133 L122.9731,290.8359 Q122.3423,290.2549 121.7488,289.9851 Q121.1553,289.7153 120.5244,289.7153 Q119.1797,289.7153 118.4949,290.782 Q117.8101,291.8486 117.8101,293.9487 Q117.8101,296.0405 118.4949,297.1072 Q119.1797,298.1738 120.5244,298.1738 Q121.1553,298.1738 121.7488,297.9041 Q122.3423,297.6343 122.9731,297.0532 Z "/><text fill="#000000" font-family="sans-serif" font-size="12" font-style="italic" lengthAdjust="spacingAndGlyphs" textLength="109" x="132" y="291.6016">«ConcreteStrategy»</text><text fill="#000000" font-family="sans-serif" font-size="12" lengthAdjust="spacingAndGlyphs" textLength="53" x="160" y="305.7344">FastMove</text><line style="stroke: #A80036; stroke-width: 1.5;" x1="106" x2="241" y1="313.2656" y2="313.2656"/><line style="stroke: #A80036; stroke-width: 1.5;" x1="106" x2="241" y1="321.2656" y2="321.2656"/><ellipse cx="116" cy="333.2432" fill="#84BE84" rx="3" ry="3" style="stroke: #038048; stroke-width: 1.0;"/><text fill="#000000" font-family="sans-serif" font-size="11" lengthAdjust="spacingAndGlyphs" textLength="104" x="125" y="335.9004">move($destination)</text><!--class SilentMove--><rect fill="#FEFECE" filter="url(#f1oms8au6x6q8h)" height="67.2207" id="SilentMove" style="stroke: #A80036; stroke-width: 1.5;" width="137" x="277" y="275"/><ellipse cx="292" cy="294.1328" fill="#ADD1B2" rx="11" ry="11" style="stroke: #A80036; stroke-width: 1.0;"/><path d="M294.9731,299.7759 Q294.3921,300.0747 293.7529,300.2241 Q293.1138,300.3735 292.4082,300.3735 Q289.9014,300.3735 288.5815,298.7217 Q287.2617,297.0698 287.2617,293.9487 Q287.2617,290.8193 288.5815,289.1675 Q289.9014,287.5156 292.4082,287.5156 Q293.1138,287.5156 293.7612,287.665 Q294.4087,287.8145 294.9731,288.1133 L294.9731,290.8359 Q294.3423,290.2549 293.7488,289.9851 Q293.1553,289.7153 292.5244,289.7153 Q291.1797,289.7153 290.4949,290.782 Q289.8101,291.8486 289.8101,293.9487 Q289.8101,296.0405 290.4949,297.1072 Q291.1797,298.1738 292.5244,298.1738 Q293.1553,298.1738 293.7488,297.9041 Q294.3423,297.6343 294.9731,297.0532 Z "/><text fill="#000000" font-family="sans-serif" font-size="12" font-style="italic" lengthAdjust="spacingAndGlyphs" textLength="109" x="304" y="291.6016">«ConcreteStrategy»</text><text fill="#000000" font-family="sans-serif" font-size="12" lengthAdjust="spacingAndGlyphs" textLength="60" x="328.5" y="305.7344">SilentMove</text><line style="stroke: #A80036; stroke-width: 1.5;" x1="278" x2="413" y1="313.2656" y2="313.2656"/><line style="stroke: #A80036; stroke-width: 1.5;" x1="278" x2="413" y1="321.2656" y2="321.2656"/><ellipse cx="288" cy="333.2432" fill="#84BE84" rx="3" ry="3" style="stroke: #038048; stroke-width: 1.0;"/><text fill="#000000" font-family="sans-serif" font-size="11" lengthAdjust="spacingAndGlyphs" textLength="104" x="297" y="335.9004">move($destination)</text><!--class UprightMove--><rect fill="#FEFECE" filter="url(#f1oms8au6x6q8h)" height="67.2207" id="UprightMove" style="stroke: #A80036; stroke-width: 1.5;" width="137" x="449" y="275"/><ellipse cx="464" cy="294.1328" fill="#ADD1B2" rx="11" ry="11" style="stroke: #A80036; stroke-width: 1.0;"/><path d="M466.9731,299.7759 Q466.3921,300.0747 465.7529,300.2241 Q465.1138,300.3735 464.4082,300.3735 Q461.9014,300.3735 460.5815,298.7217 Q459.2617,297.0698 459.2617,293.9487 Q459.2617,290.8193 460.5815,289.1675 Q461.9014,287.5156 464.4082,287.5156 Q465.1138,287.5156 465.7612,287.665 Q466.4087,287.8145 466.9731,288.1133 L466.9731,290.8359 Q466.3423,290.2549 465.7488,289.9851 Q465.1553,289.7153 464.5244,289.7153 Q463.1797,289.7153 462.4949,290.782 Q461.8101,291.8486 461.8101,293.9487 Q461.8101,296.0405 462.4949,297.1072 Q463.1797,298.1738 464.5244,298.1738 Q465.1553,298.1738 465.7488,297.9041 Q466.3423,297.6343 466.9731,297.0532 Z "/><text fill="#000000" font-family="sans-serif" font-size="12" font-style="italic" lengthAdjust="spacingAndGlyphs" textLength="109" x="476" y="291.6016">«ConcreteStrategy»</text><text fill="#000000" font-family="sans-serif" font-size="12" lengthAdjust="spacingAndGlyphs" textLength="72" x="494.5" y="305.7344">UprightMove</text><line style="stroke: #A80036; stroke-width: 1.5;" x1="450" x2="585" y1="313.2656" y2="313.2656"/><line style="stroke: #A80036; stroke-width: 1.5;" x1="450" x2="585" y1="321.2656" y2="321.2656"/><ellipse cx="460" cy="333.2432" fill="#84BE84" rx="3" ry="3" style="stroke: #038048; stroke-width: 1.0;"/><text fill="#000000" font-family="sans-serif" font-size="11" lengthAdjust="spacingAndGlyphs" textLength="104" x="469" y="335.9004">move($destination)</text><!--link Animal$$$LEFT to Animal--><!--link MoveStrategy to FastMove--><path d="M283.6925,227.1369 C262.3547,242.8922 238.8538,260.2446 219.0559,274.8628 " fill="none" id="MoveStrategy-FastMove" style="stroke: #A80036; stroke-width: 1.0; stroke-dasharray: 7.0,7.0;"/><polygon fill="none" points="279.6114,221.4489,299.8587,215.2002,287.9273,232.7115,279.6114,221.4489" style="stroke: #A80036; stroke-width: 1.0;"/><!--link MoveStrategy to SilentMove--><path d="M345.5,235.3226 C345.5,248.6549 345.5,262.57 345.5,274.6423 " fill="none" id="MoveStrategy-SilentMove" style="stroke: #A80036; stroke-width: 1.0; stroke-dasharray: 7.0,7.0;"/><polygon fill="none" points="338.5001,235.2003,345.5,215.2002,352.5001,235.2002,338.5001,235.2003" style="stroke: #A80036; stroke-width: 1.0;"/><!--link MoveStrategy to UprightMove--><path d="M407.3075,227.1369 C428.6453,242.8922 452.1462,260.2446 471.9441,274.8628 " fill="none" id="MoveStrategy-UprightMove" style="stroke: #A80036; stroke-width: 1.0; stroke-dasharray: 7.0,7.0;"/><polygon fill="none" points="403.0727,232.7115,391.1413,215.2002,411.3886,221.4489,403.0727,232.7115" style="stroke: #A80036; stroke-width: 1.0;"/><!--link Animal to MoveStrategy--><path d="M345.5,101.4441 C345.5,112.4394 345.5,123.9368 345.5,134.6764 " fill="none" id="Animal-MoveStrategy" style="stroke: #A80036; stroke-width: 1.0;"/><polygon fill="#A80036" points="345.5,147.78,349.5,138.78,345.5,142.78,341.5,138.78,345.5,147.78" style="stroke: #A80036; stroke-width: 1.0;"/><line style="stroke: #A80036; stroke-width: 1.0;" x1="345.5" x2="345.5001" y1="142.78" y2="134.7799"/><polygon fill="#FFFFFF" points="345.5,88.0544,341.5,94.0544,345.5,100.0544,349.5,94.0544,345.5,88.0544" style="stroke: #A80036; stroke-width: 1.0;"/><text fill="#000000" font-family="sans-serif" font-size="13" lengthAdjust="spacingAndGlyphs" textLength="85" x="252.1328" y="137.242">moveStrategy</text><!--
@startuml

class Animal <<Context>> {
    + setMoveStrategy(MoveStrategy)
    + move($destination)
}

note left of Animal::move($destination)
function move($destination) {
    $moveStrategy->move();
}
end note

interface MoveStrategy <<Strategy>>{
    + {abstract} move($destination)
}

class FastMove <<ConcreteStrategy>> implements MoveStrategy {
    +move($destination)
}

class SilentMove <<ConcreteStrategy>> implements MoveStrategy {
    +move($destination)
}

class UprightMove <<ConcreteStrategy>> implements MoveStrategy {
    +move($destination)
}

Animal o- -> "moveStrategy" MoveStrategy

@enduml

PlantUML version 1.2018.09(Fri Jul 27 18:58:18 CEST 2018)
(GPL source distribution)
Java Runtime: OpenJDK Runtime Environment
JVM: OpenJDK 64-Bit Server VM
Java Version: 1.8.0_152-release-1248-b8
Operating System: Mac OS X
OS Version: 10.13.6
Default Encoding: UTF-8
Language: de
Country: DE
--></g></svg>