<?xml version="1.0" encoding="UTF-8" standalone="no"?><svg xmlns="http://www.w3.org/2000/svg" xmlns:xlink="http://www.w3.org/1999/xlink" contentScriptType="application/ecmascript" contentStyleType="text/css" height="278px" preserveAspectRatio="none" style="width:343px;height:278px;" version="1.1" viewBox="0 0 343 278" width="343px" zoomAndPan="magnify"><defs><filter height="300%" id="f1hkmwquhkk0dl" width="300%" x="-1" y="-1"><feGaussianBlur result="blurOut" stdDeviation="2.0"/><feColorMatrix in="blurOut" result="blurOut2" type="matrix" values="0 0 0 0 0 0 0 0 0 0 0 0 0 0 0 0 0 0 .4 0"/><feOffset dx="4.0" dy="4.0" in="blurOut2" result="blurOut3"/><feBlend in="SourceGraphic" in2="blurOut3" mode="normal"/></filter></defs><g><!--class Worker--><rect fill="#FEFECE" filter="url(#f1hkmwquhkk0dl)" height="125.7305" id="Worker" style="stroke: #A80036; stroke-width: 1.5;" width="101" x="123.5" y="8"/><ellipse cx="151.1" cy="24" fill="#A9DCDF" rx="11" ry="11" style="stroke: #A80036; stroke-width: 1.0;"/><path d="M151.2133,19.3481 L150.0595,24.4199 L152.3754,24.4199 Z M149.7191,17.1069 L152.7157,17.1069 L156.0609,29.5 L153.6122,29.5 L152.8485,26.437 L149.5697,26.437 L148.8227,29.5 L146.3739,29.5 Z "/><text fill="#000000" font-family="sans-serif" font-size="12" font-style="italic" lengthAdjust="spacingAndGlyphs" textLength="41" x="167.9" y="28.5352">Worker</text><line style="stroke: #A80036; stroke-width: 1.5;" x1="124.5" x2="223.5" y1="40" y2="40"/><line style="stroke: #A80036; stroke-width: 1.5;" x1="124.5" x2="223.5" y1="48" y2="48"/><ellipse cx="134.5" cy="59.9775" fill="#84BE84" rx="3" ry="3" style="stroke: #038048; stroke-width: 1.0;"/><text fill="#000000" font-family="sans-serif" font-size="11" lengthAdjust="spacingAndGlyphs" textLength="75" x="143.5" y="62.6348">DailyRoutine()</text><polygon fill="#FFFF44" points="134.5,67.9326,138.5,71.9326,134.5,75.9326,130.5,71.9326" style="stroke: #B38D22; stroke-width: 1.0;"/><text fill="#000000" font-family="sans-serif" font-size="11" lengthAdjust="spacingAndGlyphs" textLength="40" x="143.5" y="75.5898">getUp()</text><polygon fill="#FFFF44" points="134.5,80.8877,138.5,84.8877,134.5,88.8877,130.5,84.8877" style="stroke: #B38D22; stroke-width: 1.0;"/><text fill="#000000" font-family="sans-serif" font-size="11" lengthAdjust="spacingAndGlyphs" textLength="24" x="143.5" y="88.5449">eat()</text><polygon fill="#FFFF44" points="134.5,93.8428,138.5,97.8428,134.5,101.8428,130.5,97.8428" style="stroke: #B38D22; stroke-width: 1.0;"/><text fill="#000000" font-family="sans-serif" font-size="11" font-style="italic" lengthAdjust="spacingAndGlyphs" textLength="34" x="143.5" y="101.5">work()</text><polygon fill="#FFFF44" points="134.5,106.7979,138.5,110.7979,134.5,114.7979,130.5,110.7979" style="stroke: #B38D22; stroke-width: 1.0;"/><text fill="#000000" font-family="sans-serif" font-size="11" lengthAdjust="spacingAndGlyphs" textLength="35" x="143.5" y="114.4551">relax()</text><polygon fill="#FFFF44" points="134.5,119.7529,138.5,123.7529,134.5,127.7529,130.5,123.7529" style="stroke: #B38D22; stroke-width: 1.0;"/><text fill="#000000" font-family="sans-serif" font-size="11" lengthAdjust="spacingAndGlyphs" textLength="36" x="143.5" y="127.4102">sleep()</text><!--class FireFighter--><rect fill="#FEFECE" filter="url(#f1hkmwquhkk0dl)" height="60.9551" id="FireFighter" style="stroke: #A80036; stroke-width: 1.5;" width="92" x="6" y="200.5"/><ellipse cx="21" cy="216.5" fill="#ADD1B2" rx="11" ry="11" style="stroke: #A80036; stroke-width: 1.0;"/><path d="M23.9731,222.1431 Q23.3921,222.4419 22.7529,222.5913 Q22.1138,222.7407 21.4082,222.7407 Q18.9014,222.7407 17.5815,221.0889 Q16.2617,219.437 16.2617,216.3159 Q16.2617,213.1865 17.5815,211.5347 Q18.9014,209.8828 21.4082,209.8828 Q22.1138,209.8828 22.7612,210.0322 Q23.4087,210.1816 23.9731,210.4805 L23.9731,213.2031 Q23.3423,212.6221 22.7488,212.3523 Q22.1553,212.0825 21.5244,212.0825 Q20.1797,212.0825 19.4949,213.1492 Q18.8101,214.2158 18.8101,216.3159 Q18.8101,218.4077 19.4949,219.4744 Q20.1797,220.541 21.5244,220.541 Q22.1553,220.541 22.7488,220.2712 Q23.3423,220.0015 23.9731,219.4204 Z "/><text fill="#000000" font-family="sans-serif" font-size="12" lengthAdjust="spacingAndGlyphs" textLength="60" x="35" y="221.0352">FireFighter</text><line style="stroke: #A80036; stroke-width: 1.5;" x1="7" x2="97" y1="232.5" y2="232.5"/><line style="stroke: #A80036; stroke-width: 1.5;" x1="7" x2="97" y1="240.5" y2="240.5"/><polygon fill="#FFFF44" points="17,247.4775,21,251.4775,17,255.4775,13,251.4775" style="stroke: #B38D22; stroke-width: 1.0;"/><text fill="#000000" font-family="sans-serif" font-size="11" lengthAdjust="spacingAndGlyphs" textLength="34" x="26" y="255.1348">work()</text><!--class Postman--><rect fill="#FEFECE" filter="url(#f1hkmwquhkk0dl)" height="60.9551" id="Postman" style="stroke: #A80036; stroke-width: 1.5;" width="81" x="133.5" y="200.5"/><ellipse cx="148.5" cy="216.5" fill="#ADD1B2" rx="11" ry="11" style="stroke: #A80036; stroke-width: 1.0;"/><path d="M151.4731,222.1431 Q150.8921,222.4419 150.2529,222.5913 Q149.6138,222.7407 148.9082,222.7407 Q146.4014,222.7407 145.0815,221.0889 Q143.7617,219.437 143.7617,216.3159 Q143.7617,213.1865 145.0815,211.5347 Q146.4014,209.8828 148.9082,209.8828 Q149.6138,209.8828 150.2612,210.0322 Q150.9087,210.1816 151.4731,210.4805 L151.4731,213.2031 Q150.8423,212.6221 150.2488,212.3523 Q149.6553,212.0825 149.0244,212.0825 Q147.6797,212.0825 146.9949,213.1492 Q146.3101,214.2158 146.3101,216.3159 Q146.3101,218.4077 146.9949,219.4744 Q147.6797,220.541 149.0244,220.541 Q149.6553,220.541 150.2488,220.2712 Q150.8423,220.0015 151.4731,219.4204 Z "/><text fill="#000000" font-family="sans-serif" font-size="12" lengthAdjust="spacingAndGlyphs" textLength="49" x="162.5" y="221.0352">Postman</text><line style="stroke: #A80036; stroke-width: 1.5;" x1="134.5" x2="213.5" y1="232.5" y2="232.5"/><line style="stroke: #A80036; stroke-width: 1.5;" x1="134.5" x2="213.5" y1="240.5" y2="240.5"/><polygon fill="#FFFF44" points="144.5,247.4775,148.5,251.4775,144.5,255.4775,140.5,251.4775" style="stroke: #B38D22; stroke-width: 1.0;"/><text fill="#000000" font-family="sans-serif" font-size="11" lengthAdjust="spacingAndGlyphs" textLength="34" x="153.5" y="255.1348">work()</text><!--class Manager--><rect fill="#FEFECE" filter="url(#f1hkmwquhkk0dl)" height="73.9102" id="Manager" style="stroke: #A80036; stroke-width: 1.5;" width="82" x="250" y="194"/><ellipse cx="265" cy="210" fill="#ADD1B2" rx="11" ry="11" style="stroke: #A80036; stroke-width: 1.0;"/><path d="M267.9731,215.6431 Q267.3921,215.9419 266.7529,216.0913 Q266.1138,216.2407 265.4082,216.2407 Q262.9014,216.2407 261.5815,214.5889 Q260.2617,212.937 260.2617,209.8159 Q260.2617,206.6865 261.5815,205.0347 Q262.9014,203.3828 265.4082,203.3828 Q266.1138,203.3828 266.7612,203.5322 Q267.4087,203.6816 267.9731,203.9805 L267.9731,206.7031 Q267.3423,206.1221 266.7488,205.8523 Q266.1553,205.5825 265.5244,205.5825 Q264.1797,205.5825 263.4949,206.6492 Q262.8101,207.7158 262.8101,209.8159 Q262.8101,211.9077 263.4949,212.9744 Q264.1797,214.041 265.5244,214.041 Q266.1553,214.041 266.7488,213.7712 Q267.3423,213.5015 267.9731,212.9204 Z "/><text fill="#000000" font-family="sans-serif" font-size="12" lengthAdjust="spacingAndGlyphs" textLength="50" x="279" y="214.5352">Manager</text><line style="stroke: #A80036; stroke-width: 1.5;" x1="251" x2="331" y1="226" y2="226"/><line style="stroke: #A80036; stroke-width: 1.5;" x1="251" x2="331" y1="234" y2="234"/><polygon fill="#FFFF44" points="261,240.9775,265,244.9775,261,248.9775,257,244.9775" style="stroke: #B38D22; stroke-width: 1.0;"/><text fill="#000000" font-family="sans-serif" font-size="11" lengthAdjust="spacingAndGlyphs" textLength="34" x="270" y="248.6348">work()</text><polygon fill="#FFFF44" points="261,253.9326,265,257.9326,261,261.9326,257,257.9326" style="stroke: #B38D22; stroke-width: 1.0;"/><text fill="#000000" font-family="sans-serif" font-size="11" lengthAdjust="spacingAndGlyphs" textLength="35" x="270" y="261.5898">relax()</text><!--link Worker to FireFighter--><path d="M113.6526,150.1442 C100.0585,167.9725 86.4212,185.8575 75.4416,200.2569 " fill="none" id="Worker-FireFighter" style="stroke: #A80036; stroke-width: 1.0;"/><polygon fill="none" points="108.089,145.8959,125.7824,134.2362,119.2219,154.3847,108.089,145.8959" style="stroke: #A80036; stroke-width: 1.0;"/><!--link Worker to Postman--><path d="M174,154.4873 C174,170.8547 174,187.027 174,200.2569 " fill="none" id="Worker-Postman" style="stroke: #A80036; stroke-width: 1.0;"/><polygon fill="none" points="167.0001,154.2363,174,134.2362,181.0001,154.2362,167.0001,154.2363" style="stroke: #A80036; stroke-width: 1.0;"/><!--link Worker to Manager--><path d="M232.1033,150.4574 C243.1094,165.5086 254.1343,180.5854 263.6195,193.5566 " fill="none" id="Worker-Manager" style="stroke: #A80036; stroke-width: 1.0;"/><polygon fill="none" points="226.3965,154.5123,220.2415,134.2362,237.6974,146.2485,226.3965,154.5123" style="stroke: #A80036; stroke-width: 1.0;"/><!--
@startuml

abstract class Worker{
    + DailyRoutine()
    # getUp()
    # eat()
    # {abstract} work()
    # relax()
    # sleep()
}

class FireFighter extends Worker{
    # work()
}

class Postman extends Worker{
    # work()
}

class Manager extends Worker{
    # work()
    # relax()
}

@enduml

PlantUML version 1.2018.09(Fri Jul 27 18:58:18 CEST 2018)
(GPL source distribution)
Java Runtime: OpenJDK Runtime Environment
JVM: OpenJDK 64-Bit Server VM
Java Version: 1.8.0_152-release-1248-b8
Operating System: Mac OS X
OS Version: 10.13.6
Default Encoding: UTF-8
Language: de
Country: DE
--></g></svg>