<?xml version="1.0" encoding="utf-8" standalone="yes"?>
<!-- Generator: Adobe Illustrator 21.1.0, SVG Export Plug-In . SVG Version: 6.00 Build 0) -->
<svg xmlns="http://www.w3.org/2000/svg" xmlns:xlink="http://www.w3.org/1999/xlink" version="1.1" id="Ebene_1" x="20" y="20"
    viewBox="0 0 453.5 155.9" style="enable-background:new 0 0 453.5 155.9;" xml:space="preserve">
	<style type="text/css">
		.st0 {
			fill: #FFFFFF;
		}
	</style>
	<rect stroke="#000000" id="rect1" stroke-width="0px" x="0px" rx="20" width="456" y="-20px" fill="#cd1719" transform="" ry="20" height="200"></rect>
	<g>
		<path
			class="st0"
			d="M161.682068,118.820442 c0,-6.8 -0.9,-11.2 -2.6,-13.4 c-1.3,-1.7 -3.3,-2.6 -5.7,-2.6 c-3.1,0 -5.7,2 -6.8,5.1 c-0.9,2.7 -1.4,6.2 -1.4,11.2 c0,5.8 0.6,10.1 1.7,12.7 c1.2,2.7 4.1,4.1 6.7,4.1 C159.182068,135.820465 161.682068,130.720459 161.682068,118.820442 M175.982071,118.920418 c0,8.6 -2,14.5 -6.3,19.4 c-3.8,4.3 -8.8,7 -16.6,7 c-13.6,0 -22.6,-10.2 -22.6,-26 s9,-26.3 22.6,-26.3 c7.2,0 12.8,2.5 17.1,7.6 C174.182068,105.320442 175.982071,110.820442 175.982071,118.920418 M110.582069,118.820442 c0,-6.8 -0.9,-11.2 -2.7,-13.4 c-1.3,-1.7 -3.3,-2.6 -5.7,-2.6 c-3.1,0 -5.7,2 -6.8,5.1 c-0.9,2.7 -1.4,6.2 -1.4,11.2 c0,5.8 0.6,10.1 1.7,12.7 c1.2,2.7 4.1,4.1 6.7,4.1 C108.182068,135.820465 110.582069,130.720459 110.582069,118.820442 M119.182068,100.620445 c4,4.7 5.8,10.2 5.8,18.4 c0,8.6 -2,14.5 -6.3,19.4 c-3.8,4.3 -8.8,7 -16.6,7 c-13.6,0 -22.6,-10.2 -22.6,-26 s9,-26.3 22.6,-26.3 C109.282066,93.020439 114.782066,95.520439 119.182068,100.620445 M52.082073,133.120453 h23 l-3.5,11.2 H28.982071 v-9.6 l25.1,-41.5 c1.7,-2.8 3.7,-5.6 4.2,-6.2 c-0.6,0.1 -3.3,0.5 -7,0.5 h-21 l3,-11.4 H74.182068 V86.020439 l-25.3,42.7 c-1.3,2.2 -3.1,4.3 -3.5,4.8 C46.182072,133.320465 49.682072,133.120453 52.082073,133.120453 "></path>
		<path
			class="st0"
			d="M404.681976,136.220459 c-0.7,0.2 -1,0.2 -1.5,0.2 c-1.1,0 -2.2,-0.5 -2.6,-1.4 c-0.8,-1.4 -0.9,-2.6 -0.9,-11.2 V84.720436 c0,-7.1 -0.2,-10.3 -0.7,-13.1 l-13.4,3 c0.5,4.5 0.7,8.5 0.7,15.1 v37.5 c0,7.2 0.2,8.7 1.2,11.3 c1.6,4.2 6.1,6.9 11.7,6.9 c2.8,0 5.6,-0.5 7.9,-1.4 L404.681976,136.220459  z M361.881989,122.320419 h-0.6 c-9.1,0 -12.3,1.7 -12.3,7.7 c0,3.9 2.5,6.6 5.8,6.6 c2.5,0 4.9,-1.3 6.9,-3.4 L361.881989,122.320419  z M379.481964,138.820465 l-7,8 c-3,-1.3 -5.8,-3.5 -7.1,-6.1 c-1,1 -2.1,2 -3,2.6 c-2.5,1.8 -6,2.7 -10.1,2.7 c-11.2,0 -17.3,-5.7 -17.3,-15.7 c0,-11.8 8.1,-17.3 24.1,-17.3 c1,0 1.9,0 2.9,0.1 V111.020439 c0,-5.6 -1.1,-7.5 -5.9,-7.5 c-4.2,0 -9.1,2.1 -14.5,5.7 l-5.6,-9.4 c2.7,-1.7 4.6,-2.7 8.1,-4.1 c4.9,-2.1 9.1,-2.9 13.7,-2.9 c8.4,0 14.2,3.1 16.2,8.7 c0.7,2.1 1,3.6 0.9,9 l-0.3,16.9 C374.582001,133.120453 374.981964,135.420471 379.481964,138.820465 M311.181976,117.920403 c-0.8,2.4 -1.6,5.3 -2,7 c-0.6,2.5 -1.6,7.8 -1.6,8 l-2.6,-10.4 l-8.7,-29.3 l-13.4,1.6 l18,53.7 c0,0 0.3,-0.5 -0.9,1.6 c-1.1,1.7 -2.3,3 -3.7,4.1 c-2,1.4 -5.3,2.5 -8.1,3.3 l4.5,8.6 c4.5,-0.6 8.8,-2.2 12.2,-4.6 c3.6,-2.6 6.2,-6.9 9.6,-16.6 l18.3,-51 h-13.8 L311.181976,117.920403  z M267.582062,118.820442 c0,-6.8 -0.9,-11.2 -2.6,-13.5 c-1.3,-1.7 -3.3,-2.6 -5.7,-2.6 c-3.1,0 -5.7,2 -6.8,5.1 c-0.9,2.7 -1.4,6.2 -1.4,11.2 c0,5.8 0.6,10.1 1.7,12.7 c1.2,2.7 4.1,4.1 6.7,4.1 C265.082062,135.820465 267.582062,130.720459 267.582062,118.820442 M276.082001,100.620445 c4,4.7 5.8,10.2 5.8,18.4 c0,8.6 -2,14.5 -6.3,19.4 c-3.8,4.3 -8.8,7 -16.6,7 c-13.6,0 -22.6,-10.2 -22.6,-26 s9,-26.3 22.6,-26.3 C266.182037,93.020439 271.782013,95.520439 276.082001,100.620445 M213.482071,103.220436 c1.7,-1.6 2.6,-4 2.6,-6.9 c0,-4.2 -1.7,-7.2 -4.9,-8.3 c-1.6,-0.6 -4.4,-1 -7.7,-1 h-4.9 v18.5 h4.6 C209.082062,105.520439 211.582062,104.920433 213.482071,103.220436 M218.182068,117.720421 c3.5,4.4 13.9,22.2 16.4,26.5 h-16.2 c-2.6,-4.5 -3.7,-6.4 -6.4,-11.2 c-6.8,-12.3 -8.8,-15.6 -11.3,-16.7 c-0.7,-0.3 -1.3,-0.5 -2.2,-0.6 v28.5 h-13.4 V76.020439 h25.4 c12.1,0 20,8 20,20 c0,10.2 -6.8,18.7 -15.2,18.8 C216.682068,116.020424 217.282074,116.62043 218.182068,117.720421 "></path>
		<path class="st0" d="M433.381989,69.220436 c-6.2,6.7 -15,8.7 -19.9,4.3 c-4.8,-4.4 -3.7,-13.4 2.4,-20.2 c6.1,-6.7 15,-8.6 19.9,-4.3 C440.681976,53.520363 439.582001,62.520412 433.381989,69.220436 "></path>
		<path class="st0" d="M408.481964,48.620354 c-3.5,8.4 -11.2,13.3 -17.2,10.8 s-8.1,-11.3 -4.6,-19.8 c3.5,-8.4 11.2,-13.3 17.2,-10.8 C409.881989,31.320351 411.981964,40.220352 408.481964,48.620354 "></path>
		<path class="st0" d="M429.381989,103.12043 c-5.9,4.5 -13.5,4.4 -17,-0.2 s-1.7,-12 4.2,-16.5 c5.9,-4.5 13.5,-4.4 17,0.2 C437.082001,91.220436 435.181976,98.62043 429.381989,103.12043 "></path>
		<path class="st0" d="M357.681976,59.020378 c-1.6,7.2 1.7,14.1 7.4,15.3 c5.7,1.2 11.6,-3.6 13.1,-10.8 c1.6,-7.2 -1.7,-14.1 -7.4,-15.3 C365.181976,47.020363 359.282013,51.820366 357.681976,59.020378 "></path>
		<path
			class="st0"
			d="M336.481964,41.920349 c0,-1.3 -0.3,-2.4 -1.1,-3.3 c-0.7,-0.9 -1.5,-1.6 -3.9,-2.2 l-2.4,-0.6 c-1.8,-0.5 -2.5,-1 -2.5,-2 c0,-1.1 1,-1.9 2.5,-1.9 s2.9,0.4 4.8,1.4 l1.7,-3.4 c-1.8,-0.9 -3.9,-1.8 -7,-1.8 c-4.6,0 -7.6,2.6 -7.6,6.4 c0,1.3 0.4,2.7 1.1,3.5 s2.3,1.8 3.6,2 l2.3,0.4 c2.1,0.4 3,1.1 3,2.4 s-1.1,2.2 -2.6,2.2 c-2.2,0 -4.9,-1.3 -6.5,-2.2 l-1.8,3.8 c2.9,1.5 5.5,2.3 7.9,2.3 C333.082001,48.72036 336.481964,45.920349 336.481964,41.920349 M316.381989,48.120354 V33.720352 c0,-1.2 -0.1,-2.1 -0.4,-2.8 c-0.6,-1.7 -2.5,-2.8 -4.7,-2.8 c-1.2,0 -2.5,0.3 -3.5,0.8 c-0.8,0.5 -1.5,0.9 -2.3,1.5 c0,-0.8 -0.3,-1.6 -0.7,-2.4 l-4.6,1.3 c0.5,1.3 0.7,2.9 0.7,4.6 v14.2 h5.1 V34.220352 c1.2,-1.1 2.5,-1.8 3.6,-1.8 c1.3,0 1.7,0.7 1.7,2.9 v12.8 L316.381989,48.120354 L316.381989,48.120354  z M295.782013,23.020363 c0,-1.8 -1.4,-3.2 -3.1,-3.2 c-1.8,0 -3.2,1.4 -3.2,3.2 s1.4,3.2 3.1,3.2 C294.381989,26.22036 295.782013,24.820366 295.782013,23.020363 M295.181976,48.120354 V28.020355 l-5.1,0.8 v19.3 H295.181976  z M280.681976,36.120346 h-5.9 V36.020348 c0,-2.7 1.1,-4.3 3.1,-4.3 c1,0 1.8,0.4 2.3,1.2 c0.5,0.7 0.6,1.5 0.6,2.9 v0.3 H280.681976  z M285.981964,39.920349 v-1.2 c0,-4.1 -0.8,-6.7 -2.6,-8.6 c-1.3,-1.3 -3.4,-2.1 -5.7,-2.1 c-2.6,0 -4.6,0.8 -6.2,2.6 c-1.7,1.9 -2.5,4.3 -2.5,7.8 c0,6.2 3.6,10.2 9.3,10.2 c2.8,0 5.1,-0.9 7.4,-2.7 l-2,-3.1 c-1.6,1.3 -3.2,2 -5,2 c-2.6,0 -4.1,-1.7 -4.1,-4.8 v-0.2 L285.981964,39.920349 L285.981964,39.920349  z M259.682098,35.320351 c0,5.6 -1.6,8.4 -5.1,8.4 h-2.9 v-18 h2.5 c2.1,0 3.3,0.8 4.2,2.2 C259.382111,29.62035 259.682098,32.220352 259.682098,35.320351 M265.682098,34.820351 c0,-4.8 -1.2,-8.2 -3.6,-10.6 c-1.6,-1.6 -3.6,-2.5 -5.8,-2.6 c-1.1,-0.1 -3.1,-0.2 -4.6,-0.2 H246.182068 V48.020363 h6.5 c1.6,0 2.8,-0.1 3.8,-0.2 c2.5,-0.2 4.9,-1.6 6.5,-3.8 C264.782074,41.720352 265.682098,38.520348 265.682098,34.820351 M228.282074,36.120346 h-5.9 V36.020348 c0,-2.7 1.1,-4.3 3.1,-4.3 c1,0 1.8,0.4 2.3,1.2 c0.5,0.7 0.6,1.5 0.6,2.9 v0.3 H228.282074  z M233.582062,39.920349 v-1.2 c0,-4.1 -0.8,-6.7 -2.6,-8.6 c-1.3,-1.3 -3.4,-2.1 -5.7,-2.1 c-2.6,0 -4.6,0.8 -6.2,2.6 c-1.7,1.9 -2.5,4.3 -2.5,7.8 c0,6.2 3.6,10.2 9.3,10.2 c2.8,0 5.1,-0.9 7.4,-2.7 l-2,-3.1 c-1.6,1.3 -3.2,2 -5,2 c-2.6,0 -4.1,-1.7 -4.1,-4.8 v-0.2 L233.582062,39.920349 L233.582062,39.920349  z M212.682068,23.020363 c0,-1.8 -1.4,-3.2 -3.1,-3.2 c-1.8,0 -3.2,1.4 -3.2,3.2 s1.4,3.2 3.1,3.2 C211.282074,26.22036 212.682068,24.820366 212.682068,23.020363 M212.082062,48.120354 V28.020355 l-5.1,0.8 v19.3 H212.082062  z M204.282074,28.520355 h-5.3 l-1.5,7 c-0.5,2.5 -1,5.6 -1.1,6.4 c-0.1,-0.6 -0.7,-3.7 -1.5,-6.9 l-1.6,-6.5 h-4.8 l-1.8,6.6 c-0.6,2.2 -1.2,5.3 -1.4,6.8 c-0.1,-0.8 -0.7,-4.1 -1.1,-6.1 l-1.6,-7.5 l-5.1,0.6 l5.4,19.3 h4.8 l1,-4 c0.5,-1.8 1.3,-5.2 1.7,-6.9 c0.3,-1.4 0.3,-1.7 0.5,-2.5 l0.3,2 c0.2,1.3 0.7,3.2 1.1,4.8 l1.8,6.7 h4.7 L204.282074,28.520355  z M162.182068,36.120346 h-5.9 V36.020348 c0,-2.7 1.1,-4.3 3.1,-4.3 c1,0 1.8,0.4 2.3,1.2 c0.5,0.7 0.6,1.5 0.6,2.9 v0.3 H162.182068  z M167.482071,39.920349 v-1.2 c0,-4.1 -0.8,-6.7 -2.6,-8.6 c-1.3,-1.3 -3.4,-2.1 -5.7,-2.1 c-2.6,0 -4.6,0.8 -6.2,2.6 c-1.7,1.9 -2.5,4.3 -2.5,7.8 c0,6.2 3.6,10.2 9.3,10.2 c2.8,0 5.1,-0.9 7.4,-2.7 l-2,-3.1 c-1.6,1.3 -3.2,2 -5,2 c-2.6,0 -4.1,-1.7 -4.1,-4.8 v-0.2 L167.482071,39.920349 L167.482071,39.920349  z M149.882065,28.420357 c-0.8,-0.3 -1.1,-0.4 -1.9,-0.4 c-1.9,0 -3.5,1.3 -4.6,2.8 c-0.1,-1.1 -0.3,-2 -0.8,-2.8 l-4.6,1.2 c0.4,1.1 0.7,3.1 0.7,5.8 v13.1 h5.1 V34.220352 c1,-1.1 2,-1.6 3.1,-1.6 c0.6,0 1,0.1 1.5,0.4 L149.882065,28.420357  z M129.382065,36.120346 h-5.9 V36.020348 c0,-2.7 1.1,-4.3 3.1,-4.3 c1,0 1.8,0.4 2.3,1.2 c0.5,0.7 0.6,1.5 0.6,2.9 L129.382065,36.120346 L129.382065,36.120346  z M134.682068,39.920349 v-1.2 c0,-4.1 -0.8,-6.7 -2.6,-8.6 c-1.3,-1.3 -3.4,-2.1 -5.7,-2.1 c-2.6,0 -4.6,0.8 -6.2,2.6 c-1.7,1.9 -2.5,4.3 -2.5,7.8 c0,6.2 3.6,10.2 9.3,10.2 c2.8,0 5.1,-0.9 7.4,-2.7 l-2,-3.1 c-1.6,1.3 -3.2,2 -5,2 c-2.6,0 -4.1,-1.7 -4.1,-4.8 v-0.2 L134.682068,39.920349 L134.682068,39.920349  z M113.782066,23.020363 c0,-1.8 -1.4,-3.2 -3.1,-3.2 c-1.8,0 -3.2,1.4 -3.2,3.2 s1.4,3.2 3.1,3.2 C112.382065,26.22036 113.782066,24.820366 113.782066,23.020363 M113.182068,48.120354 V28.020355 l-5.1,0.8 v19.3 H113.182068  z M105.782066,21.420364 H86.582069 v4.4 h6.5 V48.020363 h5.4 V25.920357 h6.4 L105.782066,21.420364  z M77.882065,28.420357 c-0.8,-0.3 -1.1,-0.4 -1.9,-0.4 c-1.9,0 -3.5,1.3 -4.6,2.8 c-0.1,-1.1 -0.3,-2 -0.8,-2.8 l-4.6,1.2 c0.4,1.1 0.7,3.1 0.7,5.8 v13.1 h5.1 V34.220352 c1,-1.1 2,-1.6 3.1,-1.6 c0.6,0 1,0.1 1.5,0.4 L77.882065,28.420357  z M60.78207,23.720367 c0,-1.6 -1.3,-2.9 -2.9,-2.9 c-1.6,0 -3,1.3 -3,2.9 s1.3,3 2.9,3 S60.78207,25.320362 60.78207,23.720367 M52.482071,23.720367 c0,-1.6 -1.3,-2.9 -2.9,-2.9 s-3,1.3 -3,2.9 s1.3,3 2.9,3 C51.182072,26.72036 52.482071,25.320362 52.482071,23.720367 M62.582073,46.520363 c-0.8,-0.9 -1.2,-2.3 -1.2,-3.6 V28.020355 l-4.9,1 v13.8 c-0.4,1 -1.9,1.9 -3.2,1.9 c-0.8,0 -1.5,-0.4 -1.8,-0.9 s-0.4,-1.5 -0.4,-3.2 V28.020355 l-5.1,1 v12.6 c0,2 0.1,3 0.4,3.9 c0.7,1.9 3,3.2 5.8,3.2 c2.1,0 3.9,-0.6 5.2,-1.9 c0.3,0.8 0.9,1.5 1.5,1.9 L62.582073,46.520363  z M43.882072,21.420364 H29.482071 V48.020363 h5.4 V36.220352 h6.8 v-4.4 h-6.8 v-6 h8.5 L43.882072,21.420364  z "></path>
	</g>
</svg>
